<svg width="40" height="24" viewBox="0 0 40 24" fill="none" xmlns="http://www.w3.org/2000/svg">
<path d="M13.1687 11.9993L8.21875 7.04928L9.63275 5.63528L15.9967 11.9993L9.63275 18.3633L8.21875 16.9493L13.1687 11.9993Z" fill="#FFAD08"/>
<path d="M13.1687 11.9993L8.21875 7.04928L9.63275 5.63528L15.9967 11.9993L9.63275 18.3633L8.21875 16.9493L13.1687 11.9993Z" fill="url(#paint0_linear_438_21034)" fill-opacity="0.38"/>
<path d="M21.1687 11.9993L16.2188 7.04928L17.6327 5.63528L23.9967 11.9993L17.6327 18.3633L16.2188 16.9493L21.1687 11.9993Z" fill="#FFAD08"/>
<path d="M21.1687 11.9993L16.2188 7.04928L17.6327 5.63528L23.9967 11.9993L17.6327 18.3633L16.2188 16.9493L21.1687 11.9993Z" fill="url(#paint1_linear_438_21034)" fill-opacity="0.38"/>
<path d="M29.1687 11.9993L24.2188 7.04928L25.6327 5.63528L31.9967 11.9993L25.6327 18.3633L24.2188 16.9493L29.1687 11.9993Z" fill="#FFAD08"/>
<path d="M29.1687 11.9993L24.2188 7.04928L25.6327 5.63528L31.9967 11.9993L25.6327 18.3633L24.2188 16.9493L29.1687 11.9993Z" fill="url(#paint2_linear_438_21034)" fill-opacity="0.38"/>
<defs>
<linearGradient id="paint0_linear_438_21034" x1="15.9968" y1="5.63528" x2="4.67041" y2="12.5567" gradientUnits="userSpaceOnUse">
<stop stop-color="white" stop-opacity="0"/>
<stop offset="1" stop-color="white"/>
</linearGradient>
<linearGradient id="paint1_linear_438_21034" x1="23.9968" y1="5.63528" x2="12.6704" y2="12.5567" gradientUnits="userSpaceOnUse">
<stop stop-color="white" stop-opacity="0"/>
<stop offset="1" stop-color="white"/>
</linearGradient>
<linearGradient id="paint2_linear_438_21034" x1="31.9968" y1="5.63528" x2="20.6704" y2="12.5567" gradientUnits="userSpaceOnUse">
<stop stop-color="white" stop-opacity="0"/>
<stop offset="1" stop-color="white"/>
</linearGradient>
</defs>
</svg>
