<svg width="151" height="146" viewBox="0 0 151 146" fill="none" xmlns="http://www.w3.org/2000/svg">
<path d="M242.33 113.988C243.59 116.17 243.931 118.763 243.279 121.196C242.627 123.63 241.035 125.705 238.853 126.964L90.7744 212.458C88.5926 213.718 85.9997 214.059 83.5662 213.407C81.1326 212.755 79.0578 211.163 77.7982 208.981L51.6752 163.735C57.1297 160.585 61.1099 155.398 62.74 149.315C64.3702 143.231 63.5168 136.749 60.3676 131.294C57.2184 125.839 52.0313 121.859 45.9475 120.229C39.8637 118.599 33.3815 119.452 27.927 122.602L1.80395 77.3551C0.544272 75.1733 0.202893 72.5804 0.854954 70.1469C1.50702 67.7134 3.09909 65.6386 5.28093 64.3789L153.36 -21.1146C155.542 -22.3743 158.135 -22.7156 160.568 -22.0636C163.002 -21.4115 165.077 -19.8195 166.336 -17.6376L242.33 113.988ZM121.027 19.4905C121.571 22.3904 121.201 25.3876 119.968 28.0683C118.736 30.749 116.702 32.981 114.147 34.4562C111.591 35.9315 108.641 36.5771 105.704 36.3041C102.766 36.0311 99.9852 34.8528 97.7456 32.932L23.0068 76.0825L37.1037 100.499C45.0519 99.9938 52.9832 101.719 60.0033 105.48C67.0234 109.242 72.8532 114.889 76.8353 121.786C80.8174 128.684 82.7935 136.556 82.5407 144.516C82.288 152.476 79.8165 160.208 75.4048 166.838L89.5017 191.255L164.241 148.105C163.697 145.205 164.067 142.208 165.299 139.527C166.532 136.846 168.566 134.614 171.121 133.139C173.676 131.664 176.626 131.018 179.564 131.291C182.502 131.564 185.282 132.742 187.522 134.663L221.128 115.261L154.633 0.0882767L121.027 19.4905ZM147.383 92.0242C150.656 90.1347 154.545 89.6226 158.196 90.6007C161.846 91.5788 164.958 93.9669 166.848 97.2397C168.737 100.512 169.249 104.402 168.271 108.052C167.293 111.702 164.905 114.815 161.632 116.704C158.36 118.594 154.47 119.106 150.82 118.128C147.17 117.149 144.057 114.761 142.168 111.489C140.278 108.216 139.766 104.327 140.744 100.676C141.723 97.026 144.111 93.9137 147.383 92.0242ZM123.635 50.8911C126.908 49.0016 130.797 48.4896 134.448 49.4677C138.098 50.4457 141.21 52.8338 143.1 56.1066C144.989 59.3793 145.501 63.2687 144.523 66.9189C143.545 70.5692 141.157 73.6814 137.884 75.571C134.611 77.4605 130.722 77.9725 127.072 76.9944C123.421 76.0164 120.309 73.6283 118.42 70.3555C116.53 67.0828 116.018 63.1934 116.996 59.5432C117.974 55.8929 120.362 52.7807 123.635 50.8911Z" fill="white"/>
</svg>
