<svg width="121" height="146" viewBox="0 0 121 146" fill="none" xmlns="http://www.w3.org/2000/svg">
<path d="M140.473 -8.24609C185.195 17.5739 200.517 74.7557 174.697 119.477C148.877 164.199 91.695 179.521 46.9734 153.701C2.25178 127.881 -13.07 70.6989 12.75 25.9773C38.57 -18.7443 95.7518 -34.0661 140.473 -8.24609ZM121.773 24.1433C108.888 16.7039 93.5753 14.688 79.2036 18.5388C64.832 22.3897 52.5787 31.792 45.1394 44.6773C37.7 57.5626 35.6841 72.8754 39.5349 87.247C43.3858 101.619 52.7881 113.872 65.6734 121.311C78.5587 128.751 93.8715 130.767 108.243 126.916C122.615 123.065 134.868 113.663 142.307 100.777C149.747 87.892 151.763 72.5792 147.912 58.2075C144.061 43.8359 134.659 31.5826 121.773 24.1433ZM113.592 38.3136C117.483 40.5598 120.644 43.8796 122.697 47.8757C124.75 51.8718 125.608 56.3748 125.168 60.8458C124.728 65.3169 123.009 69.5664 120.217 73.0858C117.425 76.6053 113.677 79.2454 109.423 80.6904C111.866 87.0241 111.651 94.0361 108.215 99.9876C101.763 111.162 86.3731 114.369 73.8546 107.141C61.3361 99.9134 56.4181 84.9819 62.8696 73.8076C66.3057 67.8561 72.2704 64.1634 78.9819 63.1043C78.109 58.6991 78.5235 54.1357 80.1759 49.9599C81.8283 45.7841 84.6486 42.1727 88.2995 39.5576C91.9504 36.9425 96.2774 35.4345 100.763 35.2139C105.248 34.9933 109.702 36.0694 113.592 38.3136ZM90.2171 78.8003C84.1198 75.28 77.4092 76.6743 75.0156 80.8201C72.622 84.966 74.7698 91.4747 80.8671 94.995C86.9644 98.5152 93.6751 97.121 96.0687 92.9751C98.4623 88.8293 96.3144 82.3206 90.2171 78.8003ZM106.58 50.4596C104.432 49.2197 101.88 48.8837 99.4847 49.5255C97.0894 50.1674 95.0472 51.7344 93.8073 53.8819C92.5674 56.0295 92.2314 58.5816 92.8732 60.9769C93.515 63.3722 95.0821 65.4144 97.2296 66.6543C99.3772 67.8942 101.929 68.2302 104.325 67.5883C106.72 66.9465 108.762 65.3795 110.002 63.2319C111.242 61.0844 111.578 58.5323 110.936 56.137C110.294 53.7417 108.727 51.6995 106.58 50.4596Z" fill="white"/>
</svg>
