<svg width="15" height="15" viewBox="0 0 15 15" fill="none" xmlns="http://www.w3.org/2000/svg">
<g opacity="0.5">
<path d="M12.5 5.625H6.875C6.18464 5.625 5.625 6.18464 5.625 6.875V12.5C5.625 13.1904 6.18464 13.75 6.875 13.75H12.5C13.1904 13.75 13.75 13.1904 13.75 12.5V6.875C13.75 6.18464 13.1904 5.625 12.5 5.625Z" stroke="white" stroke-width="1.66667" stroke-linecap="round" stroke-linejoin="round"/>
<path d="M3.12451 9.375H2.49951C2.16799 9.375 1.85005 9.2433 1.61563 9.00888C1.38121 8.77446 1.24951 8.45652 1.24951 8.125V2.5C1.24951 2.16848 1.38121 1.85054 1.61563 1.61612C1.85005 1.3817 2.16799 1.25 2.49951 1.25H8.12451C8.45603 1.25 8.77397 1.3817 9.00839 1.61612C9.24282 1.85054 9.37451 2.16848 9.37451 2.5V3.125" stroke="white" stroke-width="1.66667" stroke-linecap="round" stroke-linejoin="round"/>
</g>
</svg>
