<svg width="29" height="29" viewBox="0 0 29 29" fill="none" xmlns="http://www.w3.org/2000/svg">
<g filter="url(#filter0_d_409_10044)">
<path d="M10.4974 6.20703C14.8021 3.72168 20.3062 5.19651 22.7916 9.50126C25.2769 13.806 23.8021 19.3101 19.4974 21.7955C15.1926 24.2808 9.68847 22.806 7.20312 18.5013C4.71778 14.1965 6.1926 8.69238 10.4974 6.20703ZM12.2974 9.32472C11.0571 10.0408 10.152 11.2203 9.78135 12.6036C9.41068 13.987 9.60473 15.461 10.3208 16.7013C11.0369 17.9416 12.2164 18.8466 13.5997 19.2173C14.9831 19.5879 16.4571 19.3939 17.6974 18.6778C18.9376 17.9617 19.8427 16.7823 20.2134 15.3989C20.584 14.0155 20.39 12.5416 19.6739 11.3013C18.9578 10.061 17.7783 9.15593 16.395 8.78526C15.0116 8.41459 13.5376 8.60864 12.2974 9.32472ZM13.0849 10.6887C13.4594 10.4725 13.8882 10.3687 14.3202 10.3899C14.7521 10.4111 15.1687 10.5563 15.5203 10.8082C15.8718 11.06 16.1433 11.4078 16.3023 11.81C16.4613 12.2122 16.5011 12.6516 16.4168 13.0758C17.0623 13.1769 17.6365 13.5324 17.9672 14.1052C18.5882 15.1809 18.1148 16.6181 16.9099 17.3138C15.7049 18.0095 14.2235 17.7009 13.6025 16.6252C13.2717 16.0524 13.251 15.3774 13.4857 14.767C13.0765 14.6277 12.716 14.3735 12.4474 14.0348C12.1789 13.6961 12.0135 13.2872 11.9713 12.857C11.929 12.4268 12.0115 11.9935 12.209 11.609C12.4065 11.2245 12.7106 10.905 13.0849 10.6887V10.6887ZM15.3349 14.5858C14.7479 14.9247 14.5412 15.5512 14.7716 15.9502C15.002 16.3493 15.6479 16.4835 16.2349 16.1447C16.8218 15.8058 17.0285 15.1793 16.7981 14.7802C16.5677 14.3812 15.9218 14.247 15.3349 14.5858ZM13.7599 11.8578C13.5531 11.9772 13.4023 12.1738 13.3405 12.4043C13.2787 12.6349 13.3111 12.8806 13.4304 13.0873C13.5498 13.294 13.7464 13.4448 13.9769 13.5066C14.2075 13.5684 14.4531 13.536 14.6599 13.4167C14.8666 13.2973 15.0174 13.1008 15.0792 12.8702C15.141 12.6396 15.1086 12.394 14.9893 12.1873C14.8699 11.9806 14.6734 11.8297 14.4428 11.7679C14.2122 11.7062 13.9666 11.7385 13.7599 11.8578Z" fill="white"/>
</g>
<defs>
<filter id="filter0_d_409_10044" x="0.992188" y="0" width="28.0078" height="28.002" filterUnits="userSpaceOnUse" color-interpolation-filters="sRGB">
<feFlood flood-opacity="0" result="BackgroundImageFix"/>
<feColorMatrix in="SourceAlpha" type="matrix" values="0 0 0 0 0 0 0 0 0 0 0 0 0 0 0 0 0 0 127 0" result="hardAlpha"/>
<feOffset/>
<feGaussianBlur stdDeviation="2.5"/>
<feComposite in2="hardAlpha" operator="out"/>
<feColorMatrix type="matrix" values="0 0 0 0 1 0 0 0 0 0 0 0 0 0 0 0 0 0 0.25 0"/>
<feBlend mode="normal" in2="BackgroundImageFix" result="effect1_dropShadow_409_10044"/>
<feBlend mode="normal" in="SourceGraphic" in2="effect1_dropShadow_409_10044" result="shape"/>
</filter>
</defs>
</svg>
