<svg width="30" height="29" viewBox="0 0 30 29" fill="none" xmlns="http://www.w3.org/2000/svg">
<g filter="url(#filter0_d_409_10055)">
<path d="M7.6875 16.7219L5.625 13.1495C5.52554 12.9773 5.49859 12.7725 5.55007 12.5804C5.60156 12.3883 5.72726 12.2245 5.89952 12.125L17.5909 5.375C17.7631 5.27554 17.9678 5.24859 18.16 5.30007C18.3521 5.35156 18.5159 5.47726 18.6154 5.64952L20.6779 9.22187C20.2472 9.47051 19.933 9.88005 19.8043 10.3604C19.6756 10.8407 19.7429 11.3525 19.9916 11.7832C20.2402 12.2138 20.6498 12.5281 21.1301 12.6568C21.6104 12.7855 22.1222 12.7181 22.5529 12.4695L24.6154 16.0418C24.7148 16.2141 24.7418 16.4188 24.6903 16.6109C24.6388 16.8031 24.5131 16.9669 24.3409 17.0663L12.6495 23.8163C12.4773 23.9158 12.2725 23.9428 12.0804 23.8913C11.8883 23.8398 11.7245 23.7141 11.625 23.5418L9.5625 19.9695C9.99316 19.7208 10.3074 19.3113 10.4361 18.831C10.5648 18.3506 10.4974 17.8388 10.2488 17.4082C10.0002 16.9775 9.59062 16.6633 9.11029 16.5346C8.62995 16.4059 8.11816 16.4732 7.6875 16.7219V16.7219ZM13.7942 9.29904L7.29904 13.049L8.41204 14.9768C9.03957 14.9369 9.66577 15.0731 10.22 15.3701C10.7743 15.6671 11.2346 16.113 11.549 16.6575C11.8634 17.2021 12.0194 17.8236 11.9994 18.4521C11.9795 19.0806 11.7844 19.691 11.436 20.2145L12.549 22.1423L19.0442 18.3923L13.7942 9.29904ZM15.0933 8.54904L20.3433 17.6423L22.9413 16.1423L21.8283 14.2145C21.2008 14.2544 20.5746 14.1182 20.0203 13.8212C19.4661 13.5243 19.0058 13.0784 18.6914 12.5338C18.377 11.9893 18.221 11.3677 18.2409 10.7392C18.2609 10.1107 18.456 9.50033 18.8043 8.97681L17.6913 7.04904L15.0933 8.54904Z" fill="white"/>
</g>
<defs>
<filter id="filter0_d_409_10055" x="0.523438" y="0.275391" width="29.1953" height="28.6406" filterUnits="userSpaceOnUse" color-interpolation-filters="sRGB">
<feFlood flood-opacity="0" result="BackgroundImageFix"/>
<feColorMatrix in="SourceAlpha" type="matrix" values="0 0 0 0 0 0 0 0 0 0 0 0 0 0 0 0 0 0 127 0" result="hardAlpha"/>
<feOffset/>
<feGaussianBlur stdDeviation="2.5"/>
<feComposite in2="hardAlpha" operator="out"/>
<feColorMatrix type="matrix" values="0 0 0 0 1 0 0 0 0 0 0 0 0 0 0 0 0 0 0.25 0"/>
<feBlend mode="normal" in2="BackgroundImageFix" result="effect1_dropShadow_409_10055"/>
<feBlend mode="normal" in="SourceGraphic" in2="effect1_dropShadow_409_10055" result="shape"/>
</filter>
</defs>
</svg>
