<svg width="22" height="21" viewBox="0 0 22 21" fill="none" xmlns="http://www.w3.org/2000/svg">
<path d="M18.875 17.5005C18.875 17.7325 18.7828 17.9551 18.6187 18.1192C18.4546 18.2833 18.2321 18.3755 18 18.3755H4C3.76794 18.3755 3.54538 18.2833 3.38128 18.1192C3.21719 17.9551 3.125 17.7325 3.125 17.5005V8.30423C3.12491 8.17089 3.15529 8.0393 3.21383 7.91949C3.27236 7.79969 3.35751 7.69485 3.46275 7.61298L10.4627 2.16873C10.6163 2.04925 10.8054 1.98438 11 1.98438C11.1946 1.98438 11.3836 2.04925 11.5373 2.16873L18.5373 7.61298C18.6425 7.69485 18.7276 7.79969 18.7862 7.91949C18.8447 8.0393 18.8751 8.17089 18.875 8.30423V17.5005ZM17.125 16.6255V8.73123L11 3.96773L4.875 8.73123V16.6255H17.125Z" fill="white"/>
</svg>
