<svg width="16" height="16" viewBox="0 0 16 16" fill="none" xmlns="http://www.w3.org/2000/svg">
<path d="M7.99992 1.33398C11.6819 1.33398 14.6666 4.31865 14.6666 8.00065C14.6666 11.6827 11.6819 14.6673 7.99992 14.6673C4.31792 14.6673 1.33325 11.6827 1.33325 8.00065C1.33325 4.31865 4.31792 1.33398 7.99992 1.33398ZM7.99992 2.66732C6.58543 2.66732 5.22888 3.22922 4.22868 4.22941C3.22849 5.22961 2.66659 6.58616 2.66659 8.00065C2.66659 9.41514 3.22849 10.7717 4.22868 11.7719C5.22888 12.7721 6.58543 13.334 7.99992 13.334C9.41441 13.334 10.771 12.7721 11.7712 11.7719C12.7713 10.7717 13.3333 9.41514 13.3333 8.00065C13.3333 6.58616 12.7713 5.22961 11.7712 4.22941C10.771 3.22922 9.41441 2.66732 7.99992 2.66732ZM7.99992 4.00065C9.06078 4.00065 10.0782 4.42208 10.8283 5.17222C11.5785 5.92237 11.9999 6.93979 11.9999 8.00065C11.9999 9.06152 11.5785 10.0789 10.8283 10.8291C10.0782 11.5792 9.06078 12.0007 7.99992 12.0007C6.93905 12.0007 5.92164 11.5792 5.17149 10.8291C4.42135 10.0789 3.99992 9.06152 3.99992 8.00065C3.99992 6.93979 4.42135 5.92237 5.17149 5.17222C5.92164 4.42208 6.93905 4.00065 7.99992 4.00065ZM7.99992 5.16732C7.67972 5.16742 7.36632 5.25976 7.09722 5.43329C6.82811 5.60682 6.61469 5.8542 6.48248 6.14583C6.35027 6.43746 6.30487 6.76101 6.35171 7.07777C6.39854 7.39453 6.53564 7.69109 6.74659 7.93198C6.36992 8.23665 6.13325 8.67732 6.13325 9.16732C6.13325 10.0873 6.96925 10.834 7.99992 10.834C9.03059 10.834 9.86659 10.0873 9.86659 9.16732C9.86659 8.67732 9.62992 8.23665 9.25325 7.93265C9.46441 7.69177 9.60168 7.39515 9.64864 7.07828C9.69559 6.76141 9.65024 6.43773 9.518 6.14597C9.38577 5.85421 9.17226 5.60674 8.90302 5.43317C8.63379 5.25961 8.32025 5.16731 7.99992 5.16732ZM7.99992 8.50065C8.50192 8.50065 8.86659 8.82598 8.86659 9.16732C8.86659 9.50865 8.50192 9.83398 7.99992 9.83398C7.49792 9.83398 7.13325 9.50865 7.13325 9.16732C7.13325 8.82598 7.49792 8.50065 7.99992 8.50065ZM7.99992 6.16732C8.17673 6.16732 8.3463 6.23756 8.47132 6.36258C8.59635 6.4876 8.66659 6.65717 8.66659 6.83398C8.66659 7.0108 8.59635 7.18036 8.47132 7.30539C8.3463 7.43041 8.17673 7.50065 7.99992 7.50065C7.82311 7.50065 7.65354 7.43041 7.52851 7.30539C7.40349 7.18036 7.33325 7.0108 7.33325 6.83398C7.33325 6.65717 7.40349 6.4876 7.52851 6.36258C7.65354 6.23756 7.82311 6.16732 7.99992 6.16732Z" fill="white"/>
</svg>
