<svg width="17" height="17" viewBox="0 0 17 17" fill="none" xmlns="http://www.w3.org/2000/svg">
<path d="M4.36781 12.7491C4.51416 12.3344 4.78554 11.9752 5.14457 11.7212C5.5036 11.4672 5.93258 11.3307 6.3724 11.3307C6.81221 11.3307 7.24119 11.4672 7.60022 11.7212C7.95925 11.9752 8.23064 12.3344 8.37698 12.7491H15.5807V14.1658H8.37698C8.23064 14.5806 7.95925 14.9397 7.60022 15.1937C7.24119 15.4478 6.81221 15.5842 6.3724 15.5842C5.93258 15.5842 5.5036 15.4478 5.14457 15.1937C4.78554 14.9397 4.51416 14.5806 4.36781 14.1658H1.41406V12.7491H4.36781ZM8.61781 7.7908C8.76416 7.37605 9.03554 7.0169 9.39457 6.76286C9.7536 6.50882 10.1826 6.3724 10.6224 6.3724C11.0622 6.3724 11.4912 6.50882 11.8502 6.76286C12.2092 7.0169 12.4806 7.37605 12.627 7.7908H15.5807V9.20747H12.627C12.4806 9.62222 12.2092 9.98137 11.8502 10.2354C11.4912 10.4894 11.0622 10.6259 10.6224 10.6259C10.1826 10.6259 9.7536 10.4894 9.39457 10.2354C9.03554 9.98137 8.76416 9.62222 8.61781 9.20747H1.41406V7.7908H8.61781ZM4.36781 2.83246C4.51416 2.41771 4.78554 2.05856 5.14457 1.80452C5.5036 1.55048 5.93258 1.41406 6.3724 1.41406C6.81221 1.41406 7.24119 1.55048 7.60022 1.80452C7.95925 2.05856 8.23064 2.41771 8.37698 2.83246H15.5807V4.24913H8.37698C8.23064 4.66388 7.95925 5.02303 7.60022 5.27707C7.24119 5.53111 6.81221 5.66753 6.3724 5.66753C5.93258 5.66753 5.5036 5.53111 5.14457 5.27707C4.78554 5.02303 4.51416 4.66388 4.36781 4.24913H1.41406V2.83246H4.36781Z" fill="white"/>
</svg>
