<svg width="12" height="12" viewBox="0 0 12 12" fill="none" xmlns="http://www.w3.org/2000/svg">
<path d="M1 4.75V2C1 1.86739 1.05268 1.74021 1.14645 1.64645C1.24021 1.55268 1.36739 1.5 1.5 1.5H10.5C10.6326 1.5 10.7598 1.55268 10.8536 1.64645C10.9473 1.74021 11 1.86739 11 2V4.75C10.6685 4.75 10.3505 4.8817 10.1161 5.11612C9.8817 5.35054 9.75 5.66848 9.75 6C9.75 6.33152 9.8817 6.64946 10.1161 6.88388C10.3505 7.1183 10.6685 7.25 11 7.25V10C11 10.1326 10.9473 10.2598 10.8536 10.3536C10.7598 10.4473 10.6326 10.5 10.5 10.5H1.5C1.36739 10.5 1.24021 10.4473 1.14645 10.3536C1.05268 10.2598 1 10.1326 1 10V7.25C1.33152 7.25 1.64946 7.1183 1.88388 6.88388C2.1183 6.64946 2.25 6.33152 2.25 6C2.25 5.66848 2.1183 5.35054 1.88388 5.11612C1.64946 4.8817 1.33152 4.75 1 4.75ZM7 2.5H2V3.984C2.3756 4.17015 2.69174 4.45753 2.91275 4.81373C3.13377 5.16993 3.25088 5.5808 3.25088 6C3.25088 6.4192 3.13377 6.83007 2.91275 7.18627C2.69174 7.54248 2.3756 7.82985 2 8.016V9.5H7V2.5ZM8 2.5V9.5H10V8.016C9.6244 7.82985 9.30826 7.54248 9.08725 7.18627C8.86623 6.83007 8.74912 6.4192 8.74912 6C8.74912 5.5808 8.86623 5.16993 9.08725 4.81373C9.30826 4.45753 9.6244 4.17015 10 3.984V2.5H8Z" fill="#48EC48"/>
</svg>
