<svg width="12" height="12" viewBox="0 0 12 12" fill="none" xmlns="http://www.w3.org/2000/svg">
<path fill-rule="evenodd" clip-rule="evenodd" d="M3.67083 5.04241L6.0016 2.71267L8.33331 5.04431L9.68874 3.68798L6.0016 0L2.31445 3.68703L3.67083 5.04241ZM0 6L1.35588 4.64416L2.71176 6L1.35588 7.35584L0 6ZM6.00056 9.28867L3.6698 6.95798L2.31152 8.31242L2.31342 8.31431L6.00056 12.0004L9.68771 8.31242L9.68866 8.31147L8.33228 6.95703L6.00056 9.28867ZM9.28809 6L10.644 4.64416L11.9998 6L10.644 7.35584L9.28809 6ZM6.00125 4.62305L7.37659 5.99928H7.37753L7.37659 6.00023L6.00125 7.37647L4.62592 6.00213L4.62402 5.99928L4.62592 5.99739L4.86667 5.75664L4.98421 5.64006L6.00125 4.62305Z" fill="#FF2929"/>
</svg>
