<svg width="16" height="17" viewBox="0 0 16 17" fill="none" xmlns="http://www.w3.org/2000/svg">
<path fill-rule="evenodd" clip-rule="evenodd" d="M4.8943 7.22303L8.00191 4.11679L11.1108 7.22556L12.918 5.41716L8.00191 0.5L3.08585 5.4159L4.8943 7.22303ZM0 8.49978L1.80779 6.69204L3.61558 8.49978L1.80779 10.3075L0 8.49978ZM8.0011 12.8842L4.8935 9.77665L3.08252 11.5825L3.08505 11.585L8.0011 16.4997L12.9172 11.5825L12.9184 11.5813L11.11 9.77539L8.0011 12.8842ZM12.3844 8.49978L14.1922 6.69204L16 8.49978L14.1922 10.3075L12.3844 8.49978ZM8.0021 6.66389L9.83582 8.49882H9.83709L9.83582 8.50009L8.0021 10.335L6.16837 8.50261L6.16584 8.49882L6.16837 8.49629L6.48937 8.17531L6.64607 8.01987L8.0021 6.66389Z" fill="#FFAD08"/>
<path fill-rule="evenodd" clip-rule="evenodd" d="M4.8943 7.22303L8.00191 4.11679L11.1108 7.22556L12.918 5.41716L8.00191 0.5L3.08585 5.4159L4.8943 7.22303ZM0 8.49978L1.80779 6.69204L3.61558 8.49978L1.80779 10.3075L0 8.49978ZM8.0011 12.8842L4.8935 9.77665L3.08252 11.5825L3.08505 11.585L8.0011 16.4997L12.9172 11.5825L12.9184 11.5813L11.11 9.77539L8.0011 12.8842ZM12.3844 8.49978L14.1922 6.69204L16 8.49978L14.1922 10.3075L12.3844 8.49978ZM8.0021 6.66389L9.83582 8.49882H9.83709L9.83582 8.50009L8.0021 10.335L6.16837 8.50261L6.16584 8.49882L6.16837 8.49629L6.48937 8.17531L6.64607 8.01987L8.0021 6.66389Z" fill="url(#paint0_linear_438_21612)" fill-opacity="0.38"/>
<defs>
<linearGradient id="paint0_linear_438_21612" x1="16" y1="16.4997" x2="0.000313762" y2="0.499686" gradientUnits="userSpaceOnUse">
<stop stop-color="white" stop-opacity="0"/>
<stop offset="1" stop-color="white"/>
</linearGradient>
</defs>
</svg>
