<svg width="19" height="19" viewBox="0 0 19 19" fill="none" xmlns="http://www.w3.org/2000/svg">
<path d="M9.49967 1.58398C13.872 1.58398 17.4163 5.12828 17.4163 9.50065C17.4163 13.873 13.872 17.4173 9.49967 17.4173C5.1273 17.4173 1.58301 13.873 1.58301 9.50065C1.58301 5.12828 5.1273 1.58398 9.49967 1.58398ZM9.49967 4.75065C8.2399 4.75065 7.03171 5.2511 6.14092 6.14189C5.25012 7.03269 4.74967 8.24087 4.74967 9.50065C4.74967 10.7604 5.25012 11.9686 6.14092 12.8594C7.03171 13.7502 8.2399 14.2507 9.49967 14.2507C10.7595 14.2507 11.9676 13.7502 12.8584 12.8594C13.7492 11.9686 14.2497 10.7604 14.2497 9.50065C14.2497 8.24087 13.7492 7.03269 12.8584 6.14189C11.9676 5.2511 10.7595 4.75065 9.49967 4.75065ZM9.49967 6.13607C9.88006 6.13605 10.2524 6.24566 10.5721 6.45177C10.8918 6.65788 11.1454 6.95175 11.3024 7.29821C11.4594 7.64468 11.5133 8.02906 11.4575 8.40534C11.4018 8.78162 11.2388 9.13386 10.988 9.4199C11.4353 9.7809 11.7163 10.3042 11.7163 10.8861C11.7163 11.9786 10.7236 12.8652 9.49967 12.8652C8.27576 12.8652 7.28301 11.9786 7.28301 10.8861C7.28301 10.3042 7.56405 9.7809 8.01134 9.41911C7.76084 9.13305 7.59804 8.78088 7.54242 8.40473C7.48681 8.02858 7.54072 7.64437 7.69772 7.29805C7.85472 6.95174 8.10815 6.65798 8.42772 6.45191C8.74728 6.24584 9.11943 6.13619 9.49967 6.13607ZM9.49967 10.0944C8.90355 10.0944 8.47051 10.4807 8.47051 10.8861C8.47051 11.2914 8.90355 11.6777 9.49967 11.6777C10.0958 11.6777 10.5288 11.2914 10.5288 10.8861C10.5288 10.4807 10.0958 10.0944 9.49967 10.0944ZM9.49967 7.32357C9.28971 7.32357 9.08835 7.40698 8.93988 7.55544C8.79142 7.70391 8.70801 7.90527 8.70801 8.11523C8.70801 8.3252 8.79142 8.52656 8.93988 8.67503C9.08835 8.82349 9.28971 8.9069 9.49967 8.9069C9.70964 8.9069 9.911 8.82349 10.0595 8.67503C10.2079 8.52656 10.2913 8.3252 10.2913 8.11523C10.2913 7.90527 10.2079 7.70391 10.0595 7.55544C9.911 7.40698 9.70964 7.32357 9.49967 7.32357Z" fill="white"/>
</svg>
