<svg width="18" height="18" viewBox="0 0 18 18" fill="none" xmlns="http://www.w3.org/2000/svg">
<path d="M9.84015 12.7685L6.6909 11.051C6.27975 11.4905 5.74589 11.7963 5.15871 11.9284C4.57153 12.0606 3.95817 12.013 3.39835 11.792C2.83852 11.571 2.35812 11.1867 2.01958 10.6891C1.68104 10.1915 1.5 9.6035 1.5 9.00163C1.5 8.39975 1.68104 7.8118 2.01958 7.31417C2.35812 6.81654 2.83852 6.43224 3.39835 6.21122C3.95817 5.9902 4.57153 5.94268 5.15871 6.07484C5.74589 6.20699 6.27975 6.5127 6.6909 6.95225L9.8409 5.23475C9.66207 4.52681 9.74757 3.77794 10.0814 3.12853C10.4152 2.47911 10.9744 1.97374 11.6542 1.70713C12.3339 1.44052 13.0876 1.43098 13.7739 1.6803C14.4602 1.92962 15.032 2.42069 15.3821 3.06145C15.7323 3.70221 15.8367 4.44867 15.6758 5.16091C15.515 5.87315 15.0999 6.50228 14.5083 6.93036C13.9168 7.35844 13.1894 7.55608 12.4626 7.48625C11.7358 7.41641 11.0594 7.08388 10.5602 6.551L7.41015 8.2685C7.53106 8.74952 7.53106 9.25298 7.41015 9.734L10.5594 11.4515C11.0586 10.9186 11.735 10.5861 12.4619 10.5163C13.1887 10.4464 13.916 10.6441 14.5076 11.0721C15.0991 11.5002 15.5142 12.1293 15.6751 12.8416C15.8359 13.5538 15.7315 14.3003 15.3814 14.9411C15.0312 15.5818 14.4594 16.0729 13.7731 16.3222C13.0868 16.5715 12.3332 16.562 11.6534 16.2954C10.9736 16.0288 10.4144 15.5234 10.0806 14.874C9.74682 14.2246 9.66132 13.4757 9.84015 12.7678V12.7685ZM4.50015 10.5013C4.89798 10.5013 5.27951 10.3432 5.56081 10.0619C5.84212 9.78061 6.00015 9.39908 6.00015 9.00125C6.00015 8.60343 5.84212 8.2219 5.56081 7.94059C5.27951 7.65929 4.89798 7.50125 4.50015 7.50125C4.10233 7.50125 3.7208 7.65929 3.43949 7.94059C3.15819 8.2219 3.00015 8.60343 3.00015 9.00125C3.00015 9.39908 3.15819 9.78061 3.43949 10.0619C3.7208 10.3432 4.10233 10.5013 4.50015 10.5013V10.5013ZM12.7502 6.00125C13.148 6.00125 13.5295 5.84322 13.8108 5.56191C14.0921 5.28061 14.2502 4.89908 14.2502 4.50125C14.2502 4.10343 14.0921 3.7219 13.8108 3.44059C13.5295 3.15929 13.148 3.00125 12.7502 3.00125C12.3523 3.00125 11.9708 3.15929 11.6895 3.44059C11.4082 3.7219 11.2502 4.10343 11.2502 4.50125C11.2502 4.89908 11.4082 5.28061 11.6895 5.56191C11.9708 5.84322 12.3523 6.00125 12.7502 6.00125V6.00125ZM12.7502 15.0013C13.148 15.0013 13.5295 14.8432 13.8108 14.5619C14.0921 14.2806 14.2502 13.8991 14.2502 13.5013C14.2502 13.1034 14.0921 12.7219 13.8108 12.4406C13.5295 12.1593 13.148 12.0013 12.7502 12.0013C12.3523 12.0013 11.9708 12.1593 11.6895 12.4406C11.4082 12.7219 11.2502 13.1034 11.2502 13.5013C11.2502 13.8991 11.4082 14.2806 11.6895 14.5619C11.9708 14.8432 12.3523 15.0013 12.7502 15.0013V15.0013Z" fill="white"/>
</svg>
