<svg width="16" height="16" viewBox="0 0 16 16" fill="none" xmlns="http://www.w3.org/2000/svg">
<path d="M7.91667 0.00390625C12.289 0.00390625 15.8333 3.5482 15.8333 7.92057C15.8333 12.2929 12.289 15.8372 7.91667 15.8372C3.54429 15.8372 0 12.2929 0 7.92057C0 3.5482 3.54429 0.00390625 7.91667 0.00390625ZM7.91667 1.58724C6.23696 1.58724 4.62605 2.2545 3.43832 3.44223C2.25059 4.62996 1.58333 6.24087 1.58333 7.92057C1.58333 9.60028 2.25059 11.2112 3.43832 12.3989C4.62605 13.5866 6.23696 14.2539 7.91667 14.2539C9.59637 14.2539 11.2073 13.5866 12.395 12.3989C13.5827 11.2112 14.25 9.60028 14.25 7.92057C14.25 6.24087 13.5827 4.62996 12.395 3.44223C11.2073 2.2545 9.59637 1.58724 7.91667 1.58724V1.58724ZM7.91667 3.17057C9.17644 3.17057 10.3846 3.67102 11.2754 4.56182C12.1662 5.45261 12.6667 6.66079 12.6667 7.92057C12.6667 9.18035 12.1662 10.3885 11.2754 11.2793C10.3846 12.1701 9.17644 12.6706 7.91667 12.6706C6.65689 12.6706 5.44871 12.1701 4.55791 11.2793C3.66711 10.3885 3.16667 9.18035 3.16667 7.92057C3.16667 6.66079 3.66711 5.45261 4.55791 4.56182C5.44871 3.67102 6.65689 3.17057 7.91667 3.17057V3.17057ZM7.91667 4.55599C7.53643 4.55611 7.16427 4.66576 6.84471 4.87183C6.52515 5.0779 6.27171 5.37166 6.11471 5.71797C5.95771 6.06429 5.9038 6.4485 5.95942 6.82465C6.01503 7.2008 6.17783 7.55297 6.42833 7.83903C5.98104 8.20082 5.7 8.72411 5.7 9.30599C5.7 10.3985 6.69275 11.2852 7.91667 11.2852C9.14058 11.2852 10.1333 10.3985 10.1333 9.30599C10.1333 8.72411 9.85229 8.20082 9.405 7.83982C9.65575 7.55378 9.81876 7.20154 9.87452 6.82526C9.93028 6.44898 9.87642 6.0646 9.71939 5.71814C9.56236 5.37167 9.30882 5.0778 8.9891 4.87169C8.66939 4.66558 8.29706 4.55598 7.91667 4.55599V4.55599ZM7.91667 8.51432C8.51279 8.51432 8.94583 8.90066 8.94583 9.30599C8.94583 9.71132 8.51279 10.0977 7.91667 10.0977C7.32054 10.0977 6.8875 9.71132 6.8875 9.30599C6.8875 8.90066 7.32054 8.51432 7.91667 8.51432ZM7.91667 5.74349C8.12663 5.74349 8.32799 5.8269 8.47646 5.97536C8.62493 6.12383 8.70833 6.32519 8.70833 6.53516C8.70833 6.74512 8.62493 6.94648 8.47646 7.09495C8.32799 7.24341 8.12663 7.32682 7.91667 7.32682C7.7067 7.32682 7.50534 7.24341 7.35687 7.09495C7.20841 6.94648 7.125 6.74512 7.125 6.53516C7.125 6.32519 7.20841 6.12383 7.35687 5.97536C7.50534 5.8269 7.7067 5.74349 7.91667 5.74349V5.74349Z" fill="white"/>
</svg>
