<svg width="18" height="18" viewBox="0 0 18 18" fill="none" xmlns="http://www.w3.org/2000/svg">
<path d="M8.25 15.75C8.25 15.4516 8.13147 15.1655 7.9205 14.9545C7.70952 14.7435 7.42337 14.625 7.125 14.625C6.82663 14.625 6.54048 14.7435 6.3295 14.9545C6.11853 15.1655 6 15.4516 6 15.75H2.25C2.05109 15.75 1.86032 15.671 1.71967 15.5303C1.57902 15.3897 1.5 15.1989 1.5 15V3C1.5 2.80109 1.57902 2.61032 1.71967 2.46967C1.86032 2.32902 2.05109 2.25 2.25 2.25H6C6 2.54837 6.11853 2.83452 6.3295 3.0455C6.54048 3.25647 6.82663 3.375 7.125 3.375C7.42337 3.375 7.70952 3.25647 7.9205 3.0455C8.13147 2.83452 8.25 2.54837 8.25 2.25H15.75C15.9489 2.25 16.1397 2.32902 16.2803 2.46967C16.421 2.61032 16.5 2.80109 16.5 3V7.125C16.0027 7.125 15.5258 7.32254 15.1742 7.67417C14.8225 8.02581 14.625 8.50272 14.625 9C14.625 9.49728 14.8225 9.97419 15.1742 10.3258C15.5258 10.6775 16.0027 10.875 16.5 10.875V15C16.5 15.1989 16.421 15.3897 16.2803 15.5303C16.1397 15.671 15.9489 15.75 15.75 15.75H8.25ZM7.125 7.875C7.42337 7.875 7.70952 7.75647 7.9205 7.5455C8.13147 7.33452 8.25 7.04837 8.25 6.75C8.25 6.45163 8.13147 6.16548 7.9205 5.9545C7.70952 5.74353 7.42337 5.625 7.125 5.625C6.82663 5.625 6.54048 5.74353 6.3295 5.9545C6.11853 6.16548 6 6.45163 6 6.75C6 7.04837 6.11853 7.33452 6.3295 7.5455C6.54048 7.75647 6.82663 7.875 7.125 7.875ZM7.125 12.375C7.42337 12.375 7.70952 12.2565 7.9205 12.0455C8.13147 11.8345 8.25 11.5484 8.25 11.25C8.25 10.9516 8.13147 10.6655 7.9205 10.4545C7.70952 10.2435 7.42337 10.125 7.125 10.125C6.82663 10.125 6.54048 10.2435 6.3295 10.4545C6.11853 10.6655 6 10.9516 6 11.25C6 11.5484 6.11853 11.8345 6.3295 12.0455C6.54048 12.2565 6.82663 12.375 7.125 12.375Z" fill="#FFAD08"/>
<path d="M8.25 15.75C8.25 15.4516 8.13147 15.1655 7.9205 14.9545C7.70952 14.7435 7.42337 14.625 7.125 14.625C6.82663 14.625 6.54048 14.7435 6.3295 14.9545C6.11853 15.1655 6 15.4516 6 15.75H2.25C2.05109 15.75 1.86032 15.671 1.71967 15.5303C1.57902 15.3897 1.5 15.1989 1.5 15V3C1.5 2.80109 1.57902 2.61032 1.71967 2.46967C1.86032 2.32902 2.05109 2.25 2.25 2.25H6C6 2.54837 6.11853 2.83452 6.3295 3.0455C6.54048 3.25647 6.82663 3.375 7.125 3.375C7.42337 3.375 7.70952 3.25647 7.9205 3.0455C8.13147 2.83452 8.25 2.54837 8.25 2.25H15.75C15.9489 2.25 16.1397 2.32902 16.2803 2.46967C16.421 2.61032 16.5 2.80109 16.5 3V7.125C16.0027 7.125 15.5258 7.32254 15.1742 7.67417C14.8225 8.02581 14.625 8.50272 14.625 9C14.625 9.49728 14.8225 9.97419 15.1742 10.3258C15.5258 10.6775 16.0027 10.875 16.5 10.875V15C16.5 15.1989 16.421 15.3897 16.2803 15.5303C16.1397 15.671 15.9489 15.75 15.75 15.75H8.25ZM7.125 7.875C7.42337 7.875 7.70952 7.75647 7.9205 7.5455C8.13147 7.33452 8.25 7.04837 8.25 6.75C8.25 6.45163 8.13147 6.16548 7.9205 5.9545C7.70952 5.74353 7.42337 5.625 7.125 5.625C6.82663 5.625 6.54048 5.74353 6.3295 5.9545C6.11853 6.16548 6 6.45163 6 6.75C6 7.04837 6.11853 7.33452 6.3295 7.5455C6.54048 7.75647 6.82663 7.875 7.125 7.875ZM7.125 12.375C7.42337 12.375 7.70952 12.2565 7.9205 12.0455C8.13147 11.8345 8.25 11.5484 8.25 11.25C8.25 10.9516 8.13147 10.6655 7.9205 10.4545C7.70952 10.2435 7.42337 10.125 7.125 10.125C6.82663 10.125 6.54048 10.2435 6.3295 10.4545C6.11853 10.6655 6 10.9516 6 11.25C6 11.5484 6.11853 11.8345 6.3295 12.0455C6.54048 12.2565 6.82663 12.375 7.125 12.375Z" fill="url(#paint0_linear_426_16862)" fill-opacity="0.38"/>
<defs>
<linearGradient id="paint0_linear_426_16862" x1="16.5" y1="15.75" x2="3.07459" y2="0.832873" gradientUnits="userSpaceOnUse">
<stop stop-color="white" stop-opacity="0"/>
<stop offset="1" stop-color="white"/>
</linearGradient>
</defs>
</svg>
