<svg width="29" height="29" viewBox="0 0 29 29" fill="none" xmlns="http://www.w3.org/2000/svg">
<g filter="url(#filter0_d_409_4607)">
<path d="M7.10503 16.6866L5.11892 13.2466C5.02315 13.0807 4.99973 12.8821 5.05382 12.6945C5.10791 12.5068 5.23507 12.3455 5.40733 12.2461L17.0987 5.49609C17.2709 5.39664 17.4742 5.36715 17.6637 5.41412C17.8533 5.46109 18.0135 5.58067 18.1093 5.74656L20.0954 9.1866C19.6648 9.43524 19.3469 9.83844 19.2116 10.3075C19.0764 10.7766 19.135 11.2731 19.3744 11.6878C19.6138 12.1025 20.0145 12.4014 20.4884 12.5188C20.9622 12.6363 21.4703 12.5626 21.901 12.3139L23.8871 15.754C23.9829 15.9198 24.0063 16.1184 23.9522 16.3061C23.8981 16.4937 23.7709 16.655 23.5987 16.7544L11.9073 23.5044C11.7351 23.6039 11.5318 23.6334 11.3423 23.5864C11.1528 23.5394 10.9925 23.4198 10.8967 23.254L8.91059 19.8139C9.34125 19.5653 9.65915 19.1621 9.79437 18.693C9.92959 18.224 9.87104 17.7275 9.63161 17.3128C9.39218 16.8981 8.99148 16.5991 8.51765 16.4817C8.04383 16.3642 7.53569 16.438 7.10503 16.6866V16.6866ZM13.2743 9.37202L6.77907 13.122L7.85085 14.9784C8.47321 14.9295 9.09143 15.0519 9.6358 15.3318C10.1802 15.6116 10.629 16.0377 10.9318 16.5621C11.2345 17.0865 11.3792 17.6883 11.3493 18.2996C11.3195 18.911 11.1163 19.5076 10.7629 20.0221L11.8346 21.8785L18.3298 18.1285L13.2743 9.37202ZM14.5733 8.62202L19.6289 17.3785L22.2269 15.8785L21.1552 14.0221C20.5328 14.071 19.9146 13.9486 19.3702 13.6688C18.8258 13.3889 18.377 12.9628 18.0742 12.4384C17.7715 11.914 17.6269 11.3122 17.6567 10.7009C17.6866 10.0895 17.8897 9.49295 18.2432 8.97839L17.1714 7.12202L14.5733 8.62202Z" fill="white"/>
</g>
<defs>
<filter id="filter0_d_409_4607" x="0.0234375" y="0.392578" width="28.9609" height="28.2148" filterUnits="userSpaceOnUse" color-interpolation-filters="sRGB">
<feFlood flood-opacity="0" result="BackgroundImageFix"/>
<feColorMatrix in="SourceAlpha" type="matrix" values="0 0 0 0 0 0 0 0 0 0 0 0 0 0 0 0 0 0 127 0" result="hardAlpha"/>
<feOffset/>
<feGaussianBlur stdDeviation="2.5"/>
<feComposite in2="hardAlpha" operator="out"/>
<feColorMatrix type="matrix" values="0 0 0 0 1 0 0 0 0 0 0 0 0 0 0 0 0 0 0.25 0"/>
<feBlend mode="normal" in2="BackgroundImageFix" result="effect1_dropShadow_409_4607"/>
<feBlend mode="normal" in="SourceGraphic" in2="effect1_dropShadow_409_4607" result="shape"/>
</filter>
</defs>
</svg>
