<svg width="18" height="19" viewBox="0 0 18 19" fill="none" xmlns="http://www.w3.org/2000/svg">
<path d="M9 2C13.1422 2 16.5 5.35775 16.5 9.5C16.5 13.6422 13.1422 17 9 17C4.85775 17 1.5 13.6422 1.5 9.5C1.5 5.35775 4.85775 2 9 2ZM9 5C7.80653 5 6.66193 5.47411 5.81802 6.31802C4.97411 7.16193 4.5 8.30653 4.5 9.5C4.5 10.6935 4.97411 11.8381 5.81802 12.682C6.66193 13.5259 7.80653 14 9 14C10.1935 14 11.3381 13.5259 12.182 12.682C13.0259 11.8381 13.5 10.6935 13.5 9.5C13.5 8.30653 13.0259 7.16193 12.182 6.31802C11.3381 5.47411 10.1935 5 9 5ZM9 6.3125C9.36037 6.31249 9.71311 6.41633 10.016 6.61159C10.3189 6.80684 10.5591 7.08525 10.7078 7.41348C10.8566 7.74171 10.9076 8.10586 10.8548 8.46233C10.802 8.81881 10.6476 9.15251 10.41 9.4235C10.8338 9.7655 11.1 10.2612 11.1 10.8125C11.1 11.8475 10.1595 12.6875 9 12.6875C7.8405 12.6875 6.9 11.8475 6.9 10.8125C6.9 10.2612 7.16625 9.7655 7.59 9.42275C7.35268 9.15174 7.19845 8.81811 7.14576 8.46176C7.09307 8.1054 7.14415 7.74142 7.29288 7.41333C7.44162 7.08524 7.68172 6.80694 7.98446 6.61172C8.2872 6.4165 8.63977 6.31261 9 6.3125V6.3125ZM9 10.0625C8.43525 10.0625 8.025 10.4285 8.025 10.8125C8.025 11.1965 8.43525 11.5625 9 11.5625C9.56475 11.5625 9.975 11.1965 9.975 10.8125C9.975 10.4285 9.56475 10.0625 9 10.0625ZM9 7.4375C8.80109 7.4375 8.61032 7.51652 8.46967 7.65717C8.32902 7.79782 8.25 7.98859 8.25 8.1875C8.25 8.38641 8.32902 8.57718 8.46967 8.71783C8.61032 8.85848 8.80109 8.9375 9 8.9375C9.19891 8.9375 9.38968 8.85848 9.53033 8.71783C9.67098 8.57718 9.75 8.38641 9.75 8.1875C9.75 7.98859 9.67098 7.79782 9.53033 7.65717C9.38968 7.51652 9.19891 7.4375 9 7.4375Z" fill="#FFAD08"/>
<path d="M9 2C13.1422 2 16.5 5.35775 16.5 9.5C16.5 13.6422 13.1422 17 9 17C4.85775 17 1.5 13.6422 1.5 9.5C1.5 5.35775 4.85775 2 9 2ZM9 5C7.80653 5 6.66193 5.47411 5.81802 6.31802C4.97411 7.16193 4.5 8.30653 4.5 9.5C4.5 10.6935 4.97411 11.8381 5.81802 12.682C6.66193 13.5259 7.80653 14 9 14C10.1935 14 11.3381 13.5259 12.182 12.682C13.0259 11.8381 13.5 10.6935 13.5 9.5C13.5 8.30653 13.0259 7.16193 12.182 6.31802C11.3381 5.47411 10.1935 5 9 5ZM9 6.3125C9.36037 6.31249 9.71311 6.41633 10.016 6.61159C10.3189 6.80684 10.5591 7.08525 10.7078 7.41348C10.8566 7.74171 10.9076 8.10586 10.8548 8.46233C10.802 8.81881 10.6476 9.15251 10.41 9.4235C10.8338 9.7655 11.1 10.2612 11.1 10.8125C11.1 11.8475 10.1595 12.6875 9 12.6875C7.8405 12.6875 6.9 11.8475 6.9 10.8125C6.9 10.2612 7.16625 9.7655 7.59 9.42275C7.35268 9.15174 7.19845 8.81811 7.14576 8.46176C7.09307 8.1054 7.14415 7.74142 7.29288 7.41333C7.44162 7.08524 7.68172 6.80694 7.98446 6.61172C8.2872 6.4165 8.63977 6.31261 9 6.3125V6.3125ZM9 10.0625C8.43525 10.0625 8.025 10.4285 8.025 10.8125C8.025 11.1965 8.43525 11.5625 9 11.5625C9.56475 11.5625 9.975 11.1965 9.975 10.8125C9.975 10.4285 9.56475 10.0625 9 10.0625ZM9 7.4375C8.80109 7.4375 8.61032 7.51652 8.46967 7.65717C8.32902 7.79782 8.25 7.98859 8.25 8.1875C8.25 8.38641 8.32902 8.57718 8.46967 8.71783C8.61032 8.85848 8.80109 8.9375 9 8.9375C9.19891 8.9375 9.38968 8.85848 9.53033 8.71783C9.67098 8.57718 9.75 8.38641 9.75 8.1875C9.75 7.98859 9.67098 7.79782 9.53033 7.65717C9.38968 7.51652 9.19891 7.4375 9 7.4375Z" fill="url(#paint0_linear_426_16865)" fill-opacity="0.38"/>
<defs>
<linearGradient id="paint0_linear_426_16865" x1="16.5" y1="17" x2="1.5" y2="2" gradientUnits="userSpaceOnUse">
<stop stop-color="white" stop-opacity="0"/>
<stop offset="1" stop-color="white"/>
</linearGradient>
</defs>
</svg>
