<svg width="16" height="16" viewBox="0 0 16 16" fill="none" xmlns="http://www.w3.org/2000/svg">
<path d="M8.0026 1.33398C11.6846 1.33398 14.6693 4.31865 14.6693 8.00065C14.6693 11.6827 11.6846 14.6673 8.0026 14.6673C4.3206 14.6673 1.33594 11.6827 1.33594 8.00065C1.33594 4.31865 4.3206 1.33398 8.0026 1.33398ZM8.0026 2.66732C6.58812 2.66732 5.23156 3.22922 4.23137 4.22942C3.23117 5.22961 2.66927 6.58616 2.66927 8.00065C2.66927 9.41514 3.23117 10.7717 4.23137 11.7719C5.23156 12.7721 6.58812 13.334 8.0026 13.334C9.41709 13.334 10.7736 12.7721 11.7738 11.7719C12.774 10.7717 13.3359 9.41514 13.3359 8.00065C13.3359 6.58616 12.774 5.22961 11.7738 4.22942C10.7736 3.22922 9.41709 2.66732 8.0026 2.66732V2.66732ZM8.0026 4.00065C9.06347 4.00065 10.0809 4.42208 10.831 5.17222C11.5812 5.92237 12.0026 6.93979 12.0026 8.00065C12.0026 9.06152 11.5812 10.0789 10.831 10.8291C10.0809 11.5792 9.06347 12.0007 8.0026 12.0007C6.94174 12.0007 5.92432 11.5792 5.17418 10.8291C4.42403 10.0789 4.0026 9.06152 4.0026 8.00065C4.0026 6.93979 4.42403 5.92237 5.17418 5.17222C5.92432 4.42208 6.94174 4.00065 8.0026 4.00065V4.00065ZM8.0026 5.16732C7.6824 5.16742 7.36901 5.25976 7.0999 5.43329C6.8308 5.60682 6.61738 5.8542 6.48517 6.14583C6.35296 6.43746 6.30756 6.76101 6.35439 7.07777C6.40123 7.39453 6.53832 7.69109 6.74927 7.93198C6.3726 8.23665 6.13594 8.67732 6.13594 9.16732C6.13594 10.0873 6.97194 10.834 8.0026 10.834C9.03327 10.834 9.86927 10.0873 9.86927 9.16732C9.86927 8.67732 9.6326 8.23665 9.25594 7.93265C9.4671 7.69177 9.60437 7.39515 9.65132 7.07828C9.69828 6.76141 9.65292 6.43773 9.52069 6.14597C9.38845 5.85421 9.17494 5.60674 8.90571 5.43317C8.63648 5.25961 8.32293 5.16731 8.0026 5.16732V5.16732ZM8.0026 8.50065C8.5046 8.50065 8.86927 8.82598 8.86927 9.16732C8.86927 9.50865 8.5046 9.83398 8.0026 9.83398C7.5006 9.83398 7.13594 9.50865 7.13594 9.16732C7.13594 8.82598 7.5006 8.50065 8.0026 8.50065ZM8.0026 6.16732C8.17942 6.16732 8.34898 6.23756 8.47401 6.36258C8.59903 6.4876 8.66927 6.65717 8.66927 6.83398C8.66927 7.0108 8.59903 7.18036 8.47401 7.30539C8.34898 7.43041 8.17942 7.50065 8.0026 7.50065C7.82579 7.50065 7.65622 7.43041 7.5312 7.30539C7.40618 7.18036 7.33594 7.0108 7.33594 6.83398C7.33594 6.65717 7.40618 6.4876 7.5312 6.36258C7.65622 6.23756 7.82579 6.16732 8.0026 6.16732V6.16732Z" fill="#FFAD08"/>
<path d="M8.0026 1.33398C11.6846 1.33398 14.6693 4.31865 14.6693 8.00065C14.6693 11.6827 11.6846 14.6673 8.0026 14.6673C4.3206 14.6673 1.33594 11.6827 1.33594 8.00065C1.33594 4.31865 4.3206 1.33398 8.0026 1.33398ZM8.0026 2.66732C6.58812 2.66732 5.23156 3.22922 4.23137 4.22942C3.23117 5.22961 2.66927 6.58616 2.66927 8.00065C2.66927 9.41514 3.23117 10.7717 4.23137 11.7719C5.23156 12.7721 6.58812 13.334 8.0026 13.334C9.41709 13.334 10.7736 12.7721 11.7738 11.7719C12.774 10.7717 13.3359 9.41514 13.3359 8.00065C13.3359 6.58616 12.774 5.22961 11.7738 4.22942C10.7736 3.22922 9.41709 2.66732 8.0026 2.66732V2.66732ZM8.0026 4.00065C9.06347 4.00065 10.0809 4.42208 10.831 5.17222C11.5812 5.92237 12.0026 6.93979 12.0026 8.00065C12.0026 9.06152 11.5812 10.0789 10.831 10.8291C10.0809 11.5792 9.06347 12.0007 8.0026 12.0007C6.94174 12.0007 5.92432 11.5792 5.17418 10.8291C4.42403 10.0789 4.0026 9.06152 4.0026 8.00065C4.0026 6.93979 4.42403 5.92237 5.17418 5.17222C5.92432 4.42208 6.94174 4.00065 8.0026 4.00065V4.00065ZM8.0026 5.16732C7.6824 5.16742 7.36901 5.25976 7.0999 5.43329C6.8308 5.60682 6.61738 5.8542 6.48517 6.14583C6.35296 6.43746 6.30756 6.76101 6.35439 7.07777C6.40123 7.39453 6.53832 7.69109 6.74927 7.93198C6.3726 8.23665 6.13594 8.67732 6.13594 9.16732C6.13594 10.0873 6.97194 10.834 8.0026 10.834C9.03327 10.834 9.86927 10.0873 9.86927 9.16732C9.86927 8.67732 9.6326 8.23665 9.25594 7.93265C9.4671 7.69177 9.60437 7.39515 9.65132 7.07828C9.69828 6.76141 9.65292 6.43773 9.52069 6.14597C9.38845 5.85421 9.17494 5.60674 8.90571 5.43317C8.63648 5.25961 8.32293 5.16731 8.0026 5.16732V5.16732ZM8.0026 8.50065C8.5046 8.50065 8.86927 8.82598 8.86927 9.16732C8.86927 9.50865 8.5046 9.83398 8.0026 9.83398C7.5006 9.83398 7.13594 9.50865 7.13594 9.16732C7.13594 8.82598 7.5006 8.50065 8.0026 8.50065ZM8.0026 6.16732C8.17942 6.16732 8.34898 6.23756 8.47401 6.36258C8.59903 6.4876 8.66927 6.65717 8.66927 6.83398C8.66927 7.0108 8.59903 7.18036 8.47401 7.30539C8.34898 7.43041 8.17942 7.50065 8.0026 7.50065C7.82579 7.50065 7.65622 7.43041 7.5312 7.30539C7.40618 7.18036 7.33594 7.0108 7.33594 6.83398C7.33594 6.65717 7.40618 6.4876 7.5312 6.36258C7.65622 6.23756 7.82579 6.16732 8.0026 6.16732V6.16732Z" fill="url(#paint0_linear_459_33103)" fill-opacity="0.38"/>
<defs>
<linearGradient id="paint0_linear_459_33103" x1="14.6693" y1="14.6673" x2="1.33594" y2="1.33398" gradientUnits="userSpaceOnUse">
<stop stop-color="white" stop-opacity="0"/>
<stop offset="1" stop-color="white"/>
</linearGradient>
</defs>
</svg>
