<svg width="37" height="36" viewBox="0 0 37 36" fill="none" xmlns="http://www.w3.org/2000/svg">
<path d="M5.73783 12.0982L7.66683 28.5007H29.3328L31.2618 12.0982L25.2468 16.1077L18.4998 6.66223L11.7528 16.1077L5.73783 12.0982ZM4.70133 7.80073L10.9998 12.0007L17.2788 3.21073C17.4176 3.01629 17.6008 2.85779 17.8132 2.74844C18.0255 2.63908 18.261 2.58203 18.4998 2.58203C18.7387 2.58203 18.9741 2.63908 19.1865 2.74844C19.3989 2.85779 19.5821 3.01629 19.7208 3.21073L25.9998 12.0007L32.2998 7.80073C32.5383 7.6421 32.8171 7.55504 33.1034 7.54984C33.3898 7.54463 33.6716 7.6215 33.9157 7.77137C34.1597 7.92123 34.3557 8.13782 34.4806 8.39554C34.6055 8.65326 34.654 8.94134 34.6203 9.22573L32.1558 30.1762C32.1128 30.5411 31.9374 30.8775 31.6629 31.1217C31.3883 31.3658 31.0337 31.5007 30.6663 31.5007H6.33333C5.96593 31.5007 5.61132 31.3658 5.33677 31.1217C5.06222 30.8775 4.88681 30.5411 4.84383 30.1762L2.37933 9.22423C2.34603 8.93996 2.39476 8.65209 2.51976 8.39461C2.64476 8.13713 2.84082 7.92079 3.08479 7.77112C3.32877 7.62146 3.61047 7.54472 3.89664 7.54997C4.18281 7.55522 4.46151 7.64223 4.69983 7.80073H4.70133ZM18.4998 22.5007C17.7042 22.5007 16.9411 22.1847 16.3785 21.6221C15.8159 21.0594 15.4998 20.2964 15.4998 19.5007C15.4998 18.7051 15.8159 17.942 16.3785 17.3794C16.9411 16.8168 17.7042 16.5007 18.4998 16.5007C19.2955 16.5007 20.0585 16.8168 20.6211 17.3794C21.1838 17.942 21.4998 18.7051 21.4998 19.5007C21.4998 20.2964 21.1838 21.0594 20.6211 21.6221C20.0585 22.1847 19.2955 22.5007 18.4998 22.5007Z" fill="#FFAD08"/>
<path d="M5.73783 12.0982L7.66683 28.5007H29.3328L31.2618 12.0982L25.2468 16.1077L18.4998 6.66223L11.7528 16.1077L5.73783 12.0982ZM4.70133 7.80073L10.9998 12.0007L17.2788 3.21073C17.4176 3.01629 17.6008 2.85779 17.8132 2.74844C18.0255 2.63908 18.261 2.58203 18.4998 2.58203C18.7387 2.58203 18.9741 2.63908 19.1865 2.74844C19.3989 2.85779 19.5821 3.01629 19.7208 3.21073L25.9998 12.0007L32.2998 7.80073C32.5383 7.6421 32.8171 7.55504 33.1034 7.54984C33.3898 7.54463 33.6716 7.6215 33.9157 7.77137C34.1597 7.92123 34.3557 8.13782 34.4806 8.39554C34.6055 8.65326 34.654 8.94134 34.6203 9.22573L32.1558 30.1762C32.1128 30.5411 31.9374 30.8775 31.6629 31.1217C31.3883 31.3658 31.0337 31.5007 30.6663 31.5007H6.33333C5.96593 31.5007 5.61132 31.3658 5.33677 31.1217C5.06222 30.8775 4.88681 30.5411 4.84383 30.1762L2.37933 9.22423C2.34603 8.93996 2.39476 8.65209 2.51976 8.39461C2.64476 8.13713 2.84082 7.92079 3.08479 7.77112C3.32877 7.62146 3.61047 7.54472 3.89664 7.54997C4.18281 7.55522 4.46151 7.64223 4.69983 7.80073H4.70133ZM18.4998 22.5007C17.7042 22.5007 16.9411 22.1847 16.3785 21.6221C15.8159 21.0594 15.4998 20.2964 15.4998 19.5007C15.4998 18.7051 15.8159 17.942 16.3785 17.3794C16.9411 16.8168 17.7042 16.5007 18.4998 16.5007C19.2955 16.5007 20.0585 16.8168 20.6211 17.3794C21.1838 17.942 21.4998 18.7051 21.4998 19.5007C21.4998 20.2964 21.1838 21.0594 20.6211 21.6221C20.0585 22.1847 19.2955 22.5007 18.4998 22.5007Z" fill="url(#paint0_linear_615_4452)" fill-opacity="0.38"/>
<defs>
<linearGradient id="paint0_linear_615_4452" x1="34.6307" y1="31.5007" x2="5.88416" y2="-0.568774" gradientUnits="userSpaceOnUse">
<stop stop-color="white" stop-opacity="0"/>
<stop offset="1" stop-color="white"/>
</linearGradient>
</defs>
</svg>
