<svg width="345" height="388" viewBox="0 0 345 388" fill="none" xmlns="http://www.w3.org/2000/svg">
<mask id="mask0_389_48905" style="mask-type:alpha" maskUnits="userSpaceOnUse" x="0" y="0" width="345" height="388">
<rect width="345" height="388" rx="5" fill="#604545"/>
</mask>
<g mask="url(#mask0_389_48905)">
<path d="M190.131 273.572L89.8077 300.454L26 62.3203L125.966 35.5345C164.048 25.3303 197.86 27.7501 227.402 42.7939C257.181 57.7738 276.949 83.4719 286.707 119.888C296.465 156.304 292.226 188.563 273.99 216.663C255.928 244.462 227.975 263.432 190.131 273.572ZM175.424 220.115C195.655 214.694 210.031 204.082 218.552 188.278C227.009 172.236 228.782 155.052 223.871 136.725C218.705 117.446 208.784 103.267 194.106 94.1899C179.429 85.1124 161.618 83.3798 140.673 88.9921L101.757 99.4194L136.866 230.446L175.424 220.115Z" fill="#F0F4F4"/>
<path d="M123.882 442.131L97.0002 341.808L335.134 278L361.92 377.966C372.124 416.048 369.704 449.86 354.66 479.402C339.68 509.181 313.982 528.949 277.566 538.707C241.15 548.465 208.891 544.226 180.791 525.99C152.992 507.928 134.022 479.975 123.882 442.131ZM177.339 427.424C182.76 447.655 193.373 462.031 209.176 470.552C225.218 479.009 242.402 480.782 260.729 475.871C280.008 470.705 294.187 460.784 303.264 446.107C312.342 431.429 314.074 413.618 308.462 392.673L298.035 353.757L167.008 388.866L177.339 427.424Z" fill="#F0F4F4"/>
<path d="M-70.4722 260.881L29.851 233.999L93.6587 472.133L-6.30742 498.919C-44.3897 509.123 -78.2015 506.703 -107.743 491.659C-137.522 476.679 -157.291 450.981 -167.048 414.565C-176.806 378.149 -172.567 345.89 -154.331 317.79C-136.269 289.991 -108.316 271.021 -70.4722 260.881ZM-55.7656 314.338C-75.9968 319.759 -90.3727 330.372 -98.8934 346.175C-107.35 362.217 -109.123 379.401 -104.212 397.728C-99.0466 417.007 -89.1251 431.186 -74.4478 440.263C-59.7706 449.341 -41.9593 451.073 -21.014 445.461L17.9014 435.034L-17.2072 304.007L-55.7656 314.338Z" fill="#F0F4F4"/>
</g>
</svg>
