<svg width="345" height="388" viewBox="0 0 345 388" fill="none" xmlns="http://www.w3.org/2000/svg">
<mask id="mask0_732_12783" style="mask-type:alpha" maskUnits="userSpaceOnUse" x="0" y="0" width="345" height="388">
<rect width="345" height="388" rx="5" fill="#604545"/>
</mask>
<g mask="url(#mask0_732_12783)">
<path d="M305.777 217.451L256.923 230.541L223.893 107.271L208.921 243.403L187.335 249.187L106.587 138.703L139.617 261.973L90.7631 275.064L40 85.6133L107.884 67.4238L174.915 159.665L187.129 46.1901L255.013 28.0006L305.777 217.451Z" fill="#F0F4F4"/>
<path d="M165.612 520.777L152.522 471.923L275.793 438.893L139.66 423.921L133.876 402.335L244.361 321.587L121.09 354.617L108 305.763L297.45 255L315.64 322.884L223.398 389.915L336.873 402.129L355.063 470.013L165.612 520.777Z" fill="#F0F4F4"/>
<path d="M87.7766 395.451L38.9228 408.541L5.89252 285.271L-9.07891 421.403L-30.6655 427.187L-111.413 316.703L-78.3831 439.973L-127.237 453.064L-178 263.613L-110.116 245.424L-43.0847 337.665L-30.8706 224.19L37.0135 206.001L87.7766 395.451Z" fill="#F0F4F4"/>
</g>
</svg>
