<svg width="266" height="171" viewBox="0 0 266 171" fill="none" xmlns="http://www.w3.org/2000/svg">
<path d="M164.131 244.572L63.8077 271.454L0 33.3203L99.9661 6.53447C138.048 -3.66965 171.86 -1.24985 201.402 13.7939C231.181 28.7738 250.949 54.4719 260.707 90.8881C270.465 127.304 266.226 159.563 247.99 187.663C229.928 215.462 201.975 234.432 164.131 244.572ZM149.424 191.115C169.655 185.694 184.031 175.082 192.552 159.278C201.009 143.236 202.782 126.052 197.871 107.725C192.705 88.4458 182.784 74.2674 168.106 65.1899C153.429 56.1124 135.618 54.3798 114.673 59.9921L75.7573 70.4194L110.866 201.446L149.424 191.115Z" fill="#F0F4F4"/>
</svg>
