<svg width="345" height="388" viewBox="0 0 345 388" fill="none" xmlns="http://www.w3.org/2000/svg">
<mask id="mask0_732_12788" style="mask-type:alpha" maskUnits="userSpaceOnUse" x="0" y="0" width="345" height="388">
<rect width="345" height="388" rx="5" fill="#604545"/>
</mask>
<g mask="url(#mask0_732_12788)">
<path d="M301.568 228.632L250.692 242.256L191.15 133.043L194.226 257.376L143.351 271L40 98.9625L93.9504 84.5155L155.515 201.271L154.051 68.4217L190.949 58.5408L256.148 174.324L250.77 42.5219L305 28L301.568 228.632Z" fill="#F0F4F4"/>
<path d="M171.813 460.618L171.821 407.95L292.723 378.704L171.83 349.495L171.838 296.827L364.763 241.524L364.754 297.375L236.042 326.623L364.744 359.593L364.738 397.792L236.026 430.802L364.729 459.72L364.72 515.861L171.813 460.618Z" fill="#F0F4F4"/>
<path d="M-88.5679 254.368L-37.6924 240.744L21.8496 349.957L18.7739 225.624L69.6494 212L173 384.038L119.05 398.485L57.4853 281.729L58.9494 414.578L22.0506 424.459L-43.1476 308.676L-37.77 440.478L-92 455L-88.5679 254.368Z" fill="#F0F4F4"/>
</g>
</svg>
