<svg width="177" height="146" viewBox="0 0 177 146" fill="none" xmlns="http://www.w3.org/2000/svg">
<path d="M148.349 134.641C147.065 133.779 145.631 133.154 144.274 132.398C143.373 131.955 142.512 131.431 141.702 130.834C140.41 129.76 140.669 127.644 142.034 126.721C143.97 125.41 147.19 126.153 147.522 128.82C147.524 128.848 147.537 128.874 147.557 128.893C147.577 128.912 147.604 128.922 147.632 128.922H150.556C150.572 128.923 150.589 128.919 150.604 128.912C150.619 128.906 150.632 128.896 150.644 128.884C150.655 128.871 150.663 128.857 150.668 128.841C150.673 128.825 150.675 128.808 150.673 128.792C150.515 126.95 149.823 125.418 148.535 124.438C147.343 123.512 145.883 123.007 144.379 123C136.631 123 135.927 131.271 140.094 133.881C140.58 134.183 144.667 136.254 146.113 137.148C147.559 138.043 148.012 139.701 147.385 141.012C146.814 142.213 145.331 143.018 143.849 142.94C142.229 142.854 140.973 141.964 140.532 140.579C140.46 140.273 140.422 139.959 140.418 139.644C140.416 139.614 140.403 139.586 140.381 139.566C140.359 139.545 140.331 139.534 140.301 139.534H137.117C137.086 139.535 137.056 139.548 137.034 139.571C137.012 139.594 137 139.624 137 139.656C137 141.976 137.575 143.259 139.122 144.431C140.478 145.469 142.139 146.02 143.841 145.999C148.17 145.999 150.43 143.524 150.876 140.959C151.321 138.394 150.588 136.136 148.349 134.641Z" fill="white"/>
<path d="M13.0606 124H10.2315C10.2077 123.999 10.1844 124.006 10.1652 124.02C10.1461 124.034 10.1323 124.054 10.1262 124.077L7.60536 132.211C7.59902 132.233 7.58528 132.253 7.56625 132.268C7.54721 132.282 7.52393 132.29 7.5 132.29C7.47607 132.29 7.45279 132.282 7.43376 132.268C7.41472 132.253 7.40098 132.233 7.39465 132.211L4.87773 124.077C4.87024 124.054 4.85559 124.035 4.83593 124.021C4.81627 124.007 4.79263 124 4.76847 124H0.113167C0.0838179 124 0.0556125 124.011 0.034499 124.031C0.0133854 124.051 0.00101202 124.079 0 124.107V144.889C0 144.918 0.0119251 144.947 0.0331474 144.967C0.0543696 144.988 0.0831539 145 0.113167 145H3.18028C3.19497 145 3.2095 144.997 3.22302 144.991C3.23654 144.986 3.24876 144.978 3.25896 144.967C3.26916 144.957 3.27712 144.945 3.28238 144.931C3.28763 144.918 3.29007 144.903 3.28955 144.889V129.1C3.29162 129.075 3.30232 129.052 3.31991 129.033C3.3375 129.015 3.36092 129.003 3.38634 128.999C3.41175 128.996 3.43764 129.001 3.45976 129.014C3.48188 129.026 3.49891 129.046 3.50807 129.07L6.04449 137.257L6.22008 137.829C6.22758 137.851 6.24223 137.871 6.26189 137.885C6.28155 137.899 6.30519 137.906 6.32934 137.905H8.67066C8.69481 137.906 8.71845 137.899 8.73811 137.885C8.75777 137.871 8.77242 137.851 8.77992 137.829L8.95552 137.257L11.4919 129.07C11.5011 129.046 11.5181 129.026 11.5402 129.014C11.5624 129.001 11.5883 128.996 11.6137 128.999C11.6391 129.003 11.6625 129.015 11.6801 129.033C11.6977 129.052 11.7084 129.075 11.7105 129.1V144.889C11.7099 144.903 11.7124 144.918 11.7176 144.931C11.7229 144.945 11.7308 144.957 11.741 144.967C11.7512 144.978 11.7635 144.986 11.777 144.991C11.7905 144.997 11.805 145 11.8197 145H14.8868C14.9169 145 14.9456 144.988 14.9669 144.967C14.9881 144.947 15 144.918 15 144.889V124.107C14.999 124.079 14.9866 124.051 14.9655 124.031C14.9444 124.011 14.9162 124 14.8868 124H13.0606Z" fill="white"/>
<path d="M100.915 124C100.89 124 100.866 124.008 100.846 124.022C100.825 124.036 100.81 124.055 100.803 124.077L98.1166 132.211C98.1086 132.233 98.0932 132.252 98.0726 132.266C98.0521 132.279 98.0274 132.286 98.0021 132.286C97.9768 132.286 97.9521 132.279 97.9315 132.266C97.911 132.252 97.8956 132.233 97.8876 132.211L95.2015 124.077C95.1942 124.054 95.1794 124.035 95.1591 124.021C95.1388 124.007 95.1142 124 95.089 124H90.1208C90.0895 124 90.0593 124.011 90.0368 124.031C90.0143 124.051 90.0011 124.079 90 124.107V144.889C90 144.918 90.0127 144.947 90.0354 144.967C90.058 144.988 90.0887 145 90.1208 145H93.3941C93.4254 144.999 93.455 144.987 93.4768 144.966C93.4985 144.945 93.5107 144.918 93.5107 144.889V129.1C93.5129 129.075 93.5243 129.052 93.5431 129.033C93.5618 129.015 93.5868 129.003 93.614 128.999C93.6411 128.996 93.6687 129.001 93.6923 129.014C93.7159 129.026 93.7341 129.046 93.7439 129.07L96.4508 137.257L96.6382 137.829C96.646 137.851 96.661 137.87 96.6811 137.884C96.7013 137.897 96.7256 137.905 96.7507 137.905H99.2494C99.2747 137.906 99.2997 137.899 99.3201 137.885C99.3405 137.871 99.3552 137.851 99.3618 137.829L99.5534 137.257L102.256 129.07C102.266 129.046 102.284 129.026 102.308 129.014C102.331 129.001 102.359 128.996 102.386 128.999C102.413 129.003 102.438 129.015 102.457 129.033C102.476 129.052 102.487 129.075 102.489 129.1V144.889C102.489 144.918 102.502 144.947 102.525 144.967C102.547 144.988 102.578 145 102.61 145H105.883C105.915 144.999 105.944 144.987 105.966 144.966C105.988 144.945 106 144.918 106 144.889V124.107C105.999 124.079 105.986 124.052 105.965 124.033C105.943 124.013 105.914 124.001 105.883 124H100.915Z" fill="white"/>
<path d="M60.8842 124H46.1158C46.0857 124 46.0569 124.011 46.0353 124.031C46.0137 124.051 46.001 124.079 46 124.107V126.707C46.001 126.736 46.0137 126.764 46.0353 126.784C46.0569 126.804 46.0857 126.815 46.1158 126.815H51.8355V144.889C51.8355 144.903 51.8385 144.918 51.8444 144.931C51.8502 144.945 51.8587 144.957 51.8695 144.967C51.8802 144.978 51.893 144.986 51.907 144.992C51.9211 144.997 51.9361 145 51.9513 145H55.0886C55.1186 144.999 55.147 144.987 55.1679 144.966C55.1887 144.945 55.2004 144.918 55.2004 144.889V126.815H60.8842C60.9143 126.815 60.9431 126.804 60.9647 126.784C60.9863 126.764 60.999 126.736 61 126.707V124.107C60.999 124.079 60.9863 124.051 60.9647 124.031C60.9431 124.011 60.9143 124 60.8842 124Z" fill="white"/>
<path d="M79.0527 145H81.8881C81.9055 145 81.9227 144.996 81.9382 144.989C81.9538 144.981 81.9673 144.97 81.9778 144.957C81.9882 144.944 81.9952 144.928 81.9983 144.912C82.0013 144.895 82.0003 144.878 81.9954 144.862L76.1577 124.08C76.1508 124.057 76.1362 124.037 76.1161 124.022C76.0961 124.008 76.0716 124 76.0465 124H71.9721C71.947 124 71.9226 124.008 71.9025 124.022C71.8824 124.037 71.8678 124.057 71.8609 124.08L66.0034 144.862C65.9992 144.879 65.9989 144.896 66.0025 144.912C66.0061 144.928 66.0136 144.944 66.0243 144.957C66.035 144.97 66.0487 144.981 66.0643 144.988C66.08 144.996 66.0972 145 66.1146 145H68.95C68.975 144.999 68.9989 144.99 69.0182 144.975C69.0375 144.96 69.0512 144.939 69.0572 144.916L70.7609 138.876C70.767 138.854 70.7809 138.833 70.8003 138.819C70.8197 138.804 70.8435 138.796 70.8681 138.796H77.1346C77.159 138.797 77.1826 138.805 77.2019 138.82C77.2211 138.834 77.2351 138.854 77.2419 138.876L78.9376 144.912C78.9423 144.938 78.9567 144.961 78.9779 144.977C78.9991 144.993 79.0257 145.001 79.0527 145ZM71.6107 135.853L73.8902 127.761C73.8978 127.739 73.9125 127.72 73.9321 127.706C73.9517 127.693 73.9752 127.686 73.9994 127.686C74.0235 127.686 74.0471 127.693 74.0667 127.706C74.0863 127.72 74.1009 127.739 74.1086 127.761L76.388 135.853C76.393 135.869 76.394 135.886 76.391 135.902C76.3879 135.919 76.3809 135.934 76.3705 135.948C76.36 135.961 76.3465 135.972 76.3309 135.979C76.3154 135.987 76.2982 135.991 76.2808 135.991H71.7219C71.7045 135.991 71.6873 135.987 71.6716 135.979C71.656 135.972 71.6423 135.961 71.6316 135.948C71.6209 135.935 71.6134 135.919 71.6098 135.903C71.6062 135.886 71.6065 135.869 71.6107 135.853Z" fill="white"/>
<path d="M127.054 145H129.885C129.903 145 129.92 144.996 129.936 144.989C129.951 144.981 129.965 144.97 129.976 144.957C129.986 144.944 129.994 144.929 129.998 144.912C130.001 144.896 130.001 144.879 129.997 144.862L124.139 124.08C124.132 124.057 124.118 124.036 124.098 124.021C124.077 124.007 124.053 123.999 124.027 124H119.969C119.944 124 119.919 124.008 119.899 124.022C119.879 124.037 119.864 124.057 119.857 124.08L114.003 144.862C113.999 144.878 113.999 144.895 114.002 144.911C114.006 144.927 114.013 144.943 114.023 144.956C114.033 144.969 114.046 144.98 114.062 144.987C114.077 144.995 114.094 144.999 114.111 145H116.946C116.971 145 116.996 144.991 117.015 144.976C117.035 144.961 117.048 144.94 117.054 144.916L118.757 138.877C118.764 138.853 118.779 138.833 118.799 138.818C118.819 138.804 118.843 138.796 118.869 138.796H125.132C125.156 138.796 125.18 138.804 125.199 138.819C125.219 138.833 125.233 138.854 125.239 138.877L126.943 144.916C126.949 144.94 126.963 144.961 126.983 144.976C127.003 144.992 127.028 145 127.054 145ZM119.611 135.853L121.891 127.761C121.898 127.739 121.913 127.72 121.933 127.706C121.952 127.693 121.976 127.686 122 127.686C122.024 127.686 122.048 127.693 122.067 127.706C122.087 127.72 122.102 127.739 122.109 127.761L124.389 135.853C124.393 135.869 124.393 135.886 124.39 135.903C124.386 135.919 124.379 135.935 124.368 135.948C124.357 135.961 124.344 135.972 124.328 135.979C124.312 135.987 124.295 135.991 124.278 135.991H119.718C119.701 135.991 119.684 135.987 119.668 135.98C119.653 135.972 119.639 135.961 119.629 135.948C119.618 135.935 119.611 135.919 119.608 135.903C119.605 135.886 119.606 135.869 119.611 135.853Z" fill="white"/>
<path d="M28.2443 141.928V135.478C28.2437 135.464 28.2462 135.449 28.2514 135.436C28.2566 135.423 28.2645 135.411 28.2746 135.401C28.2848 135.391 28.2969 135.383 28.3102 135.378C28.3235 135.372 28.3377 135.37 28.352 135.371H36.3875C36.4164 135.37 36.4439 135.357 36.464 135.337C36.4841 135.316 36.4953 135.288 36.4953 135.259V132.663C36.4953 132.634 36.4841 132.607 36.464 132.586C36.4439 132.565 36.4164 132.553 36.3875 132.552H28.352C28.3235 132.552 28.296 132.541 28.2758 132.52C28.2556 132.5 28.2443 132.473 28.2443 132.444V126.926C28.2438 126.912 28.2462 126.897 28.2514 126.884C28.2565 126.87 28.2644 126.858 28.2744 126.848C28.2845 126.837 28.2966 126.829 28.3099 126.823C28.3232 126.818 28.3376 126.815 28.352 126.815H37.4959C37.5248 126.815 37.5526 126.804 37.5734 126.784C37.5943 126.764 37.6065 126.736 37.6075 126.707V124.107C37.6065 124.079 37.5943 124.051 37.5734 124.031C37.5526 124.011 37.5248 124 37.4959 124H25.1078C25.0792 124 25.0518 124.011 25.0316 124.031C25.0114 124.052 25.0001 124.079 25.0001 124.107V144.889C24.9996 144.903 25.002 144.918 25.0071 144.931C25.0123 144.945 25.0202 144.957 25.0302 144.967C25.0403 144.978 25.0523 144.986 25.0657 144.991C25.079 144.997 25.0933 145 25.1078 145H37.8884C37.918 145 37.9464 144.988 37.9673 144.967C37.9882 144.947 38 144.918 38 144.889V142.147C38 142.117 37.9882 142.089 37.9673 142.068C37.9464 142.047 37.918 142.036 37.8884 142.036H28.352C28.3377 142.036 28.3235 142.034 28.3102 142.029C28.2969 142.023 28.2848 142.015 28.2746 142.005C28.2645 141.995 28.2566 141.983 28.2514 141.97C28.2462 141.957 28.2437 141.942 28.2443 141.928Z" fill="white"/>
<path d="M176.968 144.812L166.203 134.055C166.193 134.045 166.184 134.033 166.179 134.02C166.173 134.007 166.17 133.993 166.17 133.978C166.17 133.964 166.173 133.95 166.179 133.937C166.184 133.924 166.193 133.912 166.203 133.902L175.885 124.203C175.901 124.188 175.912 124.169 175.916 124.148C175.921 124.127 175.919 124.105 175.91 124.085C175.901 124.065 175.887 124.049 175.868 124.037C175.85 124.025 175.828 124.019 175.806 124.019H171.844C171.828 124.019 171.813 124.022 171.798 124.028C171.784 124.034 171.771 124.043 171.76 124.054L163.542 132.303C163.526 132.319 163.506 132.33 163.483 132.335C163.461 132.339 163.437 132.337 163.416 132.329C163.395 132.321 163.376 132.307 163.363 132.288C163.351 132.27 163.344 132.248 163.344 132.226V124.107C163.344 124.079 163.332 124.052 163.311 124.031C163.29 124.011 163.262 124 163.233 124H160.115C160.085 124 160.057 124.011 160.035 124.031C160.014 124.051 160.001 124.079 160 124.107V144.889C160 144.918 160.012 144.947 160.034 144.967C160.055 144.988 160.085 145 160.115 145H163.233C163.247 145 163.262 144.997 163.276 144.991C163.29 144.986 163.302 144.978 163.313 144.967C163.323 144.957 163.331 144.945 163.336 144.931C163.342 144.918 163.344 144.903 163.344 144.889V135.743C163.344 135.721 163.352 135.7 163.364 135.683C163.377 135.665 163.395 135.651 163.415 135.643C163.436 135.635 163.458 135.633 163.48 135.637C163.502 135.641 163.522 135.651 163.538 135.666L172.847 144.965C172.868 144.987 172.896 144.999 172.926 145H176.893C176.914 144.999 176.935 144.991 176.953 144.979C176.971 144.966 176.984 144.949 176.992 144.929C177 144.91 177.002 144.888 176.998 144.867C176.993 144.846 176.983 144.827 176.968 144.812Z" fill="white"/>
<path d="M135 1L95 30L102.429 12.8907L135 1Z" fill="#E17726" stroke="#E17726" stroke-width="0.712817" stroke-linecap="round" stroke-linejoin="round"/>
<path d="M42 1L82 31L74.8703 13.1854L42 1Z" fill="#E27625" stroke="#E27625" stroke-width="0.712817" stroke-linecap="round" stroke-linejoin="round"/>
<path d="M120.54 70L110 85.8955L132.554 92L139 70.3509L120.54 70Z" fill="#E27625" stroke="#E27625" stroke-width="0.712817" stroke-linecap="round" stroke-linejoin="round"/>
<path d="M38 70.3509L44.4152 92L67 85.8955L56.4845 70L38 70.3509Z" fill="#E27625" stroke="#E27625" stroke-width="0.712817" stroke-linecap="round" stroke-linejoin="round"/>
<path d="M66.1844 42.0892L60 51.9663L82 53L81.2559 28L66.1844 42.0892Z" fill="#E27625" stroke="#E27625" stroke-width="0.712817" stroke-linecap="round" stroke-linejoin="round"/>
<path d="M110.816 42.2139L95.5089 28L95 53L117 51.9781L110.816 42.2139Z" fill="#E27625" stroke="#E27625" stroke-width="0.712817" stroke-linecap="round" stroke-linejoin="round"/>
<path d="M67 86L81 79.2792L68.9402 70L67 86Z" fill="#E27625" stroke="#E27625" stroke-width="0.712817" stroke-linecap="round" stroke-linejoin="round"/>
<path d="M96 79.2792L110 86L108.06 70L96 79.2792Z" fill="#E27625" stroke="#E27625" stroke-width="0.712817" stroke-linecap="round" stroke-linejoin="round"/>
<path d="M110 85.8344L96 79L97.1145 88.1506L96.9924 92L110 85.8344Z" fill="#D5BFB2" stroke="#D5BFB2" stroke-width="0.712817" stroke-linecap="round" stroke-linejoin="round"/>
<path d="M67 85.8344L80.0076 92L79.9262 88.1506L81 79L67 85.8344Z" fill="#D5BFB2" stroke="#D5BFB2" stroke-width="0.712817" stroke-linecap="round" stroke-linejoin="round"/>
<path d="M80 64L69 60.6625L76.7611 57L80 64Z" fill="#233447" stroke="#233447" stroke-width="0.712817" stroke-linecap="round" stroke-linejoin="round"/>
<path d="M97 64L100.228 57L108 60.6625L97 64Z" fill="#233447" stroke="#233447" stroke-width="0.712817" stroke-linecap="round" stroke-linejoin="round"/>
<path d="M67.1228 86L69 70L57 70.3532L67.1228 86Z" fill="#CC6228" stroke="#CC6228" stroke-width="0.712817" stroke-linecap="round" stroke-linejoin="round"/>
<path d="M108 70L109.871 86L120 70.3532L108 70Z" fill="#CC6228" stroke="#CC6228" stroke-width="0.712817" stroke-linecap="round" stroke-linejoin="round"/>
<path d="M117 52L95 52.9564L97.0358 64L100.286 57.3505L108.113 60.8296L117 52Z" fill="#CC6228" stroke="#CC6228" stroke-width="0.712817" stroke-linecap="round" stroke-linejoin="round"/>
<path d="M68.9257 60.8296L76.714 57.3505L79.9643 64L82 52.9564L60 52L68.9257 60.8296Z" fill="#CC6228" stroke="#CC6228" stroke-width="0.712817" stroke-linecap="round" stroke-linejoin="round"/>
<path d="M60 52L69 70L68.6957 61.0385L60 52Z" fill="#E27525" stroke="#E27525" stroke-width="0.712817" stroke-linecap="round" stroke-linejoin="round"/>
<path d="M108.342 61.0385L108 70L117 52L108.342 61.0385Z" fill="#E27525" stroke="#E27525" stroke-width="0.712817" stroke-linecap="round" stroke-linejoin="round"/>
<path d="M81.9507 53L80 64.466L82.4754 78L83 60.1814L81.9507 53Z" fill="#E27525" stroke="#E27525" stroke-width="0.712817" stroke-linecap="round" stroke-linejoin="round"/>
<path d="M95.0249 53L94 60.1423L94.4938 78L97 64.466L95.0249 53Z" fill="#E27525" stroke="#E27525" stroke-width="0.712817" stroke-linecap="round" stroke-linejoin="round"/>
<path d="M96.6475 64.2671L94 77.7001L95.9244 79L107.64 70.0213L108 61L96.6475 64.2671Z" fill="#F5841F" stroke="#F5841F" stroke-width="0.712817" stroke-linecap="round" stroke-linejoin="round"/>
<path d="M69 61L69.321 70.0213L81.0702 79L83 77.7001L80.345 64.2671L69 61Z" fill="#F5841F" stroke="#F5841F" stroke-width="0.712817" stroke-linecap="round" stroke-linejoin="round"/>
<path d="M97.1121 92.0796L97.233 88.2839L96.2134 87.3872H80.7866L79.8073 88.2839L79.8879 92.0796L67 86L71.5015 89.6711L80.6657 96H96.3343L105.498 89.6711L110 86L97.1121 92.0796Z" fill="#C0AC9D" stroke="#C0AC9D" stroke-width="0.712817" stroke-linecap="round" stroke-linejoin="round"/>
<path d="M95.9227 79.299L94.0081 78H82.9526L81.0379 79.299L80 88L80.9554 87.1353H96.0053L97 88L95.9227 79.299Z" fill="#161616" stroke="#161616" stroke-width="0.712817" stroke-linecap="round" stroke-linejoin="round"/>
<path d="M136.602 32.3464L140 16.0965L134.905 1L96 29.4393L110.965 41.9033L132.113 48L136.766 42.6213L134.742 41.1893L137.976 38.2783L135.511 36.3677L138.745 33.9392L136.602 32.3464Z" fill="#763E1A" stroke="#763E1A" stroke-width="0.712817" stroke-linecap="round" stroke-linejoin="round"/>
<path d="M37 16.0965L40.4376 32.3464L38.2548 33.9392L41.4892 36.3677L39.0235 38.2783L42.258 41.1893L40.2345 42.6213L44.887 48L66.0346 41.9033L81 29.4393L42.0947 1L37 16.0965Z" fill="#763E1A" stroke="#763E1A" stroke-width="0.712817" stroke-linecap="round" stroke-linejoin="round"/>
<path d="M132.007 48.131L111.117 42L117.428 51.5753L108 70L120.462 69.8382H139L132.007 48.131Z" fill="#F5841F" stroke="#F5841F" stroke-width="0.712817" stroke-linecap="round" stroke-linejoin="round"/>
<path d="M65.8795 42L44.962 48.131L38 69.8382H56.5614L69 70L59.5597 51.5753L65.8795 42Z" fill="#F5841F" stroke="#F5841F" stroke-width="0.712817" stroke-linecap="round" stroke-linejoin="round"/>
<path d="M94.5998 52.6941L95.9593 29.5131L102 13H75L81.0407 29.5131L82.4002 52.6941L82.9203 60.0029L82.9597 78H94.0403L94.0797 60.0029L94.5998 52.6941Z" fill="#F5841F" stroke="#F5841F" stroke-width="0.712817" stroke-linecap="round" stroke-linejoin="round"/>
</svg>
