<svg width="223" height="36" viewBox="0 0 223 36" fill="none" xmlns="http://www.w3.org/2000/svg">
<path d="M59 11.1074V24.8937H74.5315V22.1345H61.5901V11.1074H59Z" fill="white"/>
<path d="M89.3838 19.3753C89.3838 20.1343 89.1332 20.7839 88.6321 21.3241C88.125 21.8644 87.5152 22.1345 86.8028 22.1345H79.0325V11.1074H76.4424V24.8937H86.8028C88.2276 24.8937 89.4472 24.3534 90.4615 23.2729C91.4697 22.1988 91.9739 20.8996 91.9739 19.3753V11.1074H89.3838V19.3753Z" fill="white"/>
<path d="M93.8848 11.1074V24.8937H109.416V20.7549H106.826V22.1345H96.4748V13.857H106.826V15.2366H109.416V11.1074H93.8848Z" fill="white"/>
<path d="M122.195 11.1074L113.917 17.2336V11.1074H111.327V24.8937H113.917V20.5909L117.494 17.9475L123.254 24.8937H126.705L119.632 16.3557L126.723 11.1074H122.195Z" fill="white"/>
<path d="M140.878 11.1074L136.395 17.3108H136.377L131.894 11.1074H128.625L135.091 20.0507V24.8937H137.681V20.0507L144.138 11.1074H140.878Z" fill="white"/>
<path d="M150.649 11.1074V24.8937H166.181V20.7549H163.591V22.1345H153.24V13.857H163.591V15.2366H166.181V11.1074H150.649Z" fill="white"/>
<path d="M181.033 11.1074V16.6161H170.682V11.1074H168.092V24.8937H170.682V19.3753H181.033V24.8937H183.623V11.1074H181.033Z" fill="white"/>
<path d="M188.124 17.9957V13.857H195.895C196.607 13.857 197.217 14.1271 197.724 14.6674C198.225 15.2076 198.476 15.8572 198.476 16.6161V17.9957H188.124ZM185.534 11.1074V24.8937H188.124V20.7549H198.476V24.8937H201.066V16.6161C201.066 15.0983 200.562 13.7991 199.553 12.7186C198.539 11.6445 197.319 11.1074 195.895 11.1074H185.534Z" fill="white"/>
<path d="M202.977 24.8937H205.567V11.1074H202.977V24.8937Z" fill="white"/>
<path d="M220.41 11.1074V21.5653L210.593 11.1074H207.469V24.8937H210.059V14.4358L219.876 24.8937H223V11.1074H220.41Z" fill="white"/>
<path fill-rule="evenodd" clip-rule="evenodd" d="M17.7422 3.76424C16.8486 2.67521 15.1799 2.6639 14.2714 3.74072L3.48206 16.5295C2.77929 17.3624 2.77857 18.5772 3.48036 19.4111L14.2917 32.2565C15.1959 33.3308 16.8576 33.3258 17.7552 32.246L28.4347 19.3983C29.1243 18.5688 29.1241 17.3687 28.4344 16.5393L25.3142 12.7877C24.794 12.1622 24.8818 11.2355 25.5103 10.7178C26.1388 10.2001 27.07 10.2875 27.5902 10.913L30.7104 14.6646C32.3046 16.5814 32.305 19.3552 30.7113 21.2724L20.0317 34.1201C17.9572 36.6157 14.1165 36.6274 12.0267 34.1445L1.21538 21.299C-0.40661 19.3718 -0.404954 16.5641 1.21932 14.6389L12.0087 1.85014C14.1084 -0.63868 17.9652 -0.612542 20.0306 1.9045L22.1649 4.50543C22.681 5.1343 22.587 6.06042 21.9551 6.57397C21.3232 7.08753 20.3925 6.99404 19.8765 6.36517L17.7422 3.76424Z" fill="white"/>
<path fill-rule="evenodd" clip-rule="evenodd" d="M29.7399 32.2358C30.6356 33.3248 32.3082 33.3361 33.2188 32.2593L44.0333 19.4705C44.7377 18.6376 44.7384 17.4228 44.035 16.5889L33.1984 3.74346C32.2922 2.66917 30.6265 2.67423 29.7269 3.75399L19.0224 16.6017C18.3313 17.4312 18.3314 18.6313 19.0228 19.4607L22.1502 23.2123C22.6717 23.8378 22.5836 24.7645 21.9537 25.2822C21.3237 25.7999 20.3903 25.7125 19.8689 25.087L16.7414 21.3354C15.1435 19.4186 15.1432 16.6448 16.7406 14.7276L27.4451 1.87987C29.5244 -0.615743 33.3741 -0.627427 35.4687 1.85552L46.3052 14.701C47.931 16.6282 47.9293 19.4359 46.3013 21.3611L35.4868 34.1499C33.3822 36.6387 29.5164 36.6125 27.4461 34.0955L25.3069 31.4946C24.7896 30.8657 24.8838 29.9396 25.5172 29.426C26.1506 28.9125 27.0834 29.006 27.6006 29.6348L29.7399 32.2358Z" fill="#FFAD08"/>
<path fill-rule="evenodd" clip-rule="evenodd" d="M29.7399 32.2358C30.6356 33.3248 32.3082 33.3361 33.2188 32.2593L44.0333 19.4705C44.7377 18.6376 44.7384 17.4228 44.035 16.5889L33.1984 3.74346C32.2922 2.66917 30.6265 2.67423 29.7269 3.75399L19.0224 16.6017C18.3313 17.4312 18.3314 18.6313 19.0228 19.4607L22.1502 23.2123C22.6717 23.8378 22.5836 24.7645 21.9537 25.2822C21.3237 25.7999 20.3903 25.7125 19.8689 25.087L16.7414 21.3354C15.1435 19.4186 15.1432 16.6448 16.7406 14.7276L27.4451 1.87987C29.5244 -0.615743 33.3741 -0.627427 35.4687 1.85552L46.3052 14.701C47.931 16.6282 47.9293 19.4359 46.3013 21.3611L35.4868 34.1499C33.3822 36.6387 29.5164 36.6125 27.4461 34.0955L25.3069 31.4946C24.7896 30.8657 24.8838 29.9396 25.5172 29.426C26.1506 28.9125 27.0834 29.006 27.6006 29.6348L29.7399 32.2358Z" fill="url(#paint0_linear_410_12808)" fill-opacity="0.38"/>
<defs>
<linearGradient id="paint0_linear_410_12808" x1="15.5428" y1="0.000709534" x2="51.2913" y2="31.7586" gradientUnits="userSpaceOnUse">
<stop stop-color="white" stop-opacity="0"/>
<stop offset="1" stop-color="white"/>
</linearGradient>
</defs>
</svg>
