<svg width="16" height="17" viewBox="0 0 16 17" fill="none" xmlns="http://www.w3.org/2000/svg">
<path d="M1.33301 6.83333V3.16667C1.33301 2.98986 1.40325 2.82029 1.52827 2.69526C1.65329 2.57024 1.82286 2.5 1.99967 2.5H13.9997C14.1765 2.5 14.3461 2.57024 14.4711 2.69526C14.5961 2.82029 14.6663 2.98986 14.6663 3.16667V6.83333C14.2243 6.83333 13.8004 7.00893 13.4878 7.32149C13.1753 7.63405 12.9997 8.05797 12.9997 8.5C12.9997 8.94203 13.1753 9.36595 13.4878 9.67851C13.8004 9.99107 14.2243 10.1667 14.6663 10.1667V13.8333C14.6663 14.0101 14.5961 14.1797 14.4711 14.3047C14.3461 14.4298 14.1765 14.5 13.9997 14.5H1.99967C1.82286 14.5 1.65329 14.4298 1.52827 14.3047C1.40325 14.1797 1.33301 14.0101 1.33301 13.8333V10.1667C1.77504 10.1667 2.19896 9.99107 2.51152 9.67851C2.82408 9.36595 2.99967 8.94203 2.99967 8.5C2.99967 8.05797 2.82408 7.63405 2.51152 7.32149C2.19896 7.00893 1.77504 6.83333 1.33301 6.83333ZM9.33301 3.83333H2.66634V5.812C3.16715 6.0602 3.58866 6.44337 3.88334 6.91831C4.17803 7.39324 4.33418 7.94107 4.33418 8.5C4.33418 9.05894 4.17803 9.60676 3.88334 10.0817C3.58866 10.5566 3.16715 10.9398 2.66634 11.188V13.1667H9.33301V3.83333ZM10.6663 3.83333V13.1667H13.333V11.188C12.8322 10.9398 12.4107 10.5566 12.116 10.0817C11.8213 9.60676 11.6652 9.05894 11.6652 8.5C11.6652 7.94107 11.8213 7.39324 12.116 6.91831C12.4107 6.44337 12.8322 6.0602 13.333 5.812V3.83333H10.6663Z" fill="#FFAD08"/>
<path d="M1.33301 6.83333V3.16667C1.33301 2.98986 1.40325 2.82029 1.52827 2.69526C1.65329 2.57024 1.82286 2.5 1.99967 2.5H13.9997C14.1765 2.5 14.3461 2.57024 14.4711 2.69526C14.5961 2.82029 14.6663 2.98986 14.6663 3.16667V6.83333C14.2243 6.83333 13.8004 7.00893 13.4878 7.32149C13.1753 7.63405 12.9997 8.05797 12.9997 8.5C12.9997 8.94203 13.1753 9.36595 13.4878 9.67851C13.8004 9.99107 14.2243 10.1667 14.6663 10.1667V13.8333C14.6663 14.0101 14.5961 14.1797 14.4711 14.3047C14.3461 14.4298 14.1765 14.5 13.9997 14.5H1.99967C1.82286 14.5 1.65329 14.4298 1.52827 14.3047C1.40325 14.1797 1.33301 14.0101 1.33301 13.8333V10.1667C1.77504 10.1667 2.19896 9.99107 2.51152 9.67851C2.82408 9.36595 2.99967 8.94203 2.99967 8.5C2.99967 8.05797 2.82408 7.63405 2.51152 7.32149C2.19896 7.00893 1.77504 6.83333 1.33301 6.83333ZM9.33301 3.83333H2.66634V5.812C3.16715 6.0602 3.58866 6.44337 3.88334 6.91831C4.17803 7.39324 4.33418 7.94107 4.33418 8.5C4.33418 9.05894 4.17803 9.60676 3.88334 10.0817C3.58866 10.5566 3.16715 10.9398 2.66634 11.188V13.1667H9.33301V3.83333ZM10.6663 3.83333V13.1667H13.333V11.188C12.8322 10.9398 12.4107 10.5566 12.116 10.0817C11.8213 9.60676 11.6652 9.05894 11.6652 8.5C11.6652 7.94107 11.8213 7.39324 12.116 6.91831C12.4107 6.44337 12.8322 6.0602 13.333 5.812V3.83333H10.6663Z" fill="url(#paint0_linear_615_3421)" fill-opacity="0.38"/>
<defs>
<linearGradient id="paint0_linear_615_3421" x1="14.6663" y1="14.5" x2="2.73264" y2="1.24033" gradientUnits="userSpaceOnUse">
<stop stop-color="white" stop-opacity="0"/>
<stop offset="1" stop-color="white"/>
</linearGradient>
</defs>
</svg>
