<svg width="16" height="16" viewBox="0 0 16 16" fill="none" xmlns="http://www.w3.org/2000/svg">
<path d="M8.00016 1.33398C11.6822 1.33398 14.6668 4.31865 14.6668 8.00065C14.6668 11.6827 11.6822 14.6673 8.00016 14.6673C4.31816 14.6673 1.3335 11.6827 1.3335 8.00065C1.3335 4.31865 4.31816 1.33398 8.00016 1.33398ZM8.00016 2.66732C6.58567 2.66732 5.22912 3.22922 4.22893 4.22942C3.22873 5.22961 2.66683 6.58616 2.66683 8.00065C2.66683 9.41514 3.22873 10.7717 4.22893 11.7719C5.22912 12.7721 6.58567 13.334 8.00016 13.334C9.41465 13.334 10.7712 12.7721 11.7714 11.7719C12.7716 10.7717 13.3335 9.41514 13.3335 8.00065C13.3335 6.58616 12.7716 5.22961 11.7714 4.22942C10.7712 3.22922 9.41465 2.66732 8.00016 2.66732V2.66732ZM8.00016 4.00065C9.06103 4.00065 10.0784 4.42208 10.8286 5.17222C11.5787 5.92237 12.0002 6.93979 12.0002 8.00065C12.0002 9.06152 11.5787 10.0789 10.8286 10.8291C10.0784 11.5792 9.06103 12.0007 8.00016 12.0007C6.9393 12.0007 5.92188 11.5792 5.17174 10.8291C4.42159 10.0789 4.00016 9.06152 4.00016 8.00065C4.00016 6.93979 4.42159 5.92237 5.17174 5.17222C5.92188 4.42208 6.9393 4.00065 8.00016 4.00065V4.00065ZM8.00016 5.16732C7.67996 5.16742 7.36656 5.25976 7.09746 5.43329C6.82836 5.60682 6.61494 5.8542 6.48273 6.14583C6.35052 6.43746 6.30512 6.76101 6.35195 7.07777C6.39879 7.39453 6.53588 7.69109 6.74683 7.93198C6.37016 8.23665 6.1335 8.67732 6.1335 9.16732C6.1335 10.0873 6.9695 10.834 8.00016 10.834C9.03083 10.834 9.86683 10.0873 9.86683 9.16732C9.86683 8.67732 9.63016 8.23665 9.2535 7.93265C9.46466 7.69177 9.60193 7.39515 9.64888 7.07828C9.69584 6.76141 9.65048 6.43773 9.51825 6.14597C9.38601 5.85421 9.1725 5.60674 8.90327 5.43317C8.63404 5.25961 8.32049 5.16731 8.00016 5.16732V5.16732ZM8.00016 8.50065C8.50216 8.50065 8.86683 8.82598 8.86683 9.16732C8.86683 9.50865 8.50216 9.83398 8.00016 9.83398C7.49816 9.83398 7.1335 9.50865 7.1335 9.16732C7.1335 8.82598 7.49816 8.50065 8.00016 8.50065ZM8.00016 6.16732C8.17697 6.16732 8.34654 6.23756 8.47157 6.36258C8.59659 6.4876 8.66683 6.65717 8.66683 6.83398C8.66683 7.0108 8.59659 7.18036 8.47157 7.30539C8.34654 7.43041 8.17697 7.50065 8.00016 7.50065C7.82335 7.50065 7.65378 7.43041 7.52876 7.30539C7.40373 7.18036 7.3335 7.0108 7.3335 6.83398C7.3335 6.65717 7.40373 6.4876 7.52876 6.36258C7.65378 6.23756 7.82335 6.16732 8.00016 6.16732V6.16732Z" fill="#333333"/>
</svg>
