<svg width="40" height="40" viewBox="0 0 40 40" fill="none" xmlns="http://www.w3.org/2000/svg">
<path d="M19.9997 36.6654C29.2044 36.6654 36.6663 29.2034 36.6663 19.9987C36.6663 10.794 29.2044 3.33203 19.9997 3.33203C10.7949 3.33203 3.33301 10.794 3.33301 19.9987C3.33301 29.2034 10.7949 36.6654 19.9997 36.6654Z" stroke="#EF233C" stroke-width="3.33333" stroke-linecap="round" stroke-linejoin="round"/>
<path d="M19.9997 36.6654C29.2044 36.6654 36.6663 29.2034 36.6663 19.9987C36.6663 10.794 29.2044 3.33203 19.9997 3.33203C10.7949 3.33203 3.33301 10.794 3.33301 19.9987C3.33301 29.2034 10.7949 36.6654 19.9997 36.6654Z" stroke="url(#paint0_linear_355_50359)" stroke-opacity="0.29" stroke-width="3.33333" stroke-linecap="round" stroke-linejoin="round"/>
<path d="M20 26.6667V20" stroke="#EF233C" stroke-width="3.33333" stroke-linecap="round" stroke-linejoin="round"/>
<path d="M20 26.6667V20" stroke="url(#paint1_linear_355_50359)" stroke-opacity="0.29" stroke-width="3.33333" stroke-linecap="round" stroke-linejoin="round"/>
<path d="M20 13.332H20.0167" stroke="#EF233C" stroke-width="3.33333" stroke-linecap="round" stroke-linejoin="round"/>
<path d="M20 13.332H20.0167" stroke="url(#paint2_linear_355_50359)" stroke-opacity="0.29" stroke-width="3.33333" stroke-linecap="round" stroke-linejoin="round"/>
<defs>
<linearGradient id="paint0_linear_355_50359" x1="10.2748" y1="2.93923" x2="22.4275" y2="38.5464" gradientUnits="userSpaceOnUse">
<stop stop-color="white"/>
<stop offset="1" stop-color="white" stop-opacity="0"/>
</linearGradient>
<linearGradient id="paint1_linear_355_50359" x1="20.2083" y1="19.9214" x2="23.137" y2="21.2086" gradientUnits="userSpaceOnUse">
<stop stop-color="white"/>
<stop offset="1" stop-color="white" stop-opacity="0"/>
</linearGradient>
<linearGradient id="paint2_linear_355_50359" x1="20.0035" y1="13.3202" x2="20.0616" y2="13.3231" gradientUnits="userSpaceOnUse">
<stop stop-color="white"/>
<stop offset="1" stop-color="white" stop-opacity="0"/>
</linearGradient>
</defs>
</svg>
