<svg width="19" height="19" viewBox="0 0 19 19" fill="none" xmlns="http://www.w3.org/2000/svg">
<path d="M17.4168 15.8333C17.4168 16.0433 17.3334 16.2447 17.185 16.3931C17.0365 16.5416 16.8351 16.625 16.6252 16.625H2.37516C2.1652 16.625 1.96384 16.5416 1.81537 16.3931C1.6669 16.2447 1.5835 16.0433 1.5835 15.8333V3.16667C1.5835 2.9567 1.6669 2.75534 1.81537 2.60687C1.96384 2.45841 2.1652 2.375 2.37516 2.375H16.6252C16.8351 2.375 17.0365 2.45841 17.185 2.60687C17.3334 2.75534 17.4168 2.9567 17.4168 3.16667V15.8333ZM8.7085 11.875H3.16683V15.0417H8.7085V11.875ZM15.8335 8.70833H10.2918V15.0417H15.8335V8.70833ZM8.7085 3.95833H3.16683V10.2917H8.7085V3.95833ZM15.8335 3.95833H10.2918V7.125H15.8335V3.95833Z" fill="white"/>
</svg>
