<svg width="16" height="16" viewBox="0 0 16 16" fill="none" xmlns="http://www.w3.org/2000/svg">
<path d="M1.33301 6.33333V2.66667C1.33301 2.48986 1.40325 2.32029 1.52827 2.19526C1.65329 2.07024 1.82286 2 1.99967 2H13.9997C14.1765 2 14.3461 2.07024 14.4711 2.19526C14.5961 2.32029 14.6663 2.48986 14.6663 2.66667V6.33333C14.2243 6.33333 13.8004 6.50893 13.4878 6.82149C13.1753 7.13405 12.9997 7.55797 12.9997 8C12.9997 8.44203 13.1753 8.86595 13.4878 9.17851C13.8004 9.49107 14.2243 9.66667 14.6663 9.66667V13.3333C14.6663 13.5101 14.5961 13.6797 14.4711 13.8047C14.3461 13.9298 14.1765 14 13.9997 14H1.99967C1.82286 14 1.65329 13.9298 1.52827 13.8047C1.40325 13.6797 1.33301 13.5101 1.33301 13.3333V9.66667C1.77504 9.66667 2.19896 9.49107 2.51152 9.17851C2.82408 8.86595 2.99967 8.44203 2.99967 8C2.99967 7.55797 2.82408 7.13405 2.51152 6.82149C2.19896 6.50893 1.77504 6.33333 1.33301 6.33333ZM9.33301 3.33333H2.66634V5.312C3.16715 5.5602 3.58866 5.94337 3.88334 6.41831C4.17803 6.89324 4.33418 7.44107 4.33418 8C4.33418 8.55894 4.17803 9.10676 3.88334 9.58169C3.58866 10.0566 3.16715 10.4398 2.66634 10.688V12.6667H9.33301V3.33333ZM10.6663 3.33333V12.6667H13.333V10.688C12.8322 10.4398 12.4107 10.0566 12.116 9.58169C11.8213 9.10676 11.6652 8.55894 11.6652 8C11.6652 7.44107 11.8213 6.89324 12.116 6.41831C12.4107 5.94337 12.8322 5.5602 13.333 5.312V3.33333H10.6663Z" fill="#333333"/>
</svg>
