<svg width="20" height="20" viewBox="0 0 20 20" fill="none" xmlns="http://www.w3.org/2000/svg">
<path d="M9.99996 1.66602C14.6025 1.66602 18.3333 5.39685 18.3333 9.99935C18.3333 14.6018 14.6025 18.3327 9.99996 18.3327C5.39746 18.3327 1.66663 14.6018 1.66663 9.99935C1.66663 5.39685 5.39746 1.66602 9.99996 1.66602ZM9.99996 3.33268C8.23185 3.33268 6.53616 4.03506 5.28591 5.2853C4.03567 6.53555 3.33329 8.23124 3.33329 9.99935C3.33329 11.7675 4.03567 13.4632 5.28591 14.7134C6.53616 15.9636 8.23185 16.666 9.99996 16.666C11.7681 16.666 13.4638 15.9636 14.714 14.7134C15.9642 13.4632 16.6666 11.7675 16.6666 9.99935C16.6666 8.23124 15.9642 6.53555 14.714 5.2853C13.4638 4.03506 11.7681 3.33268 9.99996 3.33268ZM9.99996 4.99935C11.326 4.99935 12.5978 5.52613 13.5355 6.46382C14.4732 7.4015 15 8.67327 15 9.99935C15 11.3254 14.4732 12.5972 13.5355 13.5349C12.5978 14.4726 11.326 14.9993 9.99996 14.9993C8.67388 14.9993 7.40211 14.4726 6.46443 13.5349C5.52674 12.5972 4.99996 11.3254 4.99996 9.99935C4.99996 8.67327 5.52674 7.4015 6.46443 6.46382C7.40211 5.52613 8.67388 4.99935 9.99996 4.99935ZM9.99996 6.45768C9.59971 6.45781 9.20796 6.57323 8.87158 6.79015C8.5352 7.00706 8.26843 7.31628 8.10316 7.68082C7.9379 8.04537 7.88115 8.4498 7.9397 8.84575C7.99824 9.2417 8.16961 9.6124 8.43329 9.91352C7.96246 10.2943 7.66663 10.8452 7.66663 11.4577C7.66663 12.6077 8.71163 13.541 9.99996 13.541C11.2883 13.541 12.3333 12.6077 12.3333 11.4577C12.3333 10.8452 12.0375 10.2943 11.5666 9.91435C11.8306 9.61325 12.0022 9.24247 12.0609 8.84639C12.1196 8.4503 12.0629 8.04569 11.8976 7.68099C11.7323 7.31629 11.4654 7.00695 11.1288 6.79C10.7923 6.57305 10.4004 6.45767 9.99996 6.45768ZM9.99996 10.6243C10.6275 10.6243 11.0833 11.031 11.0833 11.4577C11.0833 11.8843 10.6275 12.291 9.99996 12.291C9.37246 12.291 8.91663 11.8843 8.91663 11.4577C8.91663 11.031 9.37246 10.6243 9.99996 10.6243ZM9.99996 7.70768C10.221 7.70768 10.4329 7.79548 10.5892 7.95176C10.7455 8.10804 10.8333 8.32 10.8333 8.54102C10.8333 8.76203 10.7455 8.97399 10.5892 9.13027C10.4329 9.28655 10.221 9.37435 9.99996 9.37435C9.77895 9.37435 9.56698 9.28655 9.4107 9.13027C9.25442 8.97399 9.16663 8.76203 9.16663 8.54102C9.16663 8.32 9.25442 8.10804 9.4107 7.95176C9.56698 7.79548 9.77895 7.70768 9.99996 7.70768Z" fill="#FFAD08"/>
<path d="M9.99996 1.66602C14.6025 1.66602 18.3333 5.39685 18.3333 9.99935C18.3333 14.6018 14.6025 18.3327 9.99996 18.3327C5.39746 18.3327 1.66663 14.6018 1.66663 9.99935C1.66663 5.39685 5.39746 1.66602 9.99996 1.66602ZM9.99996 3.33268C8.23185 3.33268 6.53616 4.03506 5.28591 5.2853C4.03567 6.53555 3.33329 8.23124 3.33329 9.99935C3.33329 11.7675 4.03567 13.4632 5.28591 14.7134C6.53616 15.9636 8.23185 16.666 9.99996 16.666C11.7681 16.666 13.4638 15.9636 14.714 14.7134C15.9642 13.4632 16.6666 11.7675 16.6666 9.99935C16.6666 8.23124 15.9642 6.53555 14.714 5.2853C13.4638 4.03506 11.7681 3.33268 9.99996 3.33268ZM9.99996 4.99935C11.326 4.99935 12.5978 5.52613 13.5355 6.46382C14.4732 7.4015 15 8.67327 15 9.99935C15 11.3254 14.4732 12.5972 13.5355 13.5349C12.5978 14.4726 11.326 14.9993 9.99996 14.9993C8.67388 14.9993 7.40211 14.4726 6.46443 13.5349C5.52674 12.5972 4.99996 11.3254 4.99996 9.99935C4.99996 8.67327 5.52674 7.4015 6.46443 6.46382C7.40211 5.52613 8.67388 4.99935 9.99996 4.99935ZM9.99996 6.45768C9.59971 6.45781 9.20796 6.57323 8.87158 6.79015C8.5352 7.00706 8.26843 7.31628 8.10316 7.68082C7.9379 8.04537 7.88115 8.4498 7.9397 8.84575C7.99824 9.2417 8.16961 9.6124 8.43329 9.91352C7.96246 10.2943 7.66663 10.8452 7.66663 11.4577C7.66663 12.6077 8.71163 13.541 9.99996 13.541C11.2883 13.541 12.3333 12.6077 12.3333 11.4577C12.3333 10.8452 12.0375 10.2943 11.5666 9.91435C11.8306 9.61325 12.0022 9.24247 12.0609 8.84639C12.1196 8.4503 12.0629 8.04569 11.8976 7.68099C11.7323 7.31629 11.4654 7.00695 11.1288 6.79C10.7923 6.57305 10.4004 6.45767 9.99996 6.45768ZM9.99996 10.6243C10.6275 10.6243 11.0833 11.031 11.0833 11.4577C11.0833 11.8843 10.6275 12.291 9.99996 12.291C9.37246 12.291 8.91663 11.8843 8.91663 11.4577C8.91663 11.031 9.37246 10.6243 9.99996 10.6243ZM9.99996 7.70768C10.221 7.70768 10.4329 7.79548 10.5892 7.95176C10.7455 8.10804 10.8333 8.32 10.8333 8.54102C10.8333 8.76203 10.7455 8.97399 10.5892 9.13027C10.4329 9.28655 10.221 9.37435 9.99996 9.37435C9.77895 9.37435 9.56698 9.28655 9.4107 9.13027C9.25442 8.97399 9.16663 8.76203 9.16663 8.54102C9.16663 8.32 9.25442 8.10804 9.4107 7.95176C9.56698 7.79548 9.77895 7.70768 9.99996 7.70768Z" fill="url(#paint0_linear_355_50384)" fill-opacity="0.38"/>
<defs>
<linearGradient id="paint0_linear_355_50384" x1="18.3333" y1="18.3327" x2="1.66663" y2="1.66602" gradientUnits="userSpaceOnUse">
<stop stop-color="white" stop-opacity="0"/>
<stop offset="1" stop-color="white"/>
</linearGradient>
</defs>
</svg>
