<svg width="18" height="18" viewBox="0 0 18 18" fill="none" xmlns="http://www.w3.org/2000/svg">
<path fill-rule="evenodd" clip-rule="evenodd" d="M5.5052 7.56338L9.00125 4.06887L12.4987 7.56623L14.5318 5.53179L9.00125 0L3.4707 5.53037L5.5052 7.56338ZM0 9L2.03376 6.96631L4.06751 9L2.03376 11.0337L0 9ZM9.00214 13.9329L5.50609 10.437L3.46875 12.4686L3.47159 12.4714L9.00214 18.0004L14.5327 12.4686L14.5341 12.4671L12.4996 10.4355L9.00214 13.9329ZM13.9316 9.00098L15.9654 6.96728L17.9992 9.00098L15.9654 11.0347L13.9316 9.00098ZM9.00133 6.93457L11.0643 8.99886H11.0657L11.0643 9.00028L9.00133 11.0646L6.93839 9.00313L6.93555 8.99886L6.93839 8.99602L7.29951 8.63491L7.47581 8.46004L9.00133 6.93457Z" fill="#FFAD08"/>
<path fill-rule="evenodd" clip-rule="evenodd" d="M5.5052 7.56338L9.00125 4.06887L12.4987 7.56623L14.5318 5.53179L9.00125 0L3.4707 5.53037L5.5052 7.56338ZM0 9L2.03376 6.96631L4.06751 9L2.03376 11.0337L0 9ZM9.00214 13.9329L5.50609 10.437L3.46875 12.4686L3.47159 12.4714L9.00214 18.0004L14.5327 12.4686L14.5341 12.4671L12.4996 10.4355L9.00214 13.9329ZM13.9316 9.00098L15.9654 6.96728L17.9992 9.00098L15.9654 11.0347L13.9316 9.00098ZM9.00133 6.93457L11.0643 8.99886H11.0657L11.0643 9.00028L9.00133 11.0646L6.93839 9.00313L6.93555 8.99886L6.93839 8.99602L7.29951 8.63491L7.47581 8.46004L9.00133 6.93457Z" fill="url(#paint0_linear_414_22489)" fill-opacity="0.38"/>
<defs>
<linearGradient id="paint0_linear_414_22489" x1="17.9992" y1="18.0004" x2="-0.00119778" y2="0.00119785" gradientUnits="userSpaceOnUse">
<stop stop-color="white" stop-opacity="0"/>
<stop offset="1" stop-color="white"/>
</linearGradient>
</defs>
</svg>
