<svg width="12" height="13" viewBox="0 0 12 13" fill="none" xmlns="http://www.w3.org/2000/svg">
<path fill-rule="evenodd" clip-rule="evenodd" d="M3.67083 5.54241L6.0016 3.21267L8.33331 5.54431L9.68874 4.18798L6.0016 0.5L2.31445 4.18703L3.67083 5.54241ZM0 6.5L1.35588 5.14416L2.71176 6.5L1.35588 7.85584L0 6.5ZM6.00056 9.78867L3.6698 7.45798L2.31152 8.81242L2.31342 8.81431L6.00056 12.5004L9.68771 8.81242L9.68866 8.81147L8.33228 7.45703L6.00056 9.78867ZM9.28809 6.5L10.644 5.14416L11.9998 6.5L10.644 7.85584L9.28809 6.5ZM6.00125 5.125L7.37659 6.50124H7.37753L7.37659 6.50219L6.00125 7.87842L4.62592 6.50408L4.62402 6.50124L4.62592 6.49934L4.86667 6.2586L4.98421 6.14201L6.00125 5.125Z" fill="#48EC48"/>
</svg>
