<svg width="21" height="21" viewBox="0 0 21 21" fill="none" xmlns="http://www.w3.org/2000/svg">
<path d="M12.2503 1.75C13.8516 1.74924 15.4046 2.29746 16.6506 3.30324C17.8965 4.30901 18.76 5.71154 19.0969 7.27691C19.4339 8.84228 19.224 10.4759 18.5023 11.9052C17.7805 13.3345 16.5906 14.4732 15.1308 15.1314C14.6642 16.1629 13.9544 17.0659 13.0622 17.7629C12.17 18.4598 11.1221 18.93 10.0083 19.133C8.89445 19.3361 7.74802 19.2659 6.66728 18.9286C5.58654 18.5913 4.60374 17.9968 3.80318 17.1963C3.00262 16.3957 2.40819 15.4129 2.07086 14.3322C1.73353 13.2514 1.66338 12.105 1.86641 10.9912C2.06945 9.87739 2.53961 8.82945 3.23658 7.93725C3.93356 7.04505 4.83654 6.33521 5.86808 5.86863C6.42296 4.6409 7.32022 3.59931 8.45226 2.86878C9.5843 2.13825 10.903 1.74979 12.2503 1.75ZM8.75033 7C8.06089 7 7.37821 7.1358 6.74125 7.39963C6.10429 7.66347 5.52553 8.05018 5.03802 8.53769C4.55052 9.0252 4.1638 9.60395 3.89997 10.2409C3.63613 10.8779 3.50033 11.5606 3.50033 12.25C3.50033 12.9394 3.63613 13.6221 3.89997 14.2591C4.1638 14.896 4.55052 15.4748 5.03802 15.9623C5.52553 16.4498 6.10429 16.8365 6.74125 17.1004C7.37821 17.3642 8.06089 17.5 8.75033 17.5C10.1427 17.5 11.4781 16.9469 12.4626 15.9623C13.4472 14.9777 14.0003 13.6424 14.0003 12.25C14.0003 10.8576 13.4472 9.52226 12.4626 8.53769C11.4781 7.55312 10.1427 7 8.75033 7ZM9.62533 7.875V8.75H11.3753V10.5H7.87533C7.76601 10.4998 7.66057 10.5405 7.57977 10.6142C7.49898 10.6879 7.4487 10.7891 7.43882 10.898C7.42894 11.0069 7.46019 11.1155 7.5264 11.2025C7.59262 11.2895 7.68901 11.3485 7.79658 11.368L7.87533 11.375H9.62533C10.2055 11.375 10.7619 11.6055 11.1721 12.0157C11.5824 12.4259 11.8128 12.9823 11.8128 13.5625C11.8128 14.1427 11.5824 14.6991 11.1721 15.1093C10.7619 15.5195 10.2055 15.75 9.62533 15.75V16.625H7.87533V15.75H6.12533V14H9.62533C9.73466 14.0002 9.8401 13.9595 9.92089 13.8858C10.0017 13.8121 10.052 13.7109 10.0619 13.602C10.0717 13.4932 10.0405 13.3845 9.97427 13.2975C9.90805 13.2105 9.81166 13.1515 9.70408 13.132L9.62533 13.125H7.87533C7.29517 13.125 6.73877 12.8945 6.32854 12.4843C5.9183 12.0741 5.68783 11.5177 5.68783 10.9375C5.68783 10.3573 5.9183 9.80094 6.32854 9.3907C6.73877 8.98047 7.29517 8.75 7.87533 8.75V7.875H9.62533ZM12.2503 3.5C11.5089 3.49913 10.7758 3.6557 10.0994 3.95934C9.42306 4.26298 8.81887 4.70678 8.32683 5.26138C9.31581 5.20134 10.3063 5.35193 11.2327 5.7032C12.1592 6.05447 13.0005 6.59841 13.701 7.29906C14.4016 7.9997 14.9454 8.84108 15.2966 9.76757C15.6478 10.6941 15.7982 11.6845 15.7381 12.6735C16.5336 11.9662 17.0954 11.0337 17.3488 9.99977C17.6022 8.96584 17.5353 7.8793 17.157 6.88426C16.7787 5.88921 16.1068 5.03268 15.2305 4.42827C14.3542 3.82386 13.3149 3.50012 12.2503 3.5Z" fill="white"/>
</svg>
