<svg width="12" height="12" viewBox="0 0 12 12" fill="none" xmlns="http://www.w3.org/2000/svg">
<path d="M5.99968 11.5C6.99424 11.5 7.94807 11.1049 8.65133 10.4017C9.35459 9.69839 9.74968 8.74456 9.74968 7.75C9.74968 7.317 9.63468 6.9015 9.49968 6.515C8.66618 7.3385 8.03318 7.75 7.59968 7.75C9.59718 4.25 8.49968 2.75 5.49968 0.75C5.74968 3.25 4.10168 4.387 3.43068 5.0185C2.88334 5.53334 2.5033 6.20074 2.33982 6.93416C2.17635 7.66759 2.23698 8.43321 2.51385 9.13177C2.79073 9.83032 3.27109 10.4296 3.89263 10.8519C4.51418 11.2741 5.24826 11.4999 5.99968 11.5V11.5ZM6.35468 2.6175C7.97518 3.9925 7.98318 5.061 6.73118 7.2545C6.35068 7.921 6.83218 8.75 7.59968 8.75C7.94368 8.75 8.29168 8.65 8.65918 8.4525C8.55025 8.86399 8.34728 9.24458 8.06626 9.56429C7.78524 9.884 7.43383 10.1341 7.03972 10.2949C6.6456 10.4558 6.21953 10.5229 5.79506 10.491C5.37059 10.4592 4.9593 10.3293 4.59358 10.1115C4.22787 9.89364 3.91771 9.59391 3.68752 9.23585C3.45734 8.87779 3.31342 8.47118 3.26709 8.04805C3.22076 7.62491 3.27329 7.1968 3.42055 6.79741C3.5678 6.39803 3.80576 6.03829 4.11568 5.7465C4.17868 5.6875 4.49818 5.404 4.51218 5.3915C4.72418 5.2015 4.89868 5.033 5.07118 4.8485C5.68618 4.1895 6.12818 3.4585 6.35418 2.6175H6.35468Z" fill="#EF233C"/>
<path d="M5.99968 11.5C6.99424 11.5 7.94807 11.1049 8.65133 10.4017C9.35459 9.69839 9.74968 8.74456 9.74968 7.75C9.74968 7.317 9.63468 6.9015 9.49968 6.515C8.66618 7.3385 8.03318 7.75 7.59968 7.75C9.59718 4.25 8.49968 2.75 5.49968 0.75C5.74968 3.25 4.10168 4.387 3.43068 5.0185C2.88334 5.53334 2.5033 6.20074 2.33982 6.93416C2.17635 7.66759 2.23698 8.43321 2.51385 9.13177C2.79073 9.83032 3.27109 10.4296 3.89263 10.8519C4.51418 11.2741 5.24826 11.4999 5.99968 11.5V11.5ZM6.35468 2.6175C7.97518 3.9925 7.98318 5.061 6.73118 7.2545C6.35068 7.921 6.83218 8.75 7.59968 8.75C7.94368 8.75 8.29168 8.65 8.65918 8.4525C8.55025 8.86399 8.34728 9.24458 8.06626 9.56429C7.78524 9.884 7.43383 10.1341 7.03972 10.2949C6.6456 10.4558 6.21953 10.5229 5.79506 10.491C5.37059 10.4592 4.9593 10.3293 4.59358 10.1115C4.22787 9.89364 3.91771 9.59391 3.68752 9.23585C3.45734 8.87779 3.31342 8.47118 3.26709 8.04805C3.22076 7.62491 3.27329 7.1968 3.42055 6.79741C3.5678 6.39803 3.80576 6.03829 4.11568 5.7465C4.17868 5.6875 4.49818 5.404 4.51218 5.3915C4.72418 5.2015 4.89868 5.033 5.07118 4.8485C5.68618 4.1895 6.12818 3.4585 6.35418 2.6175H6.35468Z" fill="url(#paint0_linear_409_6199)" fill-opacity="0.18"/>
<defs>
<linearGradient id="paint0_linear_409_6199" x1="3.81183" y1="0.62332" x2="8.8728" y2="10.9684" gradientUnits="userSpaceOnUse">
<stop stop-color="white"/>
<stop offset="1" stop-color="white" stop-opacity="0"/>
</linearGradient>
</defs>
</svg>
