<svg width="363" height="291" viewBox="0 0 363 291" fill="none" xmlns="http://www.w3.org/2000/svg">
<g style="mix-blend-mode:soft-light">
<mask id="mask0_425_16799" style="mask-type:alpha" maskUnits="userSpaceOnUse" x="0" y="0" width="363" height="291">
<rect x="363" y="0.00390625" width="290" height="363" rx="5" transform="rotate(90 363 0.00390625)" fill="#604545"/>
</mask>
<g mask="url(#mask0_425_16799)">
<path d="M63.2407 -71.5835C98.2635 -36.5607 98.2635 20.2189 63.2407 55.2417C28.2179 90.2645 -28.5617 90.2645 -63.5845 55.2417C-98.6072 20.2189 -98.6072 -36.5607 -63.5845 -71.5835C-28.5617 -106.606 28.2179 -106.606 63.2407 -71.5835ZM37.8757 -46.2185C27.7848 -56.3093 14.0987 -61.9783 -0.171875 -61.9783C-14.4425 -61.9783 -28.1286 -56.3093 -38.2194 -46.2185C-48.3103 -36.1276 -53.9793 -22.4415 -53.9793 -8.1709C-53.9793 6.09971 -48.3103 19.7858 -38.2194 29.8767C-28.1286 39.9675 -14.4425 45.6365 -0.171875 45.6365C14.0987 45.6365 27.7848 39.9675 37.8757 29.8767C47.9665 19.7858 53.6355 6.09971 53.6355 -8.1709C53.6355 -22.4415 47.9665 -36.1276 37.8757 -46.2185ZM26.7785 -35.1213C29.8255 -32.0744 31.93 -28.2141 32.8399 -24.0022C33.7499 -19.7904 33.4269 -15.4056 31.9095 -11.3726C30.3921 -7.33962 27.7447 -3.82934 24.284 -1.26194C20.8234 1.30546 16.6962 2.8212 12.3965 3.10386C13.0877 9.57828 11.1473 16.021 6.48645 20.6818C-2.26449 29.4328 -17.3186 28.583 -27.1222 18.7795C-36.9258 8.97586 -37.7755 -6.07829 -29.0246 -14.8292C-24.3638 -19.4901 -17.9211 -21.4305 -11.4403 -20.7456C-11.1555 -25.0435 -9.6386 -29.1684 -7.07113 -32.6269C-4.50365 -36.0853 -0.994265 -38.731 3.03729 -40.2474C7.06884 -41.7639 11.4519 -42.0869 15.6622 -41.1778C19.8725 -40.2687 23.7318 -38.166 26.7785 -35.1213V-35.1213ZM-4.92782 -3.41496C-9.70279 -8.18993 -16.266 -8.56406 -19.5127 -5.31734C-22.7594 -2.07061 -22.3853 4.49259 -17.6103 9.26756C-12.8354 14.0425 -6.27217 14.4167 -3.02544 11.1699C0.221284 7.92322 -0.152851 1.36001 -4.92782 -3.41496ZM17.2666 -25.6094C15.5848 -27.2912 13.3038 -28.236 10.9253 -28.236C8.5469 -28.236 6.26588 -27.2912 4.58407 -25.6094C2.90226 -23.9276 1.95744 -21.6465 1.95744 -19.2681C1.95744 -16.8897 2.90226 -14.6087 4.58407 -12.9268C6.26588 -11.245 8.5469 -10.3002 10.9253 -10.3002C13.3038 -10.3002 15.5848 -11.245 17.2666 -12.9268C18.9484 -14.6087 19.8932 -16.8897 19.8932 -19.2681C19.8932 -21.6465 18.9484 -23.9276 17.2666 -25.6094Z" fill="white"/>
<path d="M342.544 -118.147C393.272 -67.4191 393.272 14.8224 342.544 65.5506C291.816 116.279 209.575 116.279 158.846 65.5506C108.118 14.8224 108.118 -67.4191 158.846 -118.147C209.575 -168.875 291.816 -168.875 342.544 -118.147ZM305.805 -81.4077C291.189 -96.0236 271.365 -104.235 250.695 -104.235C230.025 -104.235 210.202 -96.0236 195.586 -81.4077C180.97 -66.7918 172.759 -46.9683 172.759 -26.2983C172.759 -5.62832 180.97 14.1951 195.586 28.811C210.202 43.4269 230.025 51.638 250.695 51.638C271.365 51.638 291.189 43.4269 305.805 28.811C320.421 14.1951 328.632 -5.62832 328.632 -26.2983C328.632 -46.9683 320.421 -66.7918 305.805 -81.4077ZM289.731 -65.3341C294.144 -60.921 297.193 -55.3295 298.511 -49.229C299.829 -43.1284 299.361 -36.7773 297.163 -30.9358C294.965 -25.0943 291.131 -20.0099 286.118 -16.2912C281.106 -12.5725 275.128 -10.377 268.9 -9.9676C269.901 -0.589831 267.09 8.74201 260.339 15.4929C247.664 28.168 225.859 26.9373 211.66 12.7374C197.46 -1.4624 196.229 -23.2673 208.904 -35.9425C215.655 -42.6934 224.987 -45.5039 234.374 -44.512C234.786 -50.7372 236.983 -56.7118 240.702 -61.7211C244.421 -66.7305 249.504 -70.5626 255.344 -72.759C261.183 -74.9555 267.532 -75.4233 273.63 -74.1066C279.728 -72.7898 285.318 -69.7442 289.731 -65.3341V-65.3341ZM243.807 -19.4097C236.89 -26.3259 227.384 -26.8678 222.681 -22.1651C217.979 -17.4625 218.521 -7.95611 225.437 -1.03989C232.353 5.87633 241.859 6.41824 246.562 1.71557C251.265 -2.98709 250.723 -12.4935 243.807 -19.4097ZM275.954 -51.5568C273.518 -53.9928 270.214 -55.3613 266.769 -55.3613C263.324 -55.3613 260.02 -53.9928 257.584 -51.5568C255.148 -49.1208 253.779 -45.8169 253.779 -42.3719C253.779 -38.9269 255.148 -35.623 257.584 -33.187C260.02 -30.751 263.324 -29.3825 266.769 -29.3825C270.214 -29.3825 273.518 -30.751 275.954 -33.187C278.39 -35.623 279.758 -38.9269 279.758 -42.3719C279.758 -45.8169 278.39 -49.1208 275.954 -51.5568Z" fill="white"/>
<path d="M152.071 92.0279C181.908 121.865 181.908 170.238 152.071 200.076C122.233 229.913 73.8603 229.913 44.0229 200.076C14.1854 170.238 14.1854 121.865 44.0229 92.0279C73.8603 62.1904 122.233 62.1904 152.071 92.0279ZM130.461 113.637C121.864 105.041 110.205 100.211 98.0469 100.211C85.8891 100.211 74.2293 105.041 65.6325 113.637C57.0357 122.234 52.206 133.894 52.206 146.052C52.206 158.21 57.0357 169.869 65.6325 178.466C74.2293 187.063 85.8891 191.893 98.0469 191.893C110.205 191.893 121.864 187.063 130.461 178.466C139.058 169.869 143.888 158.21 143.888 146.052C143.888 133.894 139.058 122.234 130.461 113.637ZM121.007 123.092C123.603 125.687 125.396 128.976 126.171 132.564C126.946 136.153 126.671 139.888 125.378 143.324C124.086 146.76 121.83 149.751 118.882 151.938C115.934 154.125 112.418 155.417 108.754 155.657C109.343 161.173 107.69 166.662 103.719 170.633C96.2641 178.088 83.4388 177.364 75.0867 169.012C66.7346 160.66 66.0106 147.835 73.466 140.379C77.4367 136.409 82.9256 134.755 88.4468 135.339C88.6895 131.677 89.9818 128.163 92.1691 125.217C94.3564 122.27 97.3462 120.016 100.781 118.724C104.216 117.433 107.95 117.157 111.537 117.932C115.124 118.706 118.411 120.498 121.007 123.092V123.092ZM93.9951 150.104C89.9271 146.036 84.3356 145.717 81.5696 148.483C78.8035 151.249 79.1223 156.84 83.1903 160.908C87.2583 164.976 92.8498 165.295 95.6158 162.529C98.3818 159.763 98.0631 154.172 93.9951 150.104ZM112.903 131.195C111.471 129.762 109.527 128.958 107.501 128.958C105.475 128.958 103.531 129.762 102.099 131.195C100.666 132.628 99.8609 134.571 99.8609 136.598C99.8609 138.624 100.666 140.567 102.099 142C103.531 143.433 105.475 144.238 107.501 144.238C109.527 144.238 111.471 143.433 112.903 142C114.336 140.567 115.141 138.624 115.141 136.598C115.141 134.571 114.336 132.628 112.903 131.195Z" fill="white"/>
</g>
</g>
<g style="mix-blend-mode:soft-light" opacity="0.5">
<mask id="mask1_425_16799" style="mask-type:alpha" maskUnits="userSpaceOnUse" x="0" y="145" width="363" height="146">
<path d="M0 145.004H363V285.004C363 287.765 360.761 290.004 358 290.004H5C2.23857 290.004 0 287.765 0 285.004V145.004Z" fill="#7D7D7D"/>
</mask>
<g mask="url(#mask1_425_16799)">
<path d="M382.473 136.754C427.195 162.574 442.517 219.756 416.697 264.477C390.877 309.199 333.695 324.521 288.973 298.701C244.252 272.881 228.93 215.699 254.75 170.977C280.57 126.256 337.752 110.934 382.473 136.754ZM363.773 169.143C350.888 161.704 335.575 159.688 321.204 163.539C306.832 167.39 294.579 176.792 287.139 189.677C279.7 202.563 277.684 217.875 281.535 232.247C285.386 246.619 294.788 258.872 307.673 266.311C320.559 273.751 335.871 275.767 350.243 271.916C364.615 268.065 376.868 258.663 384.307 245.777C391.747 232.892 393.763 217.579 389.912 203.208C386.061 188.836 376.659 176.583 363.773 169.143ZM355.592 183.314C359.483 185.56 362.644 188.88 364.697 192.876C366.75 196.872 367.608 201.375 367.168 205.846C366.728 210.317 365.009 214.566 362.217 218.086C359.425 221.605 355.677 224.245 351.423 225.69C353.866 232.024 353.651 239.036 350.215 244.988C343.763 256.162 328.373 259.369 315.855 252.141C303.336 244.913 298.418 229.982 304.87 218.808C308.306 212.856 314.27 209.163 320.982 208.104C320.109 203.699 320.524 199.136 322.176 194.96C323.828 190.784 326.649 187.173 330.3 184.558C333.95 181.943 338.277 180.434 342.763 180.214C347.248 179.993 351.702 181.069 355.592 183.314V183.314ZM332.217 223.8C326.12 220.28 319.409 221.674 317.016 225.82C314.622 229.966 316.77 236.475 322.867 239.995C328.964 243.515 335.675 242.121 338.069 237.975C340.462 233.829 338.314 227.321 332.217 223.8ZM348.58 195.46C346.432 194.22 343.88 193.884 341.485 194.526C339.089 195.167 337.047 196.734 335.807 198.882C334.567 201.029 334.231 203.582 334.873 205.977C335.515 208.372 337.082 210.414 339.23 211.654C341.377 212.894 343.929 213.23 346.325 212.588C348.72 211.947 350.762 210.379 352.002 208.232C353.242 206.084 353.578 203.532 352.936 201.137C352.294 198.742 350.727 196.699 348.58 195.46Z" fill="white"/>
</g>
</g>
</svg>
