<svg width="363" height="291" viewBox="0 0 363 291" fill="none" xmlns="http://www.w3.org/2000/svg">
<g style="mix-blend-mode:soft-light">
<mask id="mask0_425_16798" style="mask-type:alpha" maskUnits="userSpaceOnUse" x="0" y="0" width="363" height="291">
<rect x="363" y="0.00195312" width="290" height="363" rx="5" transform="rotate(90 363 0.00195312)" fill="#604545"/>
</mask>
<g mask="url(#mask0_425_16798)">
<path d="M-108.282 174.027C-109.541 171.846 -109.883 169.253 -109.231 166.819C-108.579 164.386 -106.986 162.311 -104.805 161.051L43.2744 75.5577C45.4563 74.298 48.0492 73.9566 50.4827 74.6087C52.9162 75.2607 54.991 76.8528 56.2507 79.0346L82.3737 124.281C76.9191 127.43 72.939 132.617 71.3088 138.701C69.6787 144.785 70.5321 151.267 73.6813 156.722C76.8305 162.176 82.0175 166.156 88.1013 167.787C94.1851 169.417 100.667 168.563 106.122 165.414L132.245 210.66C133.505 212.842 133.846 215.435 133.194 217.869C132.542 220.302 130.95 222.377 128.768 223.637L-19.3111 309.13C-21.493 310.39 -24.0859 310.731 -26.5194 310.079C-28.9529 309.427 -31.0277 307.835 -32.2874 305.653L-108.282 174.027ZM13.0219 268.525C12.4782 265.625 12.8481 262.628 14.0806 259.947C15.313 257.267 17.3472 255.035 19.9023 253.559C22.4575 252.084 25.4076 251.439 28.3453 251.712C31.2831 251.985 34.0637 253.163 36.3032 255.084L111.042 211.933L96.9451 187.517C88.9969 188.022 81.0657 186.297 74.0456 182.535C67.0254 178.774 61.1957 173.126 57.2136 166.229C53.2315 159.332 51.2554 151.46 51.5081 143.499C51.7609 135.539 54.2324 127.808 58.644 121.177L44.5471 96.7605L-30.1917 139.911C-29.648 142.811 -30.0179 145.808 -31.2503 148.489C-32.4828 151.169 -34.517 153.401 -37.0721 154.877C-39.6273 156.352 -42.5774 156.998 -45.5151 156.725C-48.4529 156.452 -51.2335 155.273 -53.473 153.352L-87.0787 172.755L-20.5838 287.927L13.0219 268.525ZM-13.3345 195.991C-16.6073 197.881 -20.4966 198.393 -24.1469 197.415C-27.7972 196.437 -30.9094 194.049 -32.7989 190.776C-34.6884 187.503 -35.2005 183.614 -34.2224 179.964C-33.2443 176.313 -30.8562 173.201 -27.5834 171.312C-24.3107 169.422 -20.4214 168.91 -16.7711 169.888C-13.1208 170.866 -10.0086 173.254 -8.11906 176.527C-6.22954 179.8 -5.7175 183.689 -6.69559 187.339C-7.67368 190.99 -10.0618 194.102 -13.3345 195.991ZM10.4137 237.124C7.14091 239.014 3.25159 239.526 -0.398688 238.548C-4.04897 237.57 -7.1612 235.182 -9.05072 231.909C-10.9402 228.636 -11.4523 224.747 -10.4742 221.097C-9.4961 217.446 -7.108 214.334 -3.83525 212.445C-0.562503 210.555 3.32682 210.043 6.9771 211.021C10.6274 211.999 13.7396 214.387 15.6291 217.66C17.5187 220.933 18.0307 224.822 17.0526 228.472C16.0745 232.123 13.6864 235.235 10.4137 237.124Z" fill="white"/>
<path d="M165.149 -43.4825C166.408 -41.3006 166.75 -38.7078 166.098 -36.2742C165.446 -33.8407 163.854 -31.7659 161.672 -30.5062L13.5927 54.9873C11.4109 56.2469 8.81803 56.5883 6.38451 55.9362C3.95099 55.2842 1.87618 53.6921 0.616497 51.5103L-25.5065 6.2639C-20.0519 3.11469 -16.0718 -2.07236 -14.4416 -8.15616C-12.8115 -14.24 -13.6649 -20.7222 -16.8141 -26.1767C-19.9633 -31.6313 -25.1503 -35.6115 -31.2341 -37.2416C-37.3179 -38.8718 -43.8001 -38.0184 -49.2547 -34.8692L-75.3777 -80.1156C-76.6374 -82.2974 -76.9788 -84.8903 -76.3267 -87.3238C-75.6746 -89.7573 -74.0826 -91.8321 -71.9007 -93.0918L76.1783 -178.585C78.3602 -179.845 80.9531 -180.186 83.3866 -179.534C85.8201 -178.882 87.8949 -177.29 89.1546 -175.108L165.149 -43.4825ZM43.8453 -137.98C44.389 -135.08 44.0191 -132.083 42.7866 -129.402C41.5542 -126.722 39.52 -124.49 36.9648 -123.014C34.4097 -121.539 31.4596 -120.894 28.5218 -121.167C25.5841 -121.44 22.8035 -122.618 20.564 -124.539L-54.1748 -81.3882L-40.0779 -56.9716C-32.1297 -57.4769 -24.1985 -55.7516 -17.1784 -51.9904C-10.1583 -48.2292 -4.32849 -42.5816 -0.346385 -35.6844C3.63572 -28.7871 5.6118 -20.9146 5.35906 -12.9544C5.10631 -4.99421 2.6348 2.73709 -1.77684 9.3678L12.3201 33.7844L87.0589 -9.36607C86.5152 -12.266 86.8851 -15.2631 88.1175 -17.9438C89.35 -20.6245 91.3842 -22.8566 93.9393 -24.3318C96.4945 -25.807 99.4445 -26.4526 102.382 -26.1796C105.32 -25.9066 108.101 -24.7284 110.34 -22.8075L143.946 -42.2098L77.451 -157.382L43.8453 -137.98ZM70.2017 -65.4465C73.4745 -67.336 77.3638 -67.8481 81.0141 -66.87C84.6644 -65.8919 87.7766 -63.5038 89.6661 -60.231C91.5556 -56.9583 92.0677 -53.069 91.0896 -49.4187C90.1115 -45.7684 87.7234 -42.6562 84.4506 -40.7667C81.1779 -38.8771 77.2886 -38.3651 73.6383 -39.3432C69.988 -40.3213 66.8758 -42.7094 64.9863 -45.9821C63.0967 -49.2549 62.5847 -53.1442 63.5628 -56.7945C64.5409 -60.4447 66.929 -63.557 70.2017 -65.4465ZM46.4535 -106.58C49.7263 -108.469 53.6156 -108.981 57.2659 -108.003C60.9162 -107.025 64.0284 -104.637 65.9179 -101.364C67.8074 -98.0914 68.3195 -94.202 67.3414 -90.5518C66.3633 -86.9015 63.9752 -83.7893 60.7024 -81.8997C57.4297 -80.0102 53.5404 -79.4982 49.8901 -80.4763C46.2398 -81.4543 43.1276 -83.8424 41.2381 -87.1152C39.3485 -90.3879 38.8365 -94.2773 39.8146 -97.9275C40.7927 -101.578 43.1808 -104.69 46.4535 -106.58Z" fill="white"/>
<path d="M334.328 93.9882C335.588 96.1701 335.93 98.7629 335.277 101.196C334.625 103.63 333.033 105.705 330.852 106.964L182.772 192.458C180.591 193.718 177.998 194.059 175.564 193.407C173.131 192.755 171.056 191.163 169.796 188.981L143.673 143.735C149.128 140.585 153.108 135.398 154.738 129.315C156.368 123.231 155.515 116.749 152.366 111.294C149.216 105.839 144.029 101.859 137.946 100.229C131.862 98.5989 125.38 99.4523 119.925 102.602L93.802 57.3551C92.5423 55.1733 92.2009 52.5804 92.853 50.1469C93.505 47.7134 95.0971 45.6386 97.279 44.3789L245.358 -41.1146C247.54 -42.3743 250.133 -42.7156 252.566 -42.0636C255 -41.4115 257.075 -39.8194 258.334 -37.6376L334.328 93.9882ZM213.025 -0.509453C213.569 2.39045 213.199 5.38762 211.966 8.06832C210.734 10.749 208.7 12.981 206.145 14.4562C203.589 15.9315 200.639 16.5771 197.702 16.3041C194.764 16.0311 191.983 14.8528 189.744 12.932L115.005 56.0825L129.102 80.4991C137.05 79.9938 144.981 81.7191 152.001 85.4803C159.021 89.2415 164.851 94.8891 168.833 101.786C172.815 108.684 174.791 116.556 174.539 124.516C174.286 132.476 171.814 140.208 167.403 146.838L181.5 171.255L256.239 128.105C255.695 125.205 256.065 122.208 257.297 119.527C258.53 116.846 260.564 114.614 263.119 113.139C265.674 111.664 268.624 111.018 271.562 111.291C274.5 111.564 277.28 112.742 279.52 114.663L313.126 95.2609L246.631 -19.9117L213.025 -0.509453ZM239.381 72.0242C242.654 70.1347 246.543 69.6226 250.194 70.6007C253.844 71.5788 256.956 73.9669 258.846 77.2397C260.735 80.5124 261.247 84.4017 260.269 88.052C259.291 91.7023 256.903 94.8145 253.63 96.7041C250.358 98.5936 246.468 99.1056 242.818 98.1275C239.168 97.1494 236.055 94.7613 234.166 91.4886C232.276 88.2158 231.764 84.3265 232.742 80.6762C233.721 77.026 236.109 73.9137 239.381 72.0242ZM215.633 30.8911C218.906 29.0016 222.795 28.4896 226.446 29.4677C230.096 30.4457 233.208 32.8338 235.098 36.1066C236.987 39.3793 237.499 43.2687 236.521 46.9189C235.543 50.5692 233.155 53.6815 229.882 55.571C226.609 57.4605 222.72 57.9725 219.07 56.9944C215.42 56.0164 212.307 53.6283 210.418 50.3555C208.528 47.0828 208.016 43.1934 208.994 39.5432C209.972 35.8929 212.36 32.7807 215.633 30.8911Z" fill="white"/>
</g>
</g>
<g style="mix-blend-mode:soft-light" opacity="0.5">
<mask id="mask1_425_16798" style="mask-type:alpha" maskUnits="userSpaceOnUse" x="0" y="145" width="363" height="146">
<path d="M0 145.004H363V285.004C363 287.765 360.761 290.004 358 290.004H5C2.23857 290.004 0 287.765 0 285.004V145.004Z" fill="#7D7D7D"/>
</mask>
<g mask="url(#mask1_425_16798)">
<path d="M454.328 258.988C455.588 261.17 455.93 263.763 455.277 266.196C454.625 268.63 453.033 270.705 450.852 271.964L302.772 357.458C300.591 358.718 297.998 359.059 295.564 358.407C293.131 357.755 291.056 356.163 289.796 353.981L263.673 308.735C269.128 305.585 273.108 300.398 274.738 294.315C276.368 288.231 275.515 281.749 272.366 276.294C269.216 270.839 264.029 266.859 257.946 265.229C251.862 263.599 245.38 264.452 239.925 267.602L213.802 222.355C212.542 220.173 212.201 217.58 212.853 215.147C213.505 212.713 215.097 210.639 217.279 209.379L365.358 123.885C367.54 122.626 370.133 122.284 372.566 122.936C375 123.588 377.075 125.181 378.334 127.362L454.328 258.988ZM333.025 164.491C333.569 167.39 333.199 170.388 331.966 173.068C330.734 175.749 328.7 177.981 326.145 179.456C323.589 180.931 320.639 181.577 317.702 181.304C314.764 181.031 311.983 179.853 309.744 177.932L235.005 221.082L249.102 245.499C257.05 244.994 264.981 246.719 272.001 250.48C279.021 254.242 284.851 259.889 288.833 266.786C292.815 273.684 294.791 281.556 294.539 289.516C294.286 297.476 291.814 305.208 287.403 311.838L301.5 336.255L376.239 293.105C375.695 290.205 376.065 287.208 377.297 284.527C378.53 281.846 380.564 279.614 383.119 278.139C385.674 276.664 388.624 276.018 391.562 276.291C394.5 276.564 397.28 277.742 399.52 279.663L433.126 260.261L366.631 145.088L333.025 164.491ZM359.381 237.024C362.654 235.135 366.543 234.623 370.194 235.601C373.844 236.579 376.956 238.967 378.846 242.24C380.735 245.512 381.247 249.402 380.269 253.052C379.291 256.702 376.903 259.815 373.63 261.704C370.358 263.594 366.468 264.106 362.818 263.128C359.168 262.149 356.055 259.761 354.166 256.489C352.276 253.216 351.764 249.327 352.742 245.676C353.721 242.026 356.109 238.914 359.381 237.024ZM335.633 195.891C338.906 194.002 342.795 193.49 346.446 194.468C350.096 195.446 353.208 197.834 355.098 201.107C356.987 204.379 357.499 208.269 356.521 211.919C355.543 215.569 353.155 218.681 349.882 220.571C346.609 222.46 342.72 222.973 339.07 221.994C335.42 221.016 332.307 218.628 330.418 215.356C328.528 212.083 328.016 208.193 328.994 204.543C329.972 200.893 332.36 197.781 335.633 195.891Z" fill="white"/>
</g>
</g>
</svg>
