<svg width="273" height="423" viewBox="0 0 273 423" fill="none" xmlns="http://www.w3.org/2000/svg">
<g style="mix-blend-mode:soft-light">
<mask id="mask0_409_2436" style="mask-type:alpha" maskUnits="userSpaceOnUse" x="0" y="0" width="273" height="423">
<rect x="273" width="423" height="273" rx="5" transform="rotate(90 273 0)" fill="#604545"/>
</mask>
<g mask="url(#mask0_409_2436)">
<path d="M-38.283 312.095C-40.0645 310.305 -41.0653 307.877 -41.0653 305.346C-41.0653 302.814 -40.0645 300.386 -38.283 298.596L82.6231 177.109C84.4045 175.319 86.8207 174.314 89.3401 174.314C91.8594 174.314 94.2756 175.319 96.0571 177.109L133.001 214.23C128.547 218.705 126.045 224.775 126.045 231.104C126.045 237.432 128.547 243.502 133.001 247.977C137.454 252.452 143.495 254.966 149.793 254.966C156.092 254.966 162.132 252.452 166.586 247.977L203.529 285.098C205.311 286.888 206.311 289.316 206.311 291.847C206.311 294.379 205.311 296.806 203.529 298.596L82.6231 420.083C80.8416 421.873 78.4254 422.879 75.9061 422.879C73.3867 422.879 70.9705 421.873 69.1891 420.083L-38.283 312.095ZM103.345 372.265C102.069 369.592 101.651 366.587 102.148 363.664C102.644 360.742 104.031 358.047 106.118 355.95C108.204 353.854 110.886 352.46 113.795 351.961C116.703 351.462 119.694 351.882 122.354 353.164L183.378 291.847L163.442 271.815C155.895 274.373 147.788 274.761 140.034 272.936C132.279 271.111 125.186 267.146 119.555 261.487C113.923 255.829 109.977 248.702 108.161 240.91C106.345 233.118 106.731 224.972 109.276 217.389L89.3401 197.357L28.3161 258.674C29.5918 261.348 30.0102 264.353 29.5136 267.275C29.017 270.197 27.6298 272.893 25.5435 274.989C23.4572 277.085 20.7748 278.479 17.8665 278.978C14.9581 279.477 11.9673 279.057 9.30698 277.775L-18.132 305.346L75.9061 399.836L103.345 372.265ZM59.1136 308.72C56.4414 311.405 52.8171 312.914 49.0381 312.914C45.259 312.914 41.6347 311.405 38.9625 308.72C36.2904 306.035 34.7891 302.394 34.7891 298.596C34.7891 294.799 36.2904 291.158 38.9625 288.472C41.6347 285.787 45.259 284.279 49.0381 284.279C52.8171 284.279 56.4414 285.787 59.1136 288.472C61.7857 291.158 63.287 294.799 63.287 298.596C63.287 302.394 61.7857 306.035 59.1136 308.72ZM92.6986 342.467C90.0264 345.152 86.4021 346.66 82.6231 346.66C78.844 346.66 75.2198 345.152 72.5476 342.467C69.8754 339.782 68.3741 336.14 68.3741 332.343C68.3741 328.546 69.8754 324.904 72.5476 322.219C75.2198 319.534 78.844 318.025 82.6231 318.025C86.4021 318.025 90.0264 319.534 92.6986 322.219C95.3708 324.904 96.872 328.546 96.872 332.343C96.872 336.14 95.3708 339.782 92.6986 342.467Z" fill="white"/>
<path d="M169.525 29.8777C171.307 31.6677 172.307 34.0955 172.307 36.627C172.307 39.1584 171.307 41.5862 169.525 43.3762L48.6191 164.863C46.8377 166.653 44.4215 167.659 41.9021 167.659C39.3827 167.659 36.9666 166.653 35.1851 164.863L-1.75841 127.742C2.69524 123.267 5.19728 117.198 5.19728 110.869C5.19728 104.54 2.69525 98.4709 -1.7584 93.9958C-6.21205 89.5208 -12.2525 87.0067 -18.5509 87.0067C-24.8493 87.0067 -30.8898 89.5208 -35.3434 93.9958L-72.2869 56.8748C-74.0684 55.0848 -75.0692 52.657 -75.0692 50.1255C-75.0692 47.594 -74.0684 45.1662 -72.2869 43.3762L48.6191 -78.1108C50.4006 -79.9008 52.8168 -80.9065 55.3361 -80.9065C57.8555 -80.9065 60.2717 -79.9008 62.0531 -78.1108L169.525 29.8777ZM27.8972 -30.2922C29.1729 -27.619 29.5913 -24.6139 29.0947 -21.6916C28.5981 -18.7692 27.2109 -16.0739 25.1246 -13.9776C23.0383 -11.8813 20.3559 -10.4875 17.4475 -9.98844C14.5392 -9.48942 11.5484 -9.90986 8.88805 -11.1917L-52.1359 50.1255L-32.1999 70.1574C-24.6533 67.6 -16.5457 67.2118 -8.79135 69.0367C-1.03697 70.8615 6.05585 74.8268 11.6874 80.4854C17.319 86.144 21.2653 93.2709 23.0814 101.063C24.8975 108.854 24.5112 117.001 21.966 124.584L41.9021 144.615L102.926 83.2982C101.65 80.6251 101.232 77.6199 101.729 74.6976C102.225 71.7753 103.612 69.08 105.699 66.9837C107.785 64.8874 110.467 63.4935 113.376 62.9945C116.284 62.4955 119.275 62.9159 121.935 64.1978L149.374 36.627L55.3361 -57.863L27.8972 -30.2922ZM72.1286 33.2523C74.8008 30.5673 78.4251 29.0588 82.2041 29.0588C85.9832 29.0588 89.6075 30.5673 92.2796 33.2523C94.9518 35.9373 96.4531 39.579 96.4531 43.3762C96.4531 47.1734 94.9518 50.8151 92.2796 53.5001C89.6075 56.1852 85.9832 57.6936 82.2041 57.6936C78.4251 57.6936 74.8008 56.1852 72.1286 53.5001C69.4564 50.8151 67.9552 47.1734 67.9552 43.3762C67.9552 39.579 69.4564 35.9373 72.1286 33.2523ZM38.5436 -0.494102C41.2158 -3.17913 44.8401 -4.68757 48.6191 -4.68757C52.3982 -4.68757 56.0224 -3.17913 58.6946 -0.4941C61.3668 2.19093 62.868 5.83261 62.868 9.62982C62.868 13.427 61.3668 17.0687 58.6946 19.7537C56.0224 22.4388 52.3982 23.9472 48.6191 23.9472C44.8401 23.9472 41.2158 22.4388 38.5436 19.7537C35.8714 17.0687 34.3702 13.427 34.3702 9.62982C34.3702 5.83261 35.8714 2.19093 38.5436 -0.494102Z" fill="white"/>
<path d="M368.533 119.305C370.314 121.095 371.315 123.523 371.315 126.055C371.315 128.586 370.314 131.014 368.533 132.804L247.627 254.291C245.845 256.081 243.429 257.087 240.91 257.087C238.391 257.087 235.974 256.081 234.193 254.291L197.249 217.17C201.703 212.695 204.205 206.625 204.205 200.297C204.205 193.968 201.703 187.899 197.249 183.424C192.796 178.949 186.755 176.434 180.457 176.434C174.158 176.434 168.118 178.949 163.664 183.424L126.721 146.303C124.939 144.512 123.939 142.085 123.939 139.553C123.939 137.022 124.939 134.594 126.721 132.804L247.627 11.3169C249.408 9.52689 251.825 8.52126 254.344 8.52126C256.863 8.52126 259.279 9.52689 261.061 11.3169L368.533 119.305ZM226.905 59.1356C228.181 61.8087 228.599 64.8139 228.103 67.7362C227.606 70.6585 226.219 73.3538 224.132 75.4501C222.046 77.5464 219.364 78.9403 216.455 79.4393C213.547 79.9383 210.556 79.5179 207.896 78.236L146.872 139.553L166.808 159.585C174.355 157.028 182.462 156.64 190.216 158.464C197.971 160.289 205.064 164.255 210.695 169.913C216.327 175.572 220.273 182.699 222.089 190.49C223.905 198.282 223.519 206.428 220.974 214.011L240.91 234.043L301.934 172.726C300.658 170.053 300.24 167.048 300.736 164.125C301.233 161.203 302.62 158.508 304.706 156.411C306.793 154.315 309.475 152.921 312.384 152.422C315.292 151.923 318.283 152.344 320.943 153.625L348.382 126.055L254.344 31.5647L226.905 59.1356ZM271.136 122.68C273.809 119.995 277.433 118.487 281.212 118.487C284.991 118.487 288.615 119.995 291.287 122.68C293.96 125.365 295.461 129.007 295.461 132.804C295.461 136.601 293.96 140.243 291.287 142.928C288.615 145.613 284.991 147.121 281.212 147.121C277.433 147.121 273.809 145.613 271.136 142.928C268.464 140.243 266.963 136.601 266.963 132.804C266.963 129.007 268.464 125.365 271.136 122.68ZM237.551 88.9336C240.224 86.2486 243.848 84.7402 247.627 84.7402C251.406 84.7402 255.03 86.2486 257.702 88.9336C260.375 91.6187 261.876 95.2603 261.876 99.0576C261.876 102.855 260.375 106.496 257.702 109.181C255.03 111.867 251.406 113.375 247.627 113.375C243.848 113.375 240.224 111.867 237.551 109.181C234.879 106.496 233.378 102.855 233.378 99.0576C233.378 95.2603 234.879 91.6187 237.551 88.9336Z" fill="white"/>
</g>
</g>
</svg>
