<svg width="273" height="423" viewBox="0 0 273 423" fill="none" xmlns="http://www.w3.org/2000/svg">
<g style="mix-blend-mode:soft-light" opacity="0.49">
<mask id="mask0_563_12491" style="mask-type:alpha" maskUnits="userSpaceOnUse" x="0" y="0" width="273" height="423">
<rect x="273" width="423" height="273" rx="5" transform="rotate(90 273 0)" fill="#604545"/>
</mask>
<g mask="url(#mask0_563_12491)">
<g filter="url(#filter0_d_563_12491)">
<path d="M-32.6005 -66.3032C24.507 -99.2743 97.5257 -79.709 130.497 -22.6014C163.468 34.5061 143.902 107.525 86.7949 140.496C29.6874 173.467 -43.3312 153.902 -76.3023 96.794C-109.273 39.6865 -89.708 -33.3321 -32.6005 -66.3032ZM-8.72141 -24.9434C-25.1754 -15.4437 -37.1817 0.203212 -42.0991 18.5552C-47.0165 36.9072 -44.4422 56.461 -34.9425 72.9149C-25.4428 89.3689 -9.79586 101.375 8.55615 106.293C26.9081 111.21 46.4619 108.636 62.9159 99.136C79.3698 89.6363 91.3761 73.9894 96.2935 55.6374C101.211 37.2854 98.6366 17.7316 89.1369 1.27766C79.6372 -15.1763 63.9903 -27.1826 45.6383 -32.1C27.2863 -37.0174 7.73253 -34.4431 -8.72141 -24.9434ZM1.72569 -6.84848C6.69386 -9.71708 12.3834 -11.0932 18.1134 -10.8121C23.8434 -10.531 29.3709 -8.60468 34.0345 -5.26362C38.6981 -1.92255 42.3 2.69166 44.4092 8.02671C46.5184 13.3618 47.0455 19.1916 45.9274 24.8185C54.4917 26.1605 62.1084 30.876 66.4962 38.4758C74.7345 52.745 68.4543 71.8118 52.4688 81.0411C36.4832 90.2703 16.8308 86.1757 8.59247 71.9066C4.20469 64.3067 3.92935 55.3527 7.04324 47.2545C1.61429 45.4072 -3.1676 42.0351 -6.7305 37.5416C-10.2934 33.0481 -12.4865 27.6234 -13.0474 21.9163C-13.6083 16.2092 -12.5134 10.4613 -9.89348 5.36009C-7.2736 0.258913 -3.23972 -3.9796 1.72569 -6.84848ZM31.5746 44.8513C23.7886 49.3465 21.0459 57.6579 24.1024 62.9519C27.1589 68.246 35.7281 70.0264 43.5141 65.5312C51.3001 61.0359 54.0428 52.7246 50.9863 47.4305C47.9297 42.1365 39.3605 40.356 31.5746 44.8513ZM10.6803 8.66144C7.93802 10.2447 5.93698 12.8525 5.11741 15.9112C4.29785 18.9699 4.72689 22.2288 6.31017 24.9712C7.89345 27.7135 10.5013 29.7145 13.5599 30.5341C16.6186 31.3537 19.8776 30.9246 22.6199 29.3413C25.3622 27.7581 27.3633 25.1502 28.1828 22.0916C29.0024 19.0329 28.5734 15.7739 26.9901 13.0316C25.4068 10.2893 22.799 8.28824 19.7403 7.46868C16.6816 6.6491 13.4227 7.07816 10.6803 8.66144Z" fill="white"/>
</g>
<g filter="url(#filter1_d_563_12491)">
<path d="M208.184 53.4478C253.574 27.2419 311.61 42.7927 337.816 88.1826C364.022 133.573 348.471 191.609 303.081 217.815C257.691 244.021 199.655 228.47 173.449 183.08C147.243 137.69 162.794 79.6537 208.184 53.4478ZM227.163 86.3212C214.085 93.8717 204.542 106.308 200.634 120.895C196.726 135.481 198.772 151.023 206.322 164.101C213.873 177.178 226.309 186.721 240.896 190.63C255.482 194.538 271.024 192.492 284.101 184.941C297.179 177.391 306.722 164.955 310.631 150.368C314.539 135.782 312.493 120.24 304.942 107.162C297.392 94.0843 284.955 84.5415 270.369 80.633C255.783 76.7246 240.241 78.7707 227.163 86.3212ZM235.467 100.703C239.415 98.4233 243.938 97.3296 248.492 97.553C253.046 97.7764 257.439 99.3075 261.146 101.963C264.853 104.619 267.716 108.286 269.392 112.526C271.069 116.767 271.487 121.4 270.599 125.873C277.406 126.939 283.46 130.687 286.947 136.728C293.495 148.069 288.504 163.224 275.798 170.559C263.092 177.895 247.472 174.64 240.924 163.299C237.437 157.259 237.218 150.142 239.693 143.705C235.378 142.237 231.577 139.557 228.745 135.985C225.914 132.414 224.171 128.102 223.725 123.566C223.279 119.03 224.149 114.461 226.231 110.407C228.314 106.352 231.52 102.984 235.467 100.703ZM259.191 141.795C253.002 145.368 250.823 151.974 253.252 156.182C255.681 160.39 262.492 161.805 268.681 158.232C274.869 154.659 277.049 148.053 274.62 143.845C272.19 139.637 265.379 138.222 259.191 141.795ZM242.584 113.031C240.404 114.289 238.814 116.362 238.162 118.793C237.511 121.224 237.852 123.814 239.11 125.994C240.369 128.174 242.442 129.764 244.873 130.416C247.304 131.067 249.894 130.726 252.074 129.468C254.253 128.209 255.844 126.136 256.495 123.705C257.147 121.274 256.806 118.684 255.547 116.504C254.289 114.325 252.216 112.734 249.785 112.083C247.354 111.431 244.764 111.772 242.584 113.031Z" fill="white"/>
</g>
<g filter="url(#filter2_d_563_12491)">
<path d="M16.5662 199.021C68.2429 169.185 134.317 186.89 164.153 238.566C193.989 290.243 176.284 356.317 124.607 386.153C72.9306 415.989 6.85602 398.284 -22.9795 346.607C-52.815 294.931 -35.1104 228.856 16.5662 199.021ZM38.1744 236.447C23.2853 245.043 12.4208 259.202 7.971 275.809C3.52124 292.416 5.85072 310.11 14.447 324.999C23.0433 339.888 37.2022 350.753 53.8089 355.203C70.4156 359.652 88.1099 357.323 102.999 348.727C117.888 340.13 128.753 325.971 133.203 309.365C137.652 292.758 135.323 275.064 126.726 260.174C118.13 245.285 103.971 234.421 87.3646 229.971C70.7579 225.521 53.0636 227.851 38.1744 236.447ZM47.628 252.821C52.1237 250.225 57.2722 248.98 62.4573 249.234C67.6423 249.489 72.6442 251.232 76.8643 254.255C81.0844 257.279 84.3438 261.454 86.2524 266.282C88.161 271.109 88.638 276.385 87.6262 281.477C95.376 282.691 102.268 286.958 106.239 293.835C113.694 306.747 108.011 324.001 93.5455 332.352C79.0801 340.704 61.2966 336.999 53.8418 324.087C49.8713 317.209 49.6221 309.107 52.4399 301.779C47.5272 300.107 43.2001 297.056 39.976 292.99C36.752 288.924 34.7675 284.015 34.2599 278.85C33.7523 273.686 34.7431 268.485 37.1139 263.869C39.4846 259.253 43.1348 255.417 47.628 252.821ZM74.6383 299.604C67.5927 303.672 65.1109 311.193 67.8767 315.984C70.6426 320.774 78.3968 322.385 85.4424 318.317C92.4879 314.25 94.9698 306.729 92.204 301.938C89.4381 297.148 81.6838 295.536 74.6383 299.604ZM55.7311 266.856C53.2496 268.289 51.4388 270.649 50.6972 273.416C49.9556 276.184 50.3438 279.133 51.7765 281.615C53.2093 284.096 55.5691 285.907 58.3369 286.649C61.1046 287.39 64.0537 287.002 66.5352 285.569C69.0167 284.137 70.8275 281.777 71.5691 279.009C72.3107 276.241 71.9225 273.292 70.4898 270.811C69.0571 268.329 66.6973 266.518 63.9295 265.777C61.1617 265.035 58.2126 265.423 55.7311 266.856Z" fill="white"/>
</g>
</g>
</g>
<defs>
<filter id="filter0_d_563_12491" x="-97.3189" y="-87.3203" width="248.832" height="248.832" filterUnits="userSpaceOnUse" color-interpolation-filters="sRGB">
<feFlood flood-opacity="0" result="BackgroundImageFix"/>
<feColorMatrix in="SourceAlpha" type="matrix" values="0 0 0 0 0 0 0 0 0 0 0 0 0 0 0 0 0 0 127 0" result="hardAlpha"/>
<feOffset/>
<feGaussianBlur stdDeviation="2.5"/>
<feComposite in2="hardAlpha" operator="out"/>
<feColorMatrix type="matrix" values="0 0 0 0 1 0 0 0 0 0 0 0 0 0 0 0 0 0 0.25 0"/>
<feBlend mode="normal" in2="BackgroundImageFix" result="effect1_dropShadow_563_12491"/>
<feBlend mode="normal" in="SourceGraphic" in2="effect1_dropShadow_563_12491" result="shape"/>
</filter>
<filter id="filter1_d_563_12491" x="155.718" y="35.7168" width="199.828" height="199.828" filterUnits="userSpaceOnUse" color-interpolation-filters="sRGB">
<feFlood flood-opacity="0" result="BackgroundImageFix"/>
<feColorMatrix in="SourceAlpha" type="matrix" values="0 0 0 0 0 0 0 0 0 0 0 0 0 0 0 0 0 0 127 0" result="hardAlpha"/>
<feOffset/>
<feGaussianBlur stdDeviation="2.5"/>
<feComposite in2="hardAlpha" operator="out"/>
<feColorMatrix type="matrix" values="0 0 0 0 1 0 0 0 0 0 0 0 0 0 0 0 0 0 0.25 0"/>
<feBlend mode="normal" in2="BackgroundImageFix" result="effect1_dropShadow_563_12491"/>
<feBlend mode="normal" in="SourceGraphic" in2="effect1_dropShadow_563_12491" result="shape"/>
</filter>
<filter id="filter2_d_563_12491" x="-42.473" y="179.527" width="226.119" height="226.119" filterUnits="userSpaceOnUse" color-interpolation-filters="sRGB">
<feFlood flood-opacity="0" result="BackgroundImageFix"/>
<feColorMatrix in="SourceAlpha" type="matrix" values="0 0 0 0 0 0 0 0 0 0 0 0 0 0 0 0 0 0 127 0" result="hardAlpha"/>
<feOffset/>
<feGaussianBlur stdDeviation="2.5"/>
<feComposite in2="hardAlpha" operator="out"/>
<feColorMatrix type="matrix" values="0 0 0 0 1 0 0 0 0 0 0 0 0 0 0 0 0 0 0.25 0"/>
<feBlend mode="normal" in2="BackgroundImageFix" result="effect1_dropShadow_563_12491"/>
<feBlend mode="normal" in="SourceGraphic" in2="effect1_dropShadow_563_12491" result="shape"/>
</filter>
</defs>
</svg>
