<svg width="21" height="21" viewBox="0 0 21 21" fill="none" xmlns="http://www.w3.org/2000/svg">
<path d="M10.5 19.25C5.66738 19.25 1.75 15.3326 1.75 10.5C1.75 5.66738 5.66738 1.75 10.5 1.75C15.3326 1.75 19.25 5.66738 19.25 10.5C19.25 15.3326 15.3326 19.25 10.5 19.25ZM9.625 13.125V14.875H11.375V13.125H9.625ZM11.375 11.6856C12.0782 11.4737 12.6819 11.0162 13.0761 10.3965C13.4704 9.77684 13.6289 9.03617 13.5229 8.30941C13.4169 7.58264 13.0533 6.91813 12.4985 6.4369C11.9437 5.95566 11.2345 5.68972 10.5 5.6875C9.792 5.68745 9.10583 5.93263 8.55819 6.38137C8.01056 6.8301 7.63526 7.45468 7.49613 8.14887L9.21288 8.49275C9.26159 8.249 9.37853 8.0241 9.55007 7.84421C9.72161 7.66433 9.94071 7.53685 10.1819 7.47662C10.423 7.41638 10.6763 7.42587 10.9123 7.50397C11.1483 7.58208 11.3572 7.72558 11.5149 7.9178C11.6725 8.11001 11.7722 8.34303 11.8026 8.58974C11.8329 8.83645 11.7926 9.0867 11.6863 9.31139C11.58 9.53607 11.412 9.72594 11.202 9.85891C10.992 9.99188 10.7486 10.0625 10.5 10.0625C10.2679 10.0625 10.0454 10.1547 9.88128 10.3188C9.71719 10.4829 9.625 10.7054 9.625 10.9375V12.25H11.375V11.6856Z" fill="#333333" fill-opacity="0.4"/>
</svg>
