<svg width="21" height="21" viewBox="0 0 21 21" fill="none" xmlns="http://www.w3.org/2000/svg">
<path d="M1.75 10.4997C1.75 9.74278 1.84625 9.00953 2.0265 8.30866C2.50991 8.33407 2.99093 8.22531 3.41639 7.99442C3.84184 7.76352 4.19517 7.41947 4.43731 7.00031C4.67944 6.58114 4.80096 6.10319 4.78842 5.61928C4.77588 5.13536 4.62977 4.66434 4.36625 4.25828C5.42407 3.21753 6.72944 2.46321 8.15938 2.06641C8.37899 2.49819 8.71381 2.86079 9.12676 3.11405C9.53971 3.36732 10.0147 3.50137 10.4991 3.50137C10.9836 3.50137 11.4585 3.36732 11.8715 3.11405C12.2844 2.86079 12.6193 2.49819 12.8389 2.06641C14.2688 2.46321 15.5742 3.21753 16.632 4.25828C16.3682 4.66442 16.2219 5.13562 16.2092 5.61975C16.1966 6.10388 16.3181 6.58208 16.5604 7.00142C16.8027 7.42076 17.1563 7.7649 17.582 7.99577C18.0077 8.22664 18.489 8.33523 18.9726 8.30953C19.1529 9.00953 19.2491 9.74278 19.2491 10.4997C19.2491 11.2565 19.1529 11.9898 18.9726 12.6907C18.4891 12.6651 18.008 12.7737 17.5824 13.0045C17.1568 13.2354 16.8034 13.5794 16.5611 13.9986C16.3189 14.4178 16.1973 14.8958 16.2098 15.3798C16.2223 15.8638 16.3684 16.3349 16.632 16.741C15.5742 17.7818 14.2688 18.5361 12.8389 18.9329C12.6193 18.5011 12.2844 18.1385 11.8715 17.8853C11.4585 17.632 10.9836 17.4979 10.4991 17.4979C10.0147 17.4979 9.53971 17.632 9.12676 17.8853C8.71381 18.1385 8.37899 18.5011 8.15938 18.9329C6.72944 18.5361 5.42407 17.7818 4.36625 16.741C4.63007 16.3349 4.77639 15.8637 4.78902 15.3796C4.80166 14.8954 4.68011 14.4172 4.43784 13.9979C4.19556 13.5786 3.842 13.2344 3.41627 13.0035C2.99054 12.7727 2.50924 12.6641 2.02563 12.6898C1.84625 11.9907 1.75 11.2574 1.75 10.4997ZM5.9535 13.1247C6.50475 14.0793 6.66225 15.1774 6.447 16.2082C6.804 16.4619 7.18375 16.6815 7.58188 16.8644C8.38396 16.1459 9.42315 15.7489 10.5 15.7497C11.6025 15.7497 12.6333 16.1618 13.4181 16.8644C13.8163 16.6815 14.196 16.4619 14.553 16.2082C14.332 15.1546 14.5077 14.0566 15.0465 13.1247C15.5843 12.1922 16.4474 11.4912 17.4703 11.1559C17.5107 10.7193 17.5107 10.28 17.4703 9.84341C16.4471 9.50833 15.5836 8.80725 15.0456 7.87466C14.5069 6.94272 14.3311 5.84469 14.5521 4.79116C14.1952 4.53734 13.8153 4.31762 13.4173 4.13491C12.6154 4.85322 11.5765 5.25019 10.5 5.24966C9.42315 5.2504 8.38396 4.85342 7.58188 4.13491C7.18386 4.31763 6.8039 4.53734 6.447 4.79116C6.66799 5.84469 6.49226 6.94272 5.9535 7.87466C5.4157 8.80708 4.55261 9.50815 3.52975 9.84341C3.48928 10.28 3.48928 10.7193 3.52975 11.1559C4.55294 11.491 5.41636 12.1921 5.95438 13.1247H5.9535ZM10.5 13.1247C9.80381 13.1247 9.13613 12.8481 8.64384 12.3558C8.15156 11.8635 7.875 11.1958 7.875 10.4997C7.875 9.80346 8.15156 9.13578 8.64384 8.6435C9.13613 8.15122 9.80381 7.87466 10.5 7.87466C11.1962 7.87466 11.8639 8.15122 12.3562 8.6435C12.8484 9.13578 13.125 9.80346 13.125 10.4997C13.125 11.1958 12.8484 11.8635 12.3562 12.3558C11.8639 12.8481 11.1962 13.1247 10.5 13.1247ZM10.5 11.3747C10.7321 11.3747 10.9546 11.2825 11.1187 11.1184C11.2828 10.9543 11.375 10.7317 11.375 10.4997C11.375 10.2676 11.2828 10.045 11.1187 9.88094C10.9546 9.71684 10.7321 9.62466 10.5 9.62466C10.2679 9.62466 10.0454 9.71684 9.88128 9.88094C9.71719 10.045 9.625 10.2676 9.625 10.4997C9.625 10.7317 9.71719 10.9543 9.88128 11.1184C10.0454 11.2825 10.2679 11.3747 10.5 11.3747V11.3747Z" fill="#333333" fill-opacity="0.4"/>
</svg>
