<?xml version="1.0" encoding="utf-8"?><svg width="223" height="160" viewBox="0 0 223 160" xmlns="http://www.w3.org/2000/svg" xmlns:xlink="http://www.w3.org/1999/xlink"><svg width="36" height="36" fill="none" viewBox="0 0 36 36" id="header-icon-bg-min1" x="143" y="72" xmlns="http://www.w3.org/2000/svg"><rect width="36" height="36" rx="3" fill="#F4B72F"/></svg><svg width="36" height="36" fill="none" viewBox="0 0 36 36" id="header-icon-bg-min2" x="179" y="72" xmlns="http://www.w3.org/2000/svg"><rect width="36" height="36" rx="3" fill="url(#bpaint0_linear_412_16796)"/><g opacity=".1"><mask id="ba" style="mask-type:alpha" maskUnits="userSpaceOnUse" x="0" y="0" width="36" height="36"><rect width="36" height="36" rx="3" fill="#F4B72F"/></mask><g mask="url(#ba)" fill="#333"><path d="M11.348 35.039l-3.89-6.74a1.406 1.406 0 01-.137-1.076c.1-.364.34-.675.67-.865l22.33-12.893c.33-.19.72-.243 1.085-.147.365.095.676.331.863.656l3.891 6.74a3.605 3.605 0 00-1.675 2.163c-.25.91-.127 1.878.342 2.69a3.515 3.515 0 002.16 1.642 3.604 3.604 0 002.71-.37l3.891 6.74c.188.325.237.712.137 1.076-.1.364-.341.675-.67.865l-22.33 12.893c-.33.19-.72.243-1.085.148a1.406 1.406 0 01-.864-.657l-3.89-6.739a3.604 3.604 0 001.674-2.163c.25-.91.127-1.879-.342-2.69a3.515 3.515 0 00-2.159-1.642 3.604 3.604 0 00-2.71.369zm11.704-14.11l-12.406 7.163 2.1 3.637a6.418 6.418 0 013.438.726 6.309 6.309 0 012.518 2.422 6.309 6.309 0 01.84 3.392 6.418 6.418 0 01-1.092 3.34l2.1 3.637 12.406-7.162-9.904-17.154zm2.481-1.432l9.904 17.154 4.963-2.865-2.1-3.637a6.42 6.42 0 01-3.439-.725A6.309 6.309 0 0132.344 27a6.309 6.309 0 01-.84-3.391 6.418 6.418 0 011.091-3.341l-2.1-3.637-4.962 2.865zm-29.935-9.208l-3.89-6.74a1.406 1.406 0 01-.137-1.076c.1-.364.34-.675.67-.865l22.33-12.893c.33-.19.72-.243 1.085-.147.365.095.676.331.863.656l3.891 6.74a3.604 3.604 0 00-1.675 2.163c-.25.91-.127 1.878.342 2.69a3.515 3.515 0 002.16 1.642 3.604 3.604 0 002.71-.37l3.891 6.74c.188.325.237.712.137 1.076-.1.364-.341.675-.67.865L4.975 23.663c-.33.19-.72.243-1.085.148a1.406 1.406 0 01-.864-.657l-3.89-6.739A3.604 3.604 0 00.81 14.252c.25-.91.127-1.879-.342-2.69A3.515 3.515 0 00-1.69 9.92a3.604 3.604 0 00-2.71.369zM7.302-3.821L-5.104 3.343l2.1 3.637a6.418 6.418 0 013.438.726 6.309 6.309 0 012.518 2.422 6.309 6.309 0 01.84 3.392A6.418 6.418 0 012.7 16.86l2.1 3.637 12.406-7.162L7.302-3.82zm2.481-1.432l9.904 17.154 4.962-2.865-2.1-3.637a6.419 6.419 0 01-3.438-.725 6.309 6.309 0 01-2.517-2.423 6.309 6.309 0 01-.84-3.391 6.418 6.418 0 011.091-3.341l-2.1-3.637-4.962 2.865z"/></g></g><defs><linearGradient id="bpaint0_linear_412_16796" x1="0" y1="0" x2="36" y2="36" gradientUnits="userSpaceOnUse"><stop stop-color="#076DE3"/><stop offset="1" stop-color="#AD4CD1"/></linearGradient></defs></svg><svg width="108" height="44" fill="none" viewBox="0 0 108 44" id="header-icon-bg1" y="116" xmlns="http://www.w3.org/2000/svg"><rect width="108" height="44" rx="3" fill="#F4B72F"/><g opacity=".15"><mask id="ca" style="mask-type:alpha" maskUnits="userSpaceOnUse" x="0" y="0" width="108" height="44"><rect width="108" height="44" rx="3" fill="#F4B72F"/></mask><g mask="url(#ca)" fill="red"><path d="M22.985 17.71c8.276-4.693 18.858-1.908 23.636 6.219 4.778 8.127 1.943 18.518-6.333 23.21s-18.858 1.908-23.637-6.22c-4.778-8.126-1.942-18.517 6.334-23.21zm3.46 5.885a10.221 10.221 0 00-4.837 6.19 10.034 10.034 0 001.037 7.737 10.36 10.36 0 006.304 4.75c2.66.7 5.494.333 7.878-1.019a10.221 10.221 0 004.837-6.19 10.03 10.03 0 00-1.037-7.736 10.36 10.36 0 00-6.304-4.75c-2.66-.7-5.493-.334-7.878 1.018zm1.514 2.576a4.39 4.39 0 014.683.225 4.26 4.26 0 011.503 1.891c.306.76.382 1.59.22 2.39 1.241.191 2.345.862 2.98 1.944 1.195 2.03.285 4.744-2.032 6.057-2.317 1.313-5.165.73-6.359-1.3-.635-1.081-.675-2.356-.224-3.508a4.326 4.326 0 01-1.996-1.382 4.182 4.182 0 01-.458-4.58c.38-.726.964-1.33 1.683-1.738zm4.326 7.357c-1.128.64-1.526 1.822-1.083 2.576.443.753 1.685 1.007 2.813.367 1.129-.64 1.526-1.823 1.083-2.576-.443-.754-1.685-1.007-2.813-.367zm-3.028-5.15a1.704 1.704 0 00-.806 1.031c-.119.436-.057.9.173 1.29.23.39.607.675 1.05.791.444.117.916.056 1.313-.17.398-.225.688-.596.807-1.031a1.672 1.672 0 00-.173-1.29 1.726 1.726 0 00-1.051-.791 1.758 1.758 0 00-1.313.17zM79.01 11.47c-7.737-13.163-3.145-29.994 10.26-37.593 13.404-7.6 30.544-3.09 38.283 10.073 7.739 13.163 3.146 29.993-10.258 37.593-13.405 7.6-30.544 3.09-38.283-10.073zm9.71-5.504c2.229 3.792 5.902 6.56 10.21 7.693a17.086 17.086 0 0012.759-1.65c3.862-2.19 6.68-5.796 7.834-10.026 1.155-4.23.55-8.737-1.679-12.53-2.23-3.792-5.903-6.56-10.211-7.693a17.085 17.085 0 00-12.76 1.65c-3.861 2.19-6.68 5.796-7.834 10.026a16.252 16.252 0 001.68 12.53zm4.246-2.408a6.782 6.782 0 01.372-7.447 6.989 6.989 0 013.12-2.392 7.125 7.125 0 013.941-.35c.315-1.974 1.422-3.73 3.206-4.74 3.349-1.9 7.825-.452 9.991 3.233 2.167 3.684 1.205 8.214-2.144 10.113-1.784 1.011-3.885 1.075-5.786.357a6.884 6.884 0 01-2.28 3.175 7.117 7.117 0 01-7.554.729 6.954 6.954 0 01-2.866-2.678zm12.136-6.88c1.055 1.794 3.006 2.427 4.248 1.722 1.243-.704 1.661-2.68.606-4.474-1.055-1.795-3.006-2.427-4.249-1.723-1.243.705-1.661 2.68-.605 4.475zm-8.495 4.816a2.796 2.796 0 001.702 1.282c.718.189 1.483.09 2.126-.275A2.757 2.757 0 00101.741.83a2.709 2.709 0 00-.28-2.088 2.798 2.798 0 00-1.702-1.283 2.848 2.848 0 00-2.126.275 2.76 2.76 0 00-1.306 1.671 2.708 2.708 0 00.28 2.089zM10.276-5.588a12.236 12.236 0 010 17.527c-4.929 4.84-12.92 4.84-17.849 0a12.236 12.236 0 010-17.527c4.93-4.84 12.92-4.84 17.849 0zm-3.57 3.505A7.644 7.644 0 001.352-4.26a7.644 7.644 0 00-5.355 2.178 7.369 7.369 0 00-2.218 5.259 7.37 7.37 0 002.218 5.258 7.644 7.644 0 005.355 2.178 7.644 7.644 0 005.354-2.178 7.369 7.369 0 002.218-5.258 7.369 7.369 0 00-2.218-5.259zM5.144-.549c.43.421.725.955.853 1.537a3.046 3.046 0 01-.13 1.745A3.105 3.105 0 014.793 4.13a3.191 3.191 0 01-1.673.604c.098.894-.175 1.785-.831 2.429-1.232 1.21-3.35 1.092-4.73-.263-1.38-1.355-1.5-3.435-.268-4.645.656-.644 1.563-.912 2.475-.817C-.194.844.019.274.38-.204a3.15 3.15 0 011.422-1.053 3.21 3.21 0 011.777-.129 3.172 3.172 0 011.564.837zM.682 3.833C.01 3.173-.913 3.12-1.37 3.57c-.457.449-.405 1.356.267 2.016.672.66 1.596.711 2.053.262.457-.448.404-1.355-.268-2.015zM3.806.766a1.274 1.274 0 00-.893-.363c-.334 0-.655.13-.892.363a1.225 1.225 0 000 1.752 1.274 1.274 0 001.785 0 1.23 1.23 0 00.37-.876 1.23 1.23 0 00-.37-.876z"/></g></g><rect x="1" y="1" width="106" height="42" rx="2" stroke="url(#cpaint0_linear_409_10058)" stroke-width="2"/><defs><linearGradient id="cpaint0_linear_409_10058" x1="-103.5" y1="-38.042" x2="-31.425" y2="128.172" gradientUnits="userSpaceOnUse"><stop stop-color="#fff" stop-opacity="0"/><stop offset="1" stop-color="#fff"/></linearGradient></defs></svg><svg width="143" height="44" fill="none" viewBox="0 0 143 44" id="header-icon-bg2" y="72" xmlns="http://www.w3.org/2000/svg"><rect width="143" height="44" rx="3" fill="url(#dpaint0_linear_409_10069)"/><g opacity=".1"><mask id="da" style="mask-type:alpha" maskUnits="userSpaceOnUse" x="0" y="0" width="143" height="44"><rect width="143" height="44" rx="3" fill="#F4B72F"/></mask><g mask="url(#da)" fill="#333"><path d="M11.348 40.541l-3.89-6.617c-.188-.32-.237-.7-.137-1.057.1-.357.34-.663.67-.85l22.33-12.66c.33-.187.72-.239 1.085-.145s.676.326.863.645l3.891 6.617a3.55 3.55 0 00-1.675 2.125 3.397 3.397 0 00.342 2.642 3.508 3.508 0 002.16 1.612 3.662 3.662 0 002.71-.363l3.891 6.618c.188.32.237.7.137 1.057a1.42 1.42 0 01-.67.85l-22.33 12.66c-.33.187-.72.239-1.085.145a1.404 1.404 0 01-.864-.645l-3.89-6.617a3.55 3.55 0 001.674-2.125 3.397 3.397 0 00-.342-2.642 3.508 3.508 0 00-2.159-1.612 3.662 3.662 0 00-2.71.362zm11.704-13.854L10.646 33.72l2.1 3.572a6.517 6.517 0 013.438.712 6.259 6.259 0 012.518 2.38 6.107 6.107 0 01.84 3.33 6.226 6.226 0 01-1.092 3.28l2.1 3.571 12.406-7.033-9.904-16.845zm2.481-1.407l9.904 16.845 4.963-2.813-2.1-3.572a6.517 6.517 0 01-3.439-.712 6.26 6.26 0 01-2.517-2.38 6.107 6.107 0 01-.84-3.33 6.225 6.225 0 011.091-3.28l-2.1-3.571-4.962 2.813zM127.454-2.683l8.824-5.003a1.886 1.886 0 012.543.686l16.883 28.715a1.81 1.81 0 01-.667 2.505l-8.825 5.003a4.708 4.708 0 00-6.356-1.714 4.528 4.528 0 00-2.149 2.776 4.559 4.559 0 00.483 3.486l-8.825 5.003a1.88 1.88 0 01-2.542-.686L109.94 9.375a1.813 1.813 0 01.666-2.505l8.825-5.004a4.709 4.709 0 006.356 1.714 4.533 4.533 0 002.15-2.776 4.568 4.568 0 00-.483-3.486zm18.475 15.05L136.55-3.586l-4.762 2.7a8.127 8.127 0 01-.951 4.422 8.177 8.177 0 01-3.172 3.237 8.385 8.385 0 01-4.441 1.08 8.51 8.51 0 01-4.375-1.403l-4.762 2.7 9.379 15.952 22.463-12.735zm1.876 3.19l-22.463 12.736 3.752 6.38 4.762-2.699a8.135 8.135 0 014.123-7.659 8.38 8.38 0 014.441-1.08 8.513 8.513 0 014.375 1.404l4.762-2.7-3.752-6.382zm-152.207.68l-3.89-6.618a1.358 1.358 0 01-.138-1.057c.1-.357.34-.663.67-.85l22.33-12.66c.33-.186.72-.238 1.085-.145.365.094.676.326.863.645L20.41 2.17a3.55 3.55 0 00-1.675 2.124 3.397 3.397 0 00.342 2.642 3.508 3.508 0 002.16 1.612 3.662 3.662 0 002.71-.362l3.891 6.617c.188.32.237.7.137 1.057a1.42 1.42 0 01-.67.85L4.975 29.37c-.33.187-.72.239-1.085.145a1.404 1.404 0 01-.864-.645l-3.89-6.617A3.55 3.55 0 00.81 20.128a3.397 3.397 0 00-.342-2.642 3.508 3.508 0 00-2.159-1.612 3.662 3.662 0 00-2.71.363zM7.302 2.382L-5.104 9.416l2.1 3.57a6.518 6.518 0 013.438.713 6.26 6.26 0 012.518 2.38 6.107 6.107 0 01.84 3.33 6.226 6.226 0 01-1.092 3.28l2.1 3.572 12.406-7.034L7.302 2.382zM9.783.975l9.904 16.845 4.962-2.813-2.1-3.571a6.517 6.517 0 01-3.438-.713 6.26 6.26 0 01-2.517-2.379 6.107 6.107 0 01-.84-3.33 6.225 6.225 0 011.091-3.28l-2.1-3.572L9.784.975z"/></g></g><rect x="1" y="1" width="141" height="42" rx="2" stroke="url(#dpaint1_linear_409_10069)" stroke-width="2"/><defs><linearGradient id="dpaint0_linear_409_10069" x1="0" y1="0" x2="24.735" y2="80.389" gradientUnits="userSpaceOnUse"><stop stop-color="#076DE3"/><stop offset="1" stop-color="#AD4CD1"/></linearGradient><linearGradient id="dpaint1_linear_409_10069" x1="-137.042" y1="-38.042" x2="-78.636" y2="140.298" gradientUnits="userSpaceOnUse"><stop stop-color="#fff" stop-opacity="0"/><stop offset="1" stop-color="#fff"/></linearGradient></defs></svg><svg width="29" height="29" fill="none" viewBox="0 0 29 29" id="header-icon1" x="138" y="116" xmlns="http://www.w3.org/2000/svg"><g filter="url(#efilter0_d_409_10044)"><path d="M10.497 6.207a9 9 0 11-3.294 12.294 9 9 0 013.294-12.294zm1.8 3.118a5.4 5.4 0 105.4 9.353 5.4 5.4 0 00-5.4-9.353zm.788 1.364a2.25 2.25 0 013.332 2.387c.645.1 1.22.456 1.55 1.03.621 1.075.148 2.512-1.057 3.208-1.205.695-2.687.387-3.308-.689-.33-.573-.351-1.248-.116-1.858a2.251 2.251 0 01-.401-4.078zm2.25 3.897c-.587.339-.794.965-.563 1.364.23.4.876.534 1.463.195.587-.34.794-.966.563-1.365-.23-.399-.876-.533-1.463-.194zm-1.575-2.728a.9.9 0 10.9 1.559.9.9 0 00-.9-1.56z" fill="#fff"/></g><defs><filter id="efilter0_d_409_10044" x=".992" y="0" width="28.008" height="28.002" filterUnits="userSpaceOnUse" color-interpolation-filters="sRGB"><feFlood flood-opacity="0" result="BackgroundImageFix"/><feColorMatrix in="SourceAlpha" values="0 0 0 0 0 0 0 0 0 0 0 0 0 0 0 0 0 0 127 0" result="hardAlpha"/><feOffset/><feGaussianBlur stdDeviation="2.5"/><feComposite in2="hardAlpha" operator="out"/><feColorMatrix values="0 0 0 0 1 0 0 0 0 0 0 0 0 0 0 0 0 0 0.25 0"/><feBlend in2="BackgroundImageFix" result="effect1_dropShadow_409_10044"/><feBlend in="SourceGraphic" in2="effect1_dropShadow_409_10044" result="shape"/></filter></defs></svg><svg width="30" height="29" fill="none" viewBox="0 0 30 29" id="header-icon2" x="108" y="116" xmlns="http://www.w3.org/2000/svg"><g filter="url(#ffilter0_d_409_10055)"><path d="M7.688 16.722l-2.063-3.573a.75.75 0 01.275-1.024l11.69-6.75a.75.75 0 011.025.275l2.063 3.572a1.875 1.875 0 101.875 3.248l2.062 3.572a.75.75 0 01-.274 1.024l-11.692 6.75a.75.75 0 01-1.024-.274l-2.063-3.573a1.875 1.875 0 00-1.874-3.247zm6.106-7.423L7.3 13.049l1.113 1.928a3.374 3.374 0 013.024 5.238l1.113 1.927 6.495-3.75-5.25-9.093zm1.3-.75l5.25 9.093 2.597-1.5-1.113-1.928a3.375 3.375 0 01-3.024-5.237l-1.113-1.928-2.598 1.5z" fill="#fff"/></g><defs><filter id="ffilter0_d_409_10055" x=".523" y=".275" width="29.195" height="28.641" filterUnits="userSpaceOnUse" color-interpolation-filters="sRGB"><feFlood flood-opacity="0" result="BackgroundImageFix"/><feColorMatrix in="SourceAlpha" values="0 0 0 0 0 0 0 0 0 0 0 0 0 0 0 0 0 0 127 0" result="hardAlpha"/><feOffset/><feGaussianBlur stdDeviation="2.5"/><feComposite in2="hardAlpha" operator="out"/><feColorMatrix values="0 0 0 0 1 0 0 0 0 0 0 0 0 0 0 0 0 0 0.25 0"/><feBlend in2="BackgroundImageFix" result="effect1_dropShadow_409_10055"/><feBlend in="SourceGraphic" in2="effect1_dropShadow_409_10055" result="shape"/></filter></defs></svg><svg width="223" height="36" fill="none" viewBox="0 0 223 36" id="logo-black" xmlns="http://www.w3.org/2000/svg"><path d="M59 11.107v13.787h15.531v-2.76h-12.94V11.107H59zm30.384 8.268c0 .76-.25 1.409-.752 1.95-.507.54-1.117.81-1.83.81h-7.77V11.106h-2.59v13.787h10.36c1.426 0 2.645-.54 3.66-1.621 1.008-1.074 1.512-2.373 1.512-3.898v-8.268h-2.59v8.268zm4.501-8.268v13.787h15.531v-4.14h-2.59v1.38H96.475v-8.277h10.351v1.38h2.59v-4.13H93.885zm28.31 0l-8.278 6.127v-6.127h-2.59v13.787h2.59V20.59l3.577-2.643 5.76 6.946h3.451l-7.073-8.538 7.091-5.249h-4.528zm18.683 0l-4.483 6.204h-.018l-4.483-6.204h-3.269l6.466 8.944v4.843h2.59V20.05l6.457-8.944h-3.26zm9.771 0v13.787h15.532v-4.14h-2.59v1.38H153.24v-8.277h10.351v1.38h2.59v-4.13h-15.532zm30.384 0v5.51h-10.351v-5.51h-2.59v13.787h2.59v-5.519h10.351v5.519h2.59V11.107h-2.59zm7.091 6.889v-4.139h7.771c.712 0 1.322.27 1.829.81.501.54.752 1.19.752 1.95v1.379h-10.352zm-2.59-6.889v13.787h2.59v-4.14h10.352v4.14h2.59v-8.278c0-1.518-.504-2.817-1.513-3.897-1.014-1.074-2.234-1.612-3.658-1.612h-10.361zm17.443 13.787h2.59V11.107h-2.59v13.787zm17.433-13.787v10.458l-9.817-10.458h-3.124v13.787h2.59V14.436l9.817 10.458H223V11.107h-2.59z" fill="#333"/><path fill-rule="evenodd" clip-rule="evenodd" d="M17.742 3.764a2.26 2.26 0 00-3.47-.023L3.481 16.529a2.234 2.234 0 00-.002 2.882l10.812 12.846a2.26 2.26 0 003.463-.011l10.68-12.848c.69-.83.69-2.03 0-2.859l-3.12-3.751a1.465 1.465 0 01.195-2.07 1.482 1.482 0 012.08.195l3.12 3.752a5.163 5.163 0 01.001 6.607L20.031 34.12c-2.074 2.496-5.914 2.507-8.004.025L1.215 21.299a5.163 5.163 0 01.004-6.66L12.01 1.85c2.1-2.489 5.956-2.463 8.022.054l2.134 2.601a1.465 1.465 0 01-.21 2.069 1.482 1.482 0 01-2.078-.209l-2.135-2.6z" fill="#333"/><path fill-rule="evenodd" clip-rule="evenodd" d="M29.74 32.236a2.269 2.269 0 003.479.023l10.814-12.788a2.23 2.23 0 00.002-2.882L33.198 3.743a2.269 2.269 0 00-3.471.011L19.022 16.602a2.23 2.23 0 000 2.859l3.128 3.751a1.463 1.463 0 01-.196 2.07c-.63.518-1.564.43-2.085-.195l-3.128-3.752a5.154 5.154 0 010-6.607L27.445 1.88c2.08-2.496 5.93-2.507 8.024-.024L46.305 14.7a5.154 5.154 0 01-.004 6.66L35.487 34.15c-2.105 2.489-5.97 2.462-8.04-.054l-2.14-2.601a1.463 1.463 0 01.21-2.069 1.488 1.488 0 012.084.209l2.139 2.6z" fill="#FFAD08"/><path fill-rule="evenodd" clip-rule="evenodd" d="M29.74 32.236a2.269 2.269 0 003.479.023l10.814-12.788a2.23 2.23 0 00.002-2.882L33.198 3.743a2.269 2.269 0 00-3.471.011L19.022 16.602a2.23 2.23 0 000 2.859l3.128 3.751a1.463 1.463 0 01-.196 2.07c-.63.518-1.564.43-2.085-.195l-3.128-3.752a5.154 5.154 0 010-6.607L27.445 1.88c2.08-2.496 5.93-2.507 8.024-.024L46.305 14.7a5.154 5.154 0 01-.004 6.66L35.487 34.15c-2.105 2.489-5.97 2.462-8.04-.054l-2.14-2.601a1.463 1.463 0 01.21-2.069 1.488 1.488 0 012.084.209l2.139 2.6z" fill="url(#gpaint0_linear_409_2558)" fill-opacity=".38"/><defs><linearGradient id="gpaint0_linear_409_2558" x1="15.543" y1=".001" x2="51.291" y2="31.759" gradientUnits="userSpaceOnUse"><stop stop-color="#fff" stop-opacity="0"/><stop offset="1" stop-color="#fff"/></linearGradient></defs></svg><svg width="223" height="36" fill="none" viewBox="0 0 223 36" id="logo-white" y="36" xmlns="http://www.w3.org/2000/svg"><path d="M59 11.107v13.787h15.531v-2.76h-12.94V11.107H59zm30.384 8.268c0 .76-.25 1.409-.752 1.95-.507.54-1.117.81-1.83.81h-7.77V11.106h-2.59v13.787h10.36c1.426 0 2.645-.54 3.66-1.621 1.008-1.074 1.512-2.373 1.512-3.898v-8.268h-2.59v8.268zm4.501-8.268v13.787h15.531v-4.14h-2.59v1.38H96.475v-8.277h10.351v1.38h2.59v-4.13H93.885zm28.31 0l-8.278 6.127v-6.127h-2.59v13.787h2.59V20.59l3.577-2.643 5.76 6.946h3.451l-7.073-8.538 7.091-5.249h-4.528zm18.683 0l-4.483 6.204h-.018l-4.483-6.204h-3.269l6.466 8.944v4.843h2.59V20.05l6.457-8.944h-3.26zm9.771 0v13.787h15.532v-4.14h-2.59v1.38H153.24v-8.277h10.351v1.38h2.59v-4.13h-15.532zm30.384 0v5.51h-10.351v-5.51h-2.59v13.787h2.59v-5.519h10.351v5.519h2.59V11.107h-2.59zm7.091 6.889v-4.139h7.771c.712 0 1.322.27 1.829.81.501.54.752 1.19.752 1.95v1.379h-10.352zm-2.59-6.889v13.787h2.59v-4.14h10.352v4.14h2.59v-8.278c0-1.518-.504-2.817-1.513-3.897-1.014-1.074-2.234-1.612-3.658-1.612h-10.361zm17.443 13.787h2.59V11.107h-2.59v13.787zm17.433-13.787v10.458l-9.817-10.458h-3.124v13.787h2.59V14.436l9.817 10.458H223V11.107h-2.59z" fill="#fff"/><path fill-rule="evenodd" clip-rule="evenodd" d="M17.742 3.764a2.26 2.26 0 00-3.47-.023L3.481 16.529a2.234 2.234 0 00-.002 2.882l10.812 12.846a2.26 2.26 0 003.463-.011l10.68-12.848c.69-.83.69-2.03 0-2.859l-3.12-3.751a1.465 1.465 0 01.195-2.07 1.482 1.482 0 012.08.195l3.12 3.752a5.163 5.163 0 01.001 6.607L20.031 34.12c-2.074 2.496-5.914 2.507-8.004.025L1.215 21.299a5.163 5.163 0 01.004-6.66L12.01 1.85c2.1-2.489 5.956-2.463 8.022.054l2.134 2.601a1.465 1.465 0 01-.21 2.069 1.482 1.482 0 01-2.078-.209l-2.135-2.6z" fill="#fff"/><path fill-rule="evenodd" clip-rule="evenodd" d="M29.74 32.236a2.269 2.269 0 003.479.023l10.814-12.788a2.23 2.23 0 00.002-2.882L33.198 3.743a2.269 2.269 0 00-3.471.011L19.022 16.602a2.23 2.23 0 000 2.859l3.128 3.751a1.463 1.463 0 01-.196 2.07c-.63.518-1.564.43-2.085-.195l-3.128-3.752a5.154 5.154 0 010-6.607L27.445 1.88c2.08-2.496 5.93-2.507 8.024-.024L46.305 14.7a5.154 5.154 0 01-.004 6.66L35.487 34.15c-2.105 2.489-5.97 2.462-8.04-.054l-2.14-2.601a1.463 1.463 0 01.21-2.069 1.488 1.488 0 012.084.209l2.139 2.6z" fill="#FFAD08"/><path fill-rule="evenodd" clip-rule="evenodd" d="M29.74 32.236a2.269 2.269 0 003.479.023l10.814-12.788a2.23 2.23 0 00.002-2.882L33.198 3.743a2.269 2.269 0 00-3.471.011L19.022 16.602a2.23 2.23 0 000 2.859l3.128 3.751a1.463 1.463 0 01-.196 2.07c-.63.518-1.564.43-2.085-.195l-3.128-3.752a5.154 5.154 0 010-6.607L27.445 1.88c2.08-2.496 5.93-2.507 8.024-.024L46.305 14.7a5.154 5.154 0 01-.004 6.66L35.487 34.15c-2.105 2.489-5.97 2.462-8.04-.054l-2.14-2.601a1.463 1.463 0 01.21-2.069 1.488 1.488 0 012.084.209l2.139 2.6z" fill="url(#hpaint0_linear_410_12808)" fill-opacity=".38"/><defs><linearGradient id="hpaint0_linear_410_12808" x1="15.543" y1=".001" x2="51.291" y2="31.759" gradientUnits="userSpaceOnUse"><stop stop-color="#fff" stop-opacity="0"/><stop offset="1" stop-color="#fff"/></linearGradient></defs></svg><svg viewBox="0 0 0 0" width="0" height="0" id="svg" x="223" xmlns="http://www.w3.org/2000/svg"><svg><use xmlns:xlink="http://www.w3.org/1999/xlink" xlink:href="assets/images/svg/svg.svg#quest"/></svg></svg></svg>