<?xml version="1.0" encoding="utf-8"?><svg width="223" height="101" viewBox="0 0 223 101" xmlns="http://www.w3.org/2000/svg" xmlns:xlink="http://www.w3.org/1999/xlink"><svg width="8" height="5" fill="none" viewBox="0 0 8 5" id="arrow" x="118" y="72" xmlns="http://www.w3.org/2000/svg"><path d="M4 4.5l-4-4h8l-4 4z" fill="#333"/></svg><svg width="29" height="29" fill="none" viewBox="0 0 29 29" id="header-icon1" x="30" y="72" xmlns="http://www.w3.org/2000/svg"><g filter="url(#bfilter0_d_409_10044)"><path d="M10.497 6.207a9 9 0 11-3.294 12.294 9 9 0 013.294-12.294zm1.8 3.118a5.4 5.4 0 105.4 9.353 5.4 5.4 0 00-5.4-9.353zm.788 1.364a2.25 2.25 0 013.332 2.387c.645.1 1.22.456 1.55 1.03.621 1.075.148 2.512-1.057 3.208-1.205.695-2.687.387-3.308-.689-.33-.573-.351-1.248-.116-1.858a2.251 2.251 0 01-.401-4.078zm2.25 3.897c-.587.339-.794.965-.563 1.364.23.4.876.534 1.463.195.587-.34.794-.966.563-1.365-.23-.399-.876-.533-1.463-.194zm-1.575-2.728a.9.9 0 10.9 1.559.9.9 0 00-.9-1.56z" fill="#fff"/></g><defs><filter id="bfilter0_d_409_10044" x=".992" y="0" width="28.008" height="28.002" filterUnits="userSpaceOnUse" color-interpolation-filters="sRGB"><feFlood flood-opacity="0" result="BackgroundImageFix"/><feColorMatrix in="SourceAlpha" values="0 0 0 0 0 0 0 0 0 0 0 0 0 0 0 0 0 0 127 0" result="hardAlpha"/><feOffset/><feGaussianBlur stdDeviation="2.5"/><feComposite in2="hardAlpha" operator="out"/><feColorMatrix values="0 0 0 0 1 0 0 0 0 0 0 0 0 0 0 0 0 0 0.25 0"/><feBlend in2="BackgroundImageFix" result="effect1_dropShadow_409_10044"/><feBlend in="SourceGraphic" in2="effect1_dropShadow_409_10044" result="shape"/></filter></defs></svg><svg width="30" height="29" fill="none" viewBox="0 0 30 29" id="header-icon2" y="72" xmlns="http://www.w3.org/2000/svg"><g filter="url(#cfilter0_d_409_10055)"><path d="M7.688 16.722l-2.063-3.573a.75.75 0 01.275-1.024l11.69-6.75a.75.75 0 011.025.275l2.063 3.572a1.875 1.875 0 101.875 3.248l2.062 3.572a.75.75 0 01-.274 1.024l-11.692 6.75a.75.75 0 01-1.024-.274l-2.063-3.573a1.875 1.875 0 00-1.874-3.247zm6.106-7.423L7.3 13.049l1.113 1.928a3.374 3.374 0 013.024 5.238l1.113 1.927 6.495-3.75-5.25-9.093zm1.3-.75l5.25 9.093 2.597-1.5-1.113-1.928a3.375 3.375 0 01-3.024-5.237l-1.113-1.928-2.598 1.5z" fill="#fff"/></g><defs><filter id="cfilter0_d_409_10055" x=".523" y=".275" width="29.195" height="28.641" filterUnits="userSpaceOnUse" color-interpolation-filters="sRGB"><feFlood flood-opacity="0" result="BackgroundImageFix"/><feColorMatrix in="SourceAlpha" values="0 0 0 0 0 0 0 0 0 0 0 0 0 0 0 0 0 0 127 0" result="hardAlpha"/><feOffset/><feGaussianBlur stdDeviation="2.5"/><feComposite in2="hardAlpha" operator="out"/><feColorMatrix values="0 0 0 0 1 0 0 0 0 0 0 0 0 0 0 0 0 0 0.25 0"/><feBlend in2="BackgroundImageFix" result="effect1_dropShadow_409_10055"/><feBlend in="SourceGraphic" in2="effect1_dropShadow_409_10055" result="shape"/></filter></defs></svg><svg width="223" height="36" fill="none" viewBox="0 0 223 36" id="logo-black" xmlns="http://www.w3.org/2000/svg"><path d="M59 11.107v13.787h15.531v-2.76h-12.94V11.107H59zm30.384 8.268c0 .76-.25 1.409-.752 1.95-.507.54-1.117.81-1.83.81h-7.77V11.106h-2.59v13.787h10.36c1.426 0 2.645-.54 3.66-1.621 1.008-1.074 1.512-2.373 1.512-3.898v-8.268h-2.59v8.268zm4.501-8.268v13.787h15.531v-4.14h-2.59v1.38H96.475v-8.277h10.351v1.38h2.59v-4.13H93.885zm28.31 0l-8.278 6.127v-6.127h-2.59v13.787h2.59V20.59l3.577-2.643 5.76 6.946h3.451l-7.073-8.538 7.091-5.249h-4.528zm18.683 0l-4.483 6.204h-.018l-4.483-6.204h-3.269l6.466 8.944v4.843h2.59V20.05l6.457-8.944h-3.26zm9.771 0v13.787h15.532v-4.14h-2.59v1.38H153.24v-8.277h10.351v1.38h2.59v-4.13h-15.532zm30.384 0v5.51h-10.351v-5.51h-2.59v13.787h2.59v-5.519h10.351v5.519h2.59V11.107h-2.59zm7.091 6.889v-4.139h7.771c.712 0 1.322.27 1.829.81.501.54.752 1.19.752 1.95v1.379h-10.352zm-2.59-6.889v13.787h2.59v-4.14h10.352v4.14h2.59v-8.278c0-1.518-.504-2.817-1.513-3.897-1.014-1.074-2.234-1.612-3.658-1.612h-10.361zm17.443 13.787h2.59V11.107h-2.59v13.787zm17.433-13.787v10.458l-9.817-10.458h-3.124v13.787h2.59V14.436l9.817 10.458H223V11.107h-2.59z" fill="#333"/><path fill-rule="evenodd" clip-rule="evenodd" d="M17.742 3.764a2.26 2.26 0 00-3.47-.023L3.481 16.529a2.234 2.234 0 00-.002 2.882l10.812 12.846a2.26 2.26 0 003.463-.011l10.68-12.848c.69-.83.69-2.03 0-2.859l-3.12-3.751a1.465 1.465 0 01.195-2.07 1.482 1.482 0 012.08.195l3.12 3.752a5.163 5.163 0 01.001 6.607L20.031 34.12c-2.074 2.496-5.914 2.507-8.004.025L1.215 21.299a5.163 5.163 0 01.004-6.66L12.01 1.85c2.1-2.489 5.956-2.463 8.022.054l2.134 2.601a1.465 1.465 0 01-.21 2.069 1.482 1.482 0 01-2.078-.209l-2.135-2.6z" fill="#333"/><path fill-rule="evenodd" clip-rule="evenodd" d="M29.74 32.236a2.269 2.269 0 003.479.023l10.814-12.788a2.23 2.23 0 00.002-2.882L33.198 3.743a2.269 2.269 0 00-3.471.011L19.022 16.602a2.23 2.23 0 000 2.859l3.128 3.751a1.463 1.463 0 01-.196 2.07c-.63.518-1.564.43-2.085-.195l-3.128-3.752a5.154 5.154 0 010-6.607L27.445 1.88c2.08-2.496 5.93-2.507 8.024-.024L46.305 14.7a5.154 5.154 0 01-.004 6.66L35.487 34.15c-2.105 2.489-5.97 2.462-8.04-.054l-2.14-2.601a1.463 1.463 0 01.21-2.069 1.488 1.488 0 012.084.209l2.139 2.6z" fill="#FFAD08"/><path fill-rule="evenodd" clip-rule="evenodd" d="M29.74 32.236a2.269 2.269 0 003.479.023l10.814-12.788a2.23 2.23 0 00.002-2.882L33.198 3.743a2.269 2.269 0 00-3.471.011L19.022 16.602a2.23 2.23 0 000 2.859l3.128 3.751a1.463 1.463 0 01-.196 2.07c-.63.518-1.564.43-2.085-.195l-3.128-3.752a5.154 5.154 0 010-6.607L27.445 1.88c2.08-2.496 5.93-2.507 8.024-.024L46.305 14.7a5.154 5.154 0 01-.004 6.66L35.487 34.15c-2.105 2.489-5.97 2.462-8.04-.054l-2.14-2.601a1.463 1.463 0 01.21-2.069 1.488 1.488 0 012.084.209l2.139 2.6z" fill="url(#dpaint0_linear_409_2558)" fill-opacity=".38"/><defs><linearGradient id="dpaint0_linear_409_2558" x1="15.543" y1=".001" x2="51.291" y2="31.759" gradientUnits="userSpaceOnUse"><stop stop-color="#fff" stop-opacity="0"/><stop offset="1" stop-color="#fff"/></linearGradient></defs></svg><svg width="223" height="36" fill="none" viewBox="0 0 223 36" id="logo-white" y="36" xmlns="http://www.w3.org/2000/svg"><path d="M59 11.107v13.787h15.531v-2.76h-12.94V11.107H59zm30.384 8.268c0 .76-.25 1.409-.752 1.95-.507.54-1.117.81-1.83.81h-7.77V11.106h-2.59v13.787h10.36c1.426 0 2.645-.54 3.66-1.621 1.008-1.074 1.512-2.373 1.512-3.898v-8.268h-2.59v8.268zm4.501-8.268v13.787h15.531v-4.14h-2.59v1.38H96.475v-8.277h10.351v1.38h2.59v-4.13H93.885zm28.31 0l-8.278 6.127v-6.127h-2.59v13.787h2.59V20.59l3.577-2.643 5.76 6.946h3.451l-7.073-8.538 7.091-5.249h-4.528zm18.683 0l-4.483 6.204h-.018l-4.483-6.204h-3.269l6.466 8.944v4.843h2.59V20.05l6.457-8.944h-3.26zm9.771 0v13.787h15.532v-4.14h-2.59v1.38H153.24v-8.277h10.351v1.38h2.59v-4.13h-15.532zm30.384 0v5.51h-10.351v-5.51h-2.59v13.787h2.59v-5.519h10.351v5.519h2.59V11.107h-2.59zm7.091 6.889v-4.139h7.771c.712 0 1.322.27 1.829.81.501.54.752 1.19.752 1.95v1.379h-10.352zm-2.59-6.889v13.787h2.59v-4.14h10.352v4.14h2.59v-8.278c0-1.518-.504-2.817-1.513-3.897-1.014-1.074-2.234-1.612-3.658-1.612h-10.361zm17.443 13.787h2.59V11.107h-2.59v13.787zm17.433-13.787v10.458l-9.817-10.458h-3.124v13.787h2.59V14.436l9.817 10.458H223V11.107h-2.59z" fill="#fff"/><path fill-rule="evenodd" clip-rule="evenodd" d="M17.742 3.764a2.26 2.26 0 00-3.47-.023L3.481 16.529a2.234 2.234 0 00-.002 2.882l10.812 12.846a2.26 2.26 0 003.463-.011l10.68-12.848c.69-.83.69-2.03 0-2.859l-3.12-3.751a1.465 1.465 0 01.195-2.07 1.482 1.482 0 012.08.195l3.12 3.752a5.163 5.163 0 01.001 6.607L20.031 34.12c-2.074 2.496-5.914 2.507-8.004.025L1.215 21.299a5.163 5.163 0 01.004-6.66L12.01 1.85c2.1-2.489 5.956-2.463 8.022.054l2.134 2.601a1.465 1.465 0 01-.21 2.069 1.482 1.482 0 01-2.078-.209l-2.135-2.6z" fill="#fff"/><path fill-rule="evenodd" clip-rule="evenodd" d="M29.74 32.236a2.269 2.269 0 003.479.023l10.814-12.788a2.23 2.23 0 00.002-2.882L33.198 3.743a2.269 2.269 0 00-3.471.011L19.022 16.602a2.23 2.23 0 000 2.859l3.128 3.751a1.463 1.463 0 01-.196 2.07c-.63.518-1.564.43-2.085-.195l-3.128-3.752a5.154 5.154 0 010-6.607L27.445 1.88c2.08-2.496 5.93-2.507 8.024-.024L46.305 14.7a5.154 5.154 0 01-.004 6.66L35.487 34.15c-2.105 2.489-5.97 2.462-8.04-.054l-2.14-2.601a1.463 1.463 0 01.21-2.069 1.488 1.488 0 012.084.209l2.139 2.6z" fill="#FFAD08"/><path fill-rule="evenodd" clip-rule="evenodd" d="M29.74 32.236a2.269 2.269 0 003.479.023l10.814-12.788a2.23 2.23 0 00.002-2.882L33.198 3.743a2.269 2.269 0 00-3.471.011L19.022 16.602a2.23 2.23 0 000 2.859l3.128 3.751a1.463 1.463 0 01-.196 2.07c-.63.518-1.564.43-2.085-.195l-3.128-3.752a5.154 5.154 0 010-6.607L27.445 1.88c2.08-2.496 5.93-2.507 8.024-.024L46.305 14.7a5.154 5.154 0 01-.004 6.66L35.487 34.15c-2.105 2.489-5.97 2.462-8.04-.054l-2.14-2.601a1.463 1.463 0 01.21-2.069 1.488 1.488 0 012.084.209l2.139 2.6z" fill="url(#epaint0_linear_410_12808)" fill-opacity=".38"/><defs><linearGradient id="epaint0_linear_410_12808" x1="15.543" y1=".001" x2="51.291" y2="31.759" gradientUnits="userSpaceOnUse"><stop stop-color="#fff" stop-opacity="0"/><stop offset="1" stop-color="#fff"/></linearGradient></defs></svg><svg width="21" height="21" fill="none" viewBox="0 0 21 21" id="quest" x="59" y="72" xmlns="http://www.w3.org/2000/svg"><path d="M10.5 19.25a8.75 8.75 0 01-8.75-8.75 8.75 8.75 0 018.75-8.75 8.75 8.75 0 018.75 8.75 8.75 8.75 0 01-8.75 8.75zm-.875-6.125v1.75h1.75v-1.75h-1.75zm1.75-1.44a3.064 3.064 0 00-.875-5.998A3.063 3.063 0 007.496 8.15l1.717.344a1.312 1.312 0 111.287 1.57.875.875 0 00-.875.874v1.313h1.75v-.564z" fill="#333" fill-opacity=".4"/></svg><svg width="21" height="21" fill="none" viewBox="0 0 21 21" id="setting" x="80" y="72" xmlns="http://www.w3.org/2000/svg"><path d="M1.75 10.5c0-.757.096-1.49.276-2.191a2.625 2.625 0 002.34-4.05A8.741 8.741 0 018.16 2.065a2.625 2.625 0 004.68 0 8.741 8.741 0 013.793 2.192 2.626 2.626 0 002.34 4.052 8.78 8.78 0 010 4.381 2.625 2.625 0 00-2.34 4.05 8.74 8.74 0 01-3.793 2.192 2.625 2.625 0 00-4.68 0 8.74 8.74 0 01-3.793-2.192 2.625 2.625 0 00-2.34-4.051 8.799 8.799 0 01-.276-2.19zm4.204 2.625c.55.954.708 2.052.493 3.083a6.93 6.93 0 001.135.656A4.369 4.369 0 0110.5 15.75a4.37 4.37 0 012.918 1.114 7.009 7.009 0 001.135-.656 4.369 4.369 0 01.493-3.083 4.369 4.369 0 012.424-1.97c.04-.436.04-.875 0-1.312a4.37 4.37 0 01-2.918-5.052 6.99 6.99 0 00-1.135-.656A4.37 4.37 0 0110.5 5.25a4.369 4.369 0 01-2.918-1.115 6.99 6.99 0 00-1.135.656 4.369 4.369 0 01-.494 3.084A4.369 4.369 0 013.53 9.843a7.11 7.11 0 000 1.313 4.37 4.37 0 012.424 1.969zm4.546 0a2.625 2.625 0 110-5.25 2.625 2.625 0 010 5.25zm0-1.75a.875.875 0 100-1.75.875.875 0 000 1.75z" fill="#333" fill-opacity=".4"/></svg><svg viewBox="0 0 0 0" width="0" height="0" id="svg" x="223" xmlns="http://www.w3.org/2000/svg"><svg><use xmlns:xlink="http://www.w3.org/1999/xlink" xlink:href="assets/images/svg/svg.svg#quest"/></svg></svg><svg width="17" height="17" fill="none" viewBox="0 0 17 17" id="user" x="101" y="72" xmlns="http://www.w3.org/2000/svg"><path d="M8.498 8.727A3.77 3.77 0 0012.27 4.96a3.77 3.77 0 00-3.772-3.768A3.77 3.77 0 004.727 4.96a3.77 3.77 0 003.771 3.768z" stroke="#fff" stroke-width="1.5" stroke-linecap="round" stroke-linejoin="round"/><path d="M15.196 12.813c1.617 1.074.603 3.187-1.342 3.187H3.146c-1.945 0-2.96-2.113-1.342-3.187A12.065 12.065 0 018.5 10.799c2.477 0 4.78.742 6.696 2.014z" stroke="#fff" stroke-width="1.5"/></svg></svg>