<svg version="1.1" xmlns="http://www.w3.org/2000/svg"
     xmlns:xlink="http://www.w3.org/1999/xlink">
    <symbol id="quest" viewBox="0 0 21 21" fill="none">
        <path d="M10.5 19.25C5.66738 19.25 1.75 15.3326 1.75 10.5C1.75 5.66738 5.66738 1.75 10.5 1.75C15.3326 1.75 19.25 5.66738 19.25 10.5C19.25 15.3326 15.3326 19.25 10.5 19.25ZM9.625 13.125V14.875H11.375V13.125H9.625ZM11.375 11.6856C12.0782 11.4737 12.6819 11.0162 13.0761 10.3965C13.4704 9.77684 13.6289 9.03617 13.5229 8.30941C13.4169 7.58264 13.0533 6.91813 12.4985 6.4369C11.9437 5.95566 11.2345 5.68972 10.5 5.6875C9.792 5.68745 9.10583 5.93263 8.55819 6.38137C8.01056 6.8301 7.63526 7.45468 7.49613 8.14887L9.21288 8.49275C9.26159 8.249 9.37853 8.0241 9.55007 7.84421C9.72161 7.66433 9.94071 7.53685 10.1819 7.47662C10.423 7.41638 10.6763 7.42587 10.9123 7.50397C11.1483 7.58208 11.3572 7.72558 11.5149 7.9178C11.6725 8.11001 11.7722 8.34303 11.8026 8.58974C11.8329 8.83645 11.7926 9.0867 11.6863 9.31139C11.58 9.53607 11.412 9.72594 11.202 9.85891C10.992 9.99188 10.7486 10.0625 10.5 10.0625C10.2679 10.0625 10.0454 10.1547 9.88128 10.3188C9.71719 10.4829 9.625 10.7054 9.625 10.9375V12.25H11.375V11.6856Z" fill="currentColor"/>
    </symbol>
    <symbol id="setting" viewBox="0 0 21 21" fill="none">
        <path d="M1.75 10.4997C1.75 9.74278 1.84625 9.00953 2.0265 8.30866C2.50991 8.33407 2.99093 8.22531 3.41639 7.99442C3.84184 7.76352 4.19517 7.41947 4.43731 7.00031C4.67944 6.58114 4.80096 6.10319 4.78842 5.61928C4.77588 5.13536 4.62977 4.66434 4.36625 4.25828C5.42407 3.21753 6.72944 2.46321 8.15938 2.06641C8.37899 2.49819 8.71381 2.86079 9.12676 3.11405C9.53971 3.36732 10.0147 3.50137 10.4991 3.50137C10.9836 3.50137 11.4585 3.36732 11.8715 3.11405C12.2844 2.86079 12.6193 2.49819 12.8389 2.06641C14.2688 2.46321 15.5742 3.21753 16.632 4.25828C16.3682 4.66442 16.2219 5.13562 16.2092 5.61975C16.1966 6.10388 16.3181 6.58208 16.5604 7.00142C16.8027 7.42076 17.1563 7.7649 17.582 7.99577C18.0077 8.22664 18.489 8.33523 18.9726 8.30953C19.1529 9.00953 19.2491 9.74278 19.2491 10.4997C19.2491 11.2565 19.1529 11.9898 18.9726 12.6907C18.4891 12.6651 18.008 12.7737 17.5824 13.0045C17.1568 13.2354 16.8034 13.5794 16.5611 13.9986C16.3189 14.4178 16.1973 14.8958 16.2098 15.3798C16.2223 15.8638 16.3684 16.3349 16.632 16.741C15.5742 17.7818 14.2688 18.5361 12.8389 18.9329C12.6193 18.5011 12.2844 18.1385 11.8715 17.8853C11.4585 17.632 10.9836 17.4979 10.4991 17.4979C10.0147 17.4979 9.53971 17.632 9.12676 17.8853C8.71381 18.1385 8.37899 18.5011 8.15938 18.9329C6.72944 18.5361 5.42407 17.7818 4.36625 16.741C4.63007 16.3349 4.77639 15.8637 4.78902 15.3796C4.80166 14.8954 4.68011 14.4172 4.43784 13.9979C4.19556 13.5786 3.842 13.2344 3.41627 13.0035C2.99054 12.7727 2.50924 12.6641 2.02563 12.6898C1.84625 11.9907 1.75 11.2574 1.75 10.4997ZM5.9535 13.1247C6.50475 14.0793 6.66225 15.1774 6.447 16.2082C6.804 16.4619 7.18375 16.6815 7.58188 16.8644C8.38396 16.1459 9.42315 15.7489 10.5 15.7497C11.6025 15.7497 12.6333 16.1618 13.4181 16.8644C13.8163 16.6815 14.196 16.4619 14.553 16.2082C14.332 15.1546 14.5077 14.0566 15.0465 13.1247C15.5843 12.1922 16.4474 11.4912 17.4703 11.1559C17.5107 10.7193 17.5107 10.28 17.4703 9.84341C16.4471 9.50833 15.5836 8.80725 15.0456 7.87466C14.5069 6.94272 14.3311 5.84469 14.5521 4.79116C14.1952 4.53734 13.8153 4.31762 13.4173 4.13491C12.6154 4.85322 11.5765 5.25019 10.5 5.24966C9.42315 5.2504 8.38396 4.85342 7.58188 4.13491C7.18386 4.31763 6.8039 4.53734 6.447 4.79116C6.66799 5.84469 6.49226 6.94272 5.9535 7.87466C5.4157 8.80708 4.55261 9.50815 3.52975 9.84341C3.48928 10.28 3.48928 10.7193 3.52975 11.1559C4.55294 11.491 5.41636 12.1921 5.95438 13.1247H5.9535ZM10.5 13.1247C9.80381 13.1247 9.13613 12.8481 8.64384 12.3558C8.15156 11.8635 7.875 11.1958 7.875 10.4997C7.875 9.80346 8.15156 9.13578 8.64384 8.6435C9.13613 8.15122 9.80381 7.87466 10.5 7.87466C11.1962 7.87466 11.8639 8.15122 12.3562 8.6435C12.8484 9.13578 13.125 9.80346 13.125 10.4997C13.125 11.1958 12.8484 11.8635 12.3562 12.3558C11.8639 12.8481 11.1962 13.1247 10.5 13.1247ZM10.5 11.3747C10.7321 11.3747 10.9546 11.2825 11.1187 11.1184C11.2828 10.9543 11.375 10.7317 11.375 10.4997C11.375 10.2676 11.2828 10.045 11.1187 9.88094C10.9546 9.71684 10.7321 9.62466 10.5 9.62466C10.2679 9.62466 10.0454 9.71684 9.88128 9.88094C9.71719 10.045 9.625 10.2676 9.625 10.4997C9.625 10.7317 9.71719 10.9543 9.88128 11.1184C10.0454 11.2825 10.2679 11.3747 10.5 11.3747V11.3747Z" fill="currentColor" fill-opacity="0.4"/>
    </symbol>
    <symbol id="arrow" viewBox="0 0 8 5" fill="none">
        <path d="M4 4.5L0 0.5H8L4 4.5Z" fill="currentColor"/>
    </symbol>
    <symbol id="user" viewBox="0 0 17 17" fill="none">
        <path d="M8.4981 8.7274C10.5811 8.7274 12.2696 7.04041 12.2696 4.9594C12.2696 2.87839 10.5811 1.19141 8.4981 1.19141C6.41514 1.19141 4.72656 2.87839 4.72656 4.9594C4.72656 7.04041 6.41514 8.7274 8.4981 8.7274Z" stroke="currentColor" stroke-width="1.5" stroke-linecap="round" stroke-linejoin="round"/>
        <path d="M15.196 12.813C16.8131 13.8868 15.7989 16.0005 13.8543 16.0005H3.14566C1.20108 16.0005 0.186877 13.8868 1.80398 12.813C3.72011 11.5406 6.02293 10.7988 8.5 10.7988C10.9771 10.7988 13.2799 11.5406 15.196 12.813Z" stroke="currentColor" stroke-width="1.5"/>
    </symbol>
    <symbol id="tik" viewBox="0 0 25 25" fill="none">
        <path d="M3.48524 13.5028C3.3524 13.37 3.27778 13.1898 3.27778 13.002C3.27778 12.8141 3.3524 12.6339 3.48524 12.5011L12.5009 3.48547C12.6337 3.35264 12.8139 3.27801 13.0017 3.27801C13.1896 3.27801 13.3698 3.35264 13.5026 3.48547L16.2574 6.24024C15.9253 6.57234 15.7387 7.02276 15.7387 7.49241C15.7387 7.96207 15.9253 8.41248 16.2574 8.74458C16.5895 9.07668 17.0399 9.26325 17.5095 9.26325C17.9792 9.26325 18.4296 9.07668 18.7617 8.74458L21.5165 11.4994C21.6493 11.6322 21.7239 11.8124 21.7239 12.0002C21.7239 12.1881 21.6493 12.3682 21.5165 12.5011L12.5009 21.5167C12.368 21.6495 12.1878 21.7242 12 21.7242C11.8121 21.7242 11.632 21.6495 11.4991 21.5167L3.48524 13.5028ZM14.046 17.9681C13.9509 17.7697 13.9197 17.5467 13.9567 17.3298C13.9938 17.1129 14.0972 16.9129 14.2528 16.7573C14.4083 16.6018 14.6084 16.4983 14.8252 16.4613C15.0421 16.4243 15.2651 16.4555 15.4635 16.5506L20.0139 12.0002L18.5273 10.5136C17.9646 10.7034 17.36 10.7322 16.7818 10.5968C16.2036 10.4614 15.6747 10.1671 15.2547 9.7472C14.8348 9.32727 14.5406 8.79838 14.4051 8.22015C14.2697 7.64193 14.2985 7.03738 14.4883 6.47465L13.0017 4.98808L8.45134 9.53846C8.54647 9.73683 8.57767 9.95985 8.54064 10.1767C8.5036 10.3936 8.40017 10.5936 8.2446 10.7492C8.08903 10.9047 7.88901 11.0082 7.67214 11.0452C7.45528 11.0822 7.23226 11.051 7.03389 10.9559L4.98784 13.002L12 20.0141L14.046 17.9681ZM10.7478 13.2524C10.5486 13.4516 10.2783 13.5636 9.99652 13.5636C9.71472 13.5636 9.44447 13.4516 9.24522 13.2524C9.04596 13.0531 8.93402 12.7829 8.93402 12.5011C8.93402 12.2193 9.04596 11.949 9.24522 11.7498C9.44447 11.5505 9.71472 11.4386 9.99652 11.4386C10.2783 11.4386 10.5486 11.5505 10.7478 11.7498C10.9471 11.949 11.059 12.2193 11.059 12.5011C11.059 12.7829 10.9471 13.0531 10.7478 13.2524ZM13.2522 15.7567C13.0529 15.956 12.7826 16.0679 12.5009 16.0679C12.2191 16.0679 11.9488 15.956 11.7496 15.7567C11.5503 15.5575 11.4384 15.2872 11.4384 15.0054C11.4384 14.7236 11.5503 14.4534 11.7496 14.2541C11.9488 14.0549 12.2191 13.9429 12.5009 13.9429C12.7826 13.9429 13.0529 14.0549 13.2522 14.2541C13.4514 14.4534 13.5634 14.7236 13.5634 15.0054C13.5634 15.2872 13.4514 15.5575 13.2522 15.7567Z" fill="currentColor"/>

    </symbol>
    <symbol id="tik2" viewBox="0 0 16 16" fill="none">
        <path d="M8.00016 1.33398C11.6822 1.33398 14.6668 4.31865 14.6668 8.00065C14.6668 11.6827 11.6822 14.6673 8.00016 14.6673C4.31816 14.6673 1.3335 11.6827 1.3335 8.00065C1.3335 4.31865 4.31816 1.33398 8.00016 1.33398ZM8.00016 2.66732C6.58567 2.66732 5.22912 3.22922 4.22893 4.22941C3.22873 5.22961 2.66683 6.58616 2.66683 8.00065C2.66683 9.41514 3.22873 10.7717 4.22893 11.7719C5.22912 12.7721 6.58567 13.334 8.00016 13.334C9.41465 13.334 10.7712 12.7721 11.7714 11.7719C12.7716 10.7717 13.3335 9.41514 13.3335 8.00065C13.3335 6.58616 12.7716 5.22961 11.7714 4.22941C10.7712 3.22922 9.41465 2.66732 8.00016 2.66732ZM8.00016 4.00065C9.06103 4.00065 10.0784 4.42208 10.8286 5.17222C11.5787 5.92237 12.0002 6.93979 12.0002 8.00065C12.0002 9.06152 11.5787 10.0789 10.8286 10.8291C10.0784 11.5792 9.06103 12.0007 8.00016 12.0007C6.9393 12.0007 5.92188 11.5792 5.17174 10.8291C4.42159 10.0789 4.00016 9.06152 4.00016 8.00065C4.00016 6.93979 4.42159 5.92237 5.17174 5.17222C5.92188 4.42208 6.9393 4.00065 8.00016 4.00065ZM8.00016 5.16732C7.67996 5.16742 7.36656 5.25976 7.09746 5.43329C6.82836 5.60682 6.61494 5.8542 6.48273 6.14583C6.35052 6.43746 6.30512 6.76101 6.35195 7.07777C6.39879 7.39453 6.53588 7.69109 6.74683 7.93198C6.37016 8.23665 6.1335 8.67732 6.1335 9.16732C6.1335 10.0873 6.9695 10.834 8.00016 10.834C9.03083 10.834 9.86683 10.0873 9.86683 9.16732C9.86683 8.67732 9.63016 8.23665 9.2535 7.93265C9.46466 7.69177 9.60193 7.39515 9.64888 7.07828C9.69584 6.76141 9.65048 6.43773 9.51825 6.14597C9.38601 5.85421 9.1725 5.60674 8.90327 5.43317C8.63404 5.25961 8.32049 5.16731 8.00016 5.16732ZM8.00016 8.50065C8.50216 8.50065 8.86683 8.82598 8.86683 9.16732C8.86683 9.50865 8.50216 9.83398 8.00016 9.83398C7.49816 9.83398 7.1335 9.50865 7.1335 9.16732C7.1335 8.82598 7.49816 8.50065 8.00016 8.50065ZM8.00016 6.16732C8.17697 6.16732 8.34654 6.23756 8.47157 6.36258C8.59659 6.4876 8.66683 6.65717 8.66683 6.83398C8.66683 7.0108 8.59659 7.18036 8.47157 7.30539C8.34654 7.43041 8.17697 7.50065 8.00016 7.50065C7.82335 7.50065 7.65378 7.43041 7.52876 7.30539C7.40373 7.18036 7.3335 7.0108 7.3335 6.83398C7.3335 6.65717 7.40373 6.4876 7.52876 6.36258C7.65378 6.23756 7.82335 6.16732 8.00016 6.16732Z" fill="currentColor"/>

    </symbol>
    <symbol id="arrow2" viewBox="0 0 16 16" fill="none">
        <path d="M7.99952 8.78047L11.2995 5.48047L12.2422 6.42314L7.99952 10.6658L3.75685 6.42313L4.69952 5.48047L7.99952 8.78047Z" fill="currentColor"/>
    </symbol>
    <symbol id="arrows" viewBox="0 0 34 24" fill="none">
        <path d="M12.172 11.9992L9.343 9.17119L10.757 7.75619L15 11.9992L10.757 16.2422L9.343 14.8272L12.172 11.9992Z" fill="currentColor"/>
        <path d="M17.172 11.9992L14.343 9.17119L15.757 7.75619L20 11.9992L15.757 16.2422L14.343 14.8272L17.172 11.9992Z" fill="currentColor"/>
        <path d="M22.172 11.9992L19.343 9.17119L20.757 7.75619L25 11.9992L20.757 16.2422L19.343 14.8272L22.172 11.9992Z" fill="currentColor"/>
    </symbol>

    <symbol id="icon1" viewBox="0 0 17 12" fill="none">
        <path d="M8.4981 8.43833C10.5811 8.43833 12.2696 6.75134 12.2696 4.67034C12.2696 2.58933 10.5811 0.902344 8.4981 0.902344C6.41514 0.902344 4.72656 2.58933 4.72656 4.67034C4.72656 6.75134 6.41514 8.43833 8.4981 8.43833Z" stroke="currentColor" stroke-width="1.5" stroke-linecap="round" stroke-linejoin="round"/>
        <path d="M15.196 7.81298C16.8131 8.88678 15.7989 11.0005 13.8543 11.0005H3.14566C1.20108 11.0005 0.186877 8.88678 1.80398 7.81298C3.72011 6.54062 6.02293 5.79883 8.5 5.79883C10.9771 5.79883 13.2799 6.54062 15.196 7.81298Z" stroke="currentColor" stroke-width="1.5"/>
    </symbol>
    <symbol id="close" viewBox="0 0 16 16" fill="none">
        <path d="M8.00048 7.05781L11.3005 3.75781L12.2431 4.70048L8.94315 8.00048L12.2431 11.3005L11.3005 12.2431L8.00048 8.94315L4.70048 12.2431L3.75781 11.3005L7.05781 8.00048L3.75781 4.70048L4.70048 3.75781L8.00048 7.05781Z" fill="currentColor" fill-opacity="0.5"/>

    </symbol>
    <symbol id="load" viewBox="0 0 12 12" fill="none">
        <path d="M6 1C8.7615 1 11 3.2385 11 6C11 8.7615 8.7615 11 6 11C3.2385 11 1 8.7615 1 6H2C2 8.209 3.791 10 6 10C8.209 10 10 8.209 10 6C10 3.791 8.209 2 6 2C4.768 2 3.666 2.557 2.9325 3.4325L4 4.5H1V1.5L2.2235 2.723C3.14 1.668 4.492 1 6 1Z" fill="currentColor"/>

    </symbol>

    <symbol id="ch" viewBox="0 0 12 12" fill="none">
        <path d="M3.207 7.99907L8.278 2.92807L7.571 2.22107L2.5 7.29207V7.99907H3.207ZM3.6215 8.99907H1.5V6.87757L7.2175 1.16007C7.31126 1.06633 7.43842 1.01367 7.571 1.01367C7.70358 1.01367 7.83074 1.06633 7.9245 1.16007L9.339 2.57457C9.43274 2.66833 9.48539 2.79548 9.48539 2.92807C9.48539 3.06065 9.43274 3.1878 9.339 3.28157L3.6215 8.99907ZM1.5 9.99907H10.5V10.9991H1.5V9.99907Z" fill="currentColor"/>

    </symbol>

    <symbol id="toggle" viewBox="0 0 24 24" fill="none">
        <path d="M21 20L3 20L3 18L21 18L21 20ZM21 13L9 13L9 11L21 11L21 13ZM21 6L3 6L3 4L21 4L21 6Z" fill="currentColor"/>

    </symbol>

    <symbol id="fl" viewBox="0 0 24 24" fill="none">
        <path d="M14 14V20L10 22V14L4 5V3H20V5L14 14ZM6.404 5L12 13.394L17.596 5H6.404Z" fill="currentColor" />

    </symbol>

    <symbol id="ok" viewBox="0 0 12 12" fill="none">
        <path d="M5.00012 7.58673L9.59612 2.99023L10.3036 3.69723L5.00012 9.00073L1.81812 5.81873L2.52512 5.11173L5.00012 7.58673Z" fill="currentColor"/>

    </symbol>



    <svg><use xlink:href="assets/images/svg/svg.svg#quest"></use></svg>
</svg>