<svg width="25" height="25" viewBox="0 0 25 25" fill="none" xmlns="http://www.w3.org/2000/svg">
<path d="M3.48524 13.5028C3.3524 13.37 3.27778 13.1898 3.27778 13.002C3.27778 12.8141 3.3524 12.6339 3.48524 12.5011L12.5009 3.48547C12.6337 3.35264 12.8139 3.27801 13.0017 3.27801C13.1896 3.27801 13.3698 3.35264 13.5026 3.48547L16.2574 6.24024C15.9253 6.57234 15.7387 7.02276 15.7387 7.49241C15.7387 7.96207 15.9253 8.41248 16.2574 8.74458C16.5895 9.07668 17.0399 9.26325 17.5095 9.26325C17.9792 9.26325 18.4296 9.07668 18.7617 8.74458L21.5165 11.4994C21.6493 11.6322 21.7239 11.8124 21.7239 12.0002C21.7239 12.1881 21.6493 12.3682 21.5165 12.5011L12.5009 21.5167C12.368 21.6495 12.1878 21.7242 12 21.7242C11.8121 21.7242 11.632 21.6495 11.4991 21.5167L3.48524 13.5028ZM14.046 17.9681C13.9509 17.7697 13.9197 17.5467 13.9567 17.3298C13.9938 17.1129 14.0972 16.9129 14.2528 16.7573C14.4083 16.6018 14.6084 16.4983 14.8252 16.4613C15.0421 16.4243 15.2651 16.4555 15.4635 16.5506L20.0139 12.0002L18.5273 10.5136C17.9646 10.7034 17.36 10.7322 16.7818 10.5968C16.2036 10.4614 15.6747 10.1671 15.2547 9.7472C14.8348 9.32727 14.5406 8.79838 14.4051 8.22015C14.2697 7.64193 14.2985 7.03738 14.4883 6.47465L13.0017 4.98808L8.45134 9.53846C8.54647 9.73683 8.57767 9.95985 8.54064 10.1767C8.5036 10.3936 8.40017 10.5936 8.2446 10.7492C8.08903 10.9047 7.88901 11.0082 7.67214 11.0452C7.45528 11.0822 7.23226 11.051 7.03389 10.9559L4.98784 13.002L12 20.0141L14.046 17.9681ZM10.7478 13.2524C10.5486 13.4516 10.2783 13.5636 9.99652 13.5636C9.71472 13.5636 9.44447 13.4516 9.24522 13.2524C9.04596 13.0531 8.93402 12.7829 8.93402 12.5011C8.93402 12.2193 9.04596 11.949 9.24522 11.7498C9.44447 11.5505 9.71472 11.4386 9.99652 11.4386C10.2783 11.4386 10.5486 11.5505 10.7478 11.7498C10.9471 11.949 11.059 12.2193 11.059 12.5011C11.059 12.7829 10.9471 13.0531 10.7478 13.2524ZM13.2522 15.7567C13.0529 15.956 12.7826 16.0679 12.5009 16.0679C12.2191 16.0679 11.9488 15.956 11.7496 15.7567C11.5503 15.5575 11.4384 15.2872 11.4384 15.0054C11.4384 14.7236 11.5503 14.4534 11.7496 14.2541C11.9488 14.0549 12.2191 13.9429 12.5009 13.9429C12.7826 13.9429 13.0529 14.0549 13.2522 14.2541C13.4514 14.4534 13.5634 14.7236 13.5634 15.0054C13.5634 15.2872 13.4514 15.5575 13.2522 15.7567Z" fill="white"/>
</svg>
