<svg width="16" height="16" viewBox="0 0 16 16" fill="none" xmlns="http://www.w3.org/2000/svg">
<path d="M1.33594 6.33333V2.66667C1.33594 2.48986 1.40618 2.32029 1.5312 2.19526C1.65622 2.07024 1.82579 2 2.0026 2H14.0026C14.1794 2 14.349 2.07024 14.474 2.19526C14.599 2.32029 14.6693 2.48986 14.6693 2.66667V6.33333C14.2272 6.33333 13.8033 6.50893 13.4908 6.82149C13.1782 7.13405 13.0026 7.55797 13.0026 8C13.0026 8.44203 13.1782 8.86595 13.4908 9.17851C13.8033 9.49107 14.2272 9.66667 14.6693 9.66667V13.3333C14.6693 13.5101 14.599 13.6797 14.474 13.8047C14.349 13.9298 14.1794 14 14.0026 14H2.0026C1.82579 14 1.65622 13.9298 1.5312 13.8047C1.40618 13.6797 1.33594 13.5101 1.33594 13.3333V9.66667C1.77797 9.66667 2.20189 9.49107 2.51445 9.17851C2.82701 8.86595 3.0026 8.44203 3.0026 8C3.0026 7.55797 2.82701 7.13405 2.51445 6.82149C2.20189 6.50893 1.77797 6.33333 1.33594 6.33333V6.33333ZM9.33594 3.33333H2.66927V5.312C3.17008 5.5602 3.59159 5.94337 3.88627 6.41831C4.18096 6.89324 4.33711 7.44107 4.33711 8C4.33711 8.55894 4.18096 9.10676 3.88627 9.58169C3.59159 10.0566 3.17008 10.4398 2.66927 10.688V12.6667H9.33594V3.33333ZM10.6693 3.33333V12.6667H13.3359V10.688C12.8351 10.4398 12.4136 10.0566 12.1189 9.58169C11.8242 9.10676 11.6681 8.55894 11.6681 8C11.6681 7.44107 11.8242 6.89324 12.1189 6.41831C12.4136 5.94337 12.8351 5.5602 13.3359 5.312V3.33333H10.6693Z" fill="white"/>
</svg>
