<svg width="16" height="17" viewBox="0 0 16 17" fill="none" xmlns="http://www.w3.org/2000/svg">
<path d="M1.33594 6.83333V3.16667C1.33594 2.98986 1.40618 2.82029 1.5312 2.69526C1.65622 2.57024 1.82579 2.5 2.0026 2.5H14.0026C14.1794 2.5 14.349 2.57024 14.474 2.69526C14.599 2.82029 14.6693 2.98986 14.6693 3.16667V6.83333C14.2272 6.83333 13.8033 7.00893 13.4908 7.32149C13.1782 7.63405 13.0026 8.05797 13.0026 8.5C13.0026 8.94203 13.1782 9.36595 13.4908 9.67851C13.8033 9.99107 14.2272 10.1667 14.6693 10.1667V13.8333C14.6693 14.0101 14.599 14.1797 14.474 14.3047C14.349 14.4298 14.1794 14.5 14.0026 14.5H2.0026C1.82579 14.5 1.65622 14.4298 1.5312 14.3047C1.40618 14.1797 1.33594 14.0101 1.33594 13.8333V10.1667C1.77797 10.1667 2.20189 9.99107 2.51445 9.67851C2.82701 9.36595 3.0026 8.94203 3.0026 8.5C3.0026 8.05797 2.82701 7.63405 2.51445 7.32149C2.20189 7.00893 1.77797 6.83333 1.33594 6.83333V6.83333ZM9.33594 3.83333H2.66927V5.812C3.17008 6.0602 3.59159 6.44337 3.88627 6.91831C4.18096 7.39324 4.33711 7.94107 4.33711 8.5C4.33711 9.05894 4.18096 9.60676 3.88627 10.0817C3.59159 10.5566 3.17008 10.9398 2.66927 11.188V13.1667H9.33594V3.83333ZM10.6693 3.83333V13.1667H13.3359V11.188C12.8351 10.9398 12.4136 10.5566 12.1189 10.0817C11.8242 9.60676 11.6681 9.05894 11.6681 8.5C11.6681 7.94107 11.8242 7.39324 12.1189 6.91831C12.4136 6.44337 12.8351 6.0602 13.3359 5.812V3.83333H10.6693Z" fill="#FFAD08"/>
<path d="M1.33594 6.83333V3.16667C1.33594 2.98986 1.40618 2.82029 1.5312 2.69526C1.65622 2.57024 1.82579 2.5 2.0026 2.5H14.0026C14.1794 2.5 14.349 2.57024 14.474 2.69526C14.599 2.82029 14.6693 2.98986 14.6693 3.16667V6.83333C14.2272 6.83333 13.8033 7.00893 13.4908 7.32149C13.1782 7.63405 13.0026 8.05797 13.0026 8.5C13.0026 8.94203 13.1782 9.36595 13.4908 9.67851C13.8033 9.99107 14.2272 10.1667 14.6693 10.1667V13.8333C14.6693 14.0101 14.599 14.1797 14.474 14.3047C14.349 14.4298 14.1794 14.5 14.0026 14.5H2.0026C1.82579 14.5 1.65622 14.4298 1.5312 14.3047C1.40618 14.1797 1.33594 14.0101 1.33594 13.8333V10.1667C1.77797 10.1667 2.20189 9.99107 2.51445 9.67851C2.82701 9.36595 3.0026 8.94203 3.0026 8.5C3.0026 8.05797 2.82701 7.63405 2.51445 7.32149C2.20189 7.00893 1.77797 6.83333 1.33594 6.83333V6.83333ZM9.33594 3.83333H2.66927V5.812C3.17008 6.0602 3.59159 6.44337 3.88627 6.91831C4.18096 7.39324 4.33711 7.94107 4.33711 8.5C4.33711 9.05894 4.18096 9.60676 3.88627 10.0817C3.59159 10.5566 3.17008 10.9398 2.66927 11.188V13.1667H9.33594V3.83333ZM10.6693 3.83333V13.1667H13.3359V11.188C12.8351 10.9398 12.4136 10.5566 12.1189 10.0817C11.8242 9.60676 11.6681 9.05894 11.6681 8.5C11.6681 7.94107 11.8242 7.39324 12.1189 6.91831C12.4136 6.44337 12.8351 6.0602 13.3359 5.812V3.83333H10.6693Z" fill="url(#paint0_linear_438_21046)" fill-opacity="0.38"/>
<defs>
<linearGradient id="paint0_linear_438_21046" x1="14.6693" y1="14.5" x2="2.73557" y2="1.24033" gradientUnits="userSpaceOnUse">
<stop stop-color="white" stop-opacity="0"/>
<stop offset="1" stop-color="white"/>
</linearGradient>
</defs>
</svg>
