<svg width="16" height="17" viewBox="0 0 16 17" fill="none" xmlns="http://www.w3.org/2000/svg">
<path d="M8.00016 1.83398C11.6822 1.83398 14.6668 4.81865 14.6668 8.50065C14.6668 12.1827 11.6822 15.1673 8.00016 15.1673C4.31816 15.1673 1.3335 12.1827 1.3335 8.50065C1.3335 4.81865 4.31816 1.83398 8.00016 1.83398ZM8.00016 3.16732C6.58567 3.16732 5.22912 3.72922 4.22893 4.72941C3.22873 5.72961 2.66683 7.08616 2.66683 8.50065C2.66683 9.91514 3.22873 11.2717 4.22893 12.2719C5.22912 13.2721 6.58567 13.834 8.00016 13.834C9.41465 13.834 10.7712 13.2721 11.7714 12.2719C12.7716 11.2717 13.3335 9.91514 13.3335 8.50065C13.3335 7.08616 12.7716 5.72961 11.7714 4.72941C10.7712 3.72922 9.41465 3.16732 8.00016 3.16732ZM8.00016 4.50065C9.06103 4.50065 10.0784 4.92208 10.8286 5.67222C11.5787 6.42237 12.0002 7.43979 12.0002 8.50065C12.0002 9.56152 11.5787 10.5789 10.8286 11.3291C10.0784 12.0792 9.06103 12.5007 8.00016 12.5007C6.9393 12.5007 5.92188 12.0792 5.17174 11.3291C4.42159 10.5789 4.00016 9.56152 4.00016 8.50065C4.00016 7.43979 4.42159 6.42237 5.17174 5.67222C5.92188 4.92208 6.9393 4.50065 8.00016 4.50065ZM8.00016 5.66732C7.67996 5.66742 7.36656 5.75976 7.09746 5.93329C6.82836 6.10682 6.61494 6.3542 6.48273 6.64583C6.35052 6.93746 6.30512 7.26101 6.35195 7.57777C6.39879 7.89453 6.53588 8.19109 6.74683 8.43198C6.37016 8.73665 6.1335 9.17732 6.1335 9.66732C6.1335 10.5873 6.9695 11.334 8.00016 11.334C9.03083 11.334 9.86683 10.5873 9.86683 9.66732C9.86683 9.17732 9.63016 8.73665 9.2535 8.43265C9.46466 8.19177 9.60193 7.89515 9.64888 7.57828C9.69584 7.26141 9.65048 6.93773 9.51825 6.64597C9.38601 6.35421 9.1725 6.10674 8.90327 5.93317C8.63404 5.75961 8.32049 5.66731 8.00016 5.66732ZM8.00016 9.00065C8.50216 9.00065 8.86683 9.32598 8.86683 9.66732C8.86683 10.0087 8.50216 10.334 8.00016 10.334C7.49816 10.334 7.1335 10.0087 7.1335 9.66732C7.1335 9.32598 7.49816 9.00065 8.00016 9.00065ZM8.00016 6.66732C8.17697 6.66732 8.34654 6.73756 8.47157 6.86258C8.59659 6.9876 8.66683 7.15717 8.66683 7.33398C8.66683 7.5108 8.59659 7.68036 8.47157 7.80539C8.34654 7.93041 8.17697 8.00065 8.00016 8.00065C7.82335 8.00065 7.65378 7.93041 7.52876 7.80539C7.40373 7.68036 7.3335 7.5108 7.3335 7.33398C7.3335 7.15717 7.40373 6.9876 7.52876 6.86258C7.65378 6.73756 7.82335 6.66732 8.00016 6.66732Z" fill="#FFAD08"/>
<path d="M8.00016 1.83398C11.6822 1.83398 14.6668 4.81865 14.6668 8.50065C14.6668 12.1827 11.6822 15.1673 8.00016 15.1673C4.31816 15.1673 1.3335 12.1827 1.3335 8.50065C1.3335 4.81865 4.31816 1.83398 8.00016 1.83398ZM8.00016 3.16732C6.58567 3.16732 5.22912 3.72922 4.22893 4.72941C3.22873 5.72961 2.66683 7.08616 2.66683 8.50065C2.66683 9.91514 3.22873 11.2717 4.22893 12.2719C5.22912 13.2721 6.58567 13.834 8.00016 13.834C9.41465 13.834 10.7712 13.2721 11.7714 12.2719C12.7716 11.2717 13.3335 9.91514 13.3335 8.50065C13.3335 7.08616 12.7716 5.72961 11.7714 4.72941C10.7712 3.72922 9.41465 3.16732 8.00016 3.16732ZM8.00016 4.50065C9.06103 4.50065 10.0784 4.92208 10.8286 5.67222C11.5787 6.42237 12.0002 7.43979 12.0002 8.50065C12.0002 9.56152 11.5787 10.5789 10.8286 11.3291C10.0784 12.0792 9.06103 12.5007 8.00016 12.5007C6.9393 12.5007 5.92188 12.0792 5.17174 11.3291C4.42159 10.5789 4.00016 9.56152 4.00016 8.50065C4.00016 7.43979 4.42159 6.42237 5.17174 5.67222C5.92188 4.92208 6.9393 4.50065 8.00016 4.50065ZM8.00016 5.66732C7.67996 5.66742 7.36656 5.75976 7.09746 5.93329C6.82836 6.10682 6.61494 6.3542 6.48273 6.64583C6.35052 6.93746 6.30512 7.26101 6.35195 7.57777C6.39879 7.89453 6.53588 8.19109 6.74683 8.43198C6.37016 8.73665 6.1335 9.17732 6.1335 9.66732C6.1335 10.5873 6.9695 11.334 8.00016 11.334C9.03083 11.334 9.86683 10.5873 9.86683 9.66732C9.86683 9.17732 9.63016 8.73665 9.2535 8.43265C9.46466 8.19177 9.60193 7.89515 9.64888 7.57828C9.69584 7.26141 9.65048 6.93773 9.51825 6.64597C9.38601 6.35421 9.1725 6.10674 8.90327 5.93317C8.63404 5.75961 8.32049 5.66731 8.00016 5.66732ZM8.00016 9.00065C8.50216 9.00065 8.86683 9.32598 8.86683 9.66732C8.86683 10.0087 8.50216 10.334 8.00016 10.334C7.49816 10.334 7.1335 10.0087 7.1335 9.66732C7.1335 9.32598 7.49816 9.00065 8.00016 9.00065ZM8.00016 6.66732C8.17697 6.66732 8.34654 6.73756 8.47157 6.86258C8.59659 6.9876 8.66683 7.15717 8.66683 7.33398C8.66683 7.5108 8.59659 7.68036 8.47157 7.80539C8.34654 7.93041 8.17697 8.00065 8.00016 8.00065C7.82335 8.00065 7.65378 7.93041 7.52876 7.80539C7.40373 7.68036 7.3335 7.5108 7.3335 7.33398C7.3335 7.15717 7.40373 6.9876 7.52876 6.86258C7.65378 6.73756 7.82335 6.66732 8.00016 6.66732Z" fill="url(#paint0_linear_544_17361)" fill-opacity="0.38"/>
<defs>
<linearGradient id="paint0_linear_544_17361" x1="14.6668" y1="15.1673" x2="1.3335" y2="1.83398" gradientUnits="userSpaceOnUse">
<stop stop-color="white" stop-opacity="0"/>
<stop offset="1" stop-color="white"/>
</linearGradient>
</defs>
</svg>
