<svg width="1437" height="181" viewBox="0 0 1437 181" fill="none" xmlns="http://www.w3.org/2000/svg">
<mask id="mask0_409_3701" style="mask-type:alpha" maskUnits="userSpaceOnUse" x="0" y="0" width="1437" height="181">
<rect width="1437" height="181" rx="5" fill="black"/>
</mask>
<g mask="url(#mask0_409_3701)">
<path d="M-598.727 296.664L-546.799 386.731L-447.041 329.056L-457.434 311.03L-540.556 359.087L-582.091 287.046L-598.727 296.664Z" fill="#F0F4F4"/>
<path d="M-372.432 237.851C-369.574 242.809 -368.736 247.984 -369.92 253.374C-371.142 258.787 -374.041 262.816 -378.617 265.462L-428.525 294.316L-470.06 222.275L-486.696 231.893L-434.768 321.96L-368.224 283.488C-359.073 278.196 -353.274 270.138 -350.83 259.312C-348.399 248.551 -350.055 238.192 -355.796 228.233L-386.939 174.218L-403.574 183.836L-372.432 237.851Z" fill="#F0F4F4"/>
<path d="M-374.665 167.122L-322.737 257.189L-222.98 199.514L-238.569 172.475L-255.205 182.093L-250.009 191.106L-316.494 229.545L-347.673 175.467L-281.187 137.029L-275.991 146.042L-259.355 136.423L-274.908 109.448L-374.665 167.122Z" fill="#F0F4F4"/>
<path d="M-192.833 61.9961L-222.924 132.756L-245.999 92.7336L-262.635 102.352L-210.707 192.418L-194.071 182.8L-210.278 154.69L-197.258 124.137L-134.1 148.128L-111.938 135.315L-189.527 105.8L-163.75 45.1812L-192.833 61.9961Z" fill="#F0F4F4"/>
<path d="M-72.8338 -7.38197L-78.261 49.7916L-78.3774 49.8588L-130.536 25.9787L-151.535 38.119L-76.317 72.5341L-58.075 104.174L-41.4391 94.556L-59.6811 62.916L-51.8935 -19.4887L-72.8338 -7.38197Z" fill="#F0F4F4"/>
<path d="M-10.0711 -43.6684L41.8568 46.3982L141.614 -11.2767L126.025 -38.3156L109.389 -28.6975L114.585 -19.6845L48.0999 18.7542L16.9214 -35.3236L83.4069 -73.7623L88.6033 -64.7494L105.239 -74.3675L89.6863 -101.343L-10.0711 -43.6684Z" fill="#F0F4F4"/>
<path d="M185.081 -156.496L205.83 -120.507L139.345 -82.0684L118.596 -118.057L101.96 -108.439L153.888 -18.3725L170.523 -27.9906L149.738 -64.0425L216.223 -102.481L237.009 -66.4294L253.645 -76.0475L201.717 -166.114L185.081 -156.496Z" fill="#F0F4F4"/>
<path d="M256.572 -137.826L240.983 -164.865L290.89 -193.719C295.466 -196.365 300.4 -196.865 305.693 -195.218C310.946 -193.55 315.002 -190.236 317.861 -185.278L323.057 -176.265L256.572 -137.826ZM213.99 -173.21L265.918 -83.1433L282.554 -92.7614L266.965 -119.8L333.45 -158.239L349.04 -131.2L365.676 -140.818L334.497 -194.896C328.78 -204.812 320.648 -211.428 310.102 -214.743C299.542 -217.994 289.686 -216.973 280.534 -211.682L213.99 -173.21Z" fill="#F0F4F4"/>
<path d="M377.949 -147.914L394.585 -157.532L342.657 -247.599L326.021 -237.981L377.949 -147.914Z" fill="#F0F4F4"/>
<path d="M437.994 -302.718L477.385 -234.396L374.94 -266.263L354.872 -254.661L406.8 -164.594L423.436 -174.213L384.045 -242.535L486.489 -210.667L506.557 -222.269L454.629 -312.336L437.994 -302.718Z" fill="#F0F4F4"/>
<path d="M-599.688 129L-547.76 219.067L-448.002 161.392L-458.395 143.366L-541.517 191.423L-583.052 119.382L-599.688 129Z" fill="#F0F4F4"/>
<path d="M-373.393 70.1872C-370.535 75.1453 -369.697 80.3196 -370.881 85.71C-372.103 91.1228 -375.002 95.152 -379.578 97.7976L-429.486 126.652L-471.021 54.6111L-487.657 64.2292L-435.729 154.296L-369.185 115.823C-360.034 110.532 -354.235 102.474 -351.79 91.6484C-349.36 80.8872 -351.016 70.5275 -356.757 60.5691L-387.899 6.5543L-404.535 16.1724L-373.393 70.1872Z" fill="#F0F4F4"/>
<path d="M-375.626 -0.541568L-323.698 89.5251L-223.941 31.8502L-239.53 4.81125L-256.166 14.4293L-250.97 23.4423L-317.455 61.881L-348.634 7.80325L-282.148 -30.6355L-276.952 -21.6225L-260.316 -31.2406L-275.869 -58.2165L-375.626 -0.541568Z" fill="#F0F4F4"/>
<path d="M-193.794 -105.668L-223.885 -34.9078L-246.96 -74.9304L-263.595 -65.3124L-211.668 24.7543L-195.032 15.1362L-211.239 -12.9742L-198.219 -43.5275L-135.061 -19.536L-112.899 -32.3489L-190.488 -61.8637L-164.711 -122.483L-193.794 -105.668Z" fill="#F0F4F4"/>
<path d="M-73.7948 -175.046L-79.222 -117.872L-79.3383 -117.805L-131.497 -141.685L-152.495 -129.545L-77.2779 -95.1299L-59.036 -63.49L-42.4 -73.1081L-60.642 -104.748L-52.8545 -187.153L-73.7948 -175.046Z" fill="#F0F4F4"/>
<path d="M-11.032 -211.332L40.8959 -121.266L140.653 -178.941L125.064 -205.98L108.428 -196.362L113.624 -187.349L47.139 -148.91L15.9604 -202.988L82.4459 -241.426L87.6423 -232.413L104.278 -242.032L88.7253 -269.007L-11.032 -211.332Z" fill="#F0F4F4"/>
<path d="M184.12 -324.16L204.869 -288.171L138.384 -249.733L117.635 -285.721L100.999 -276.103L152.927 -186.037L169.562 -195.655L148.777 -231.707L215.262 -270.145L236.048 -234.093L252.684 -243.712L200.756 -333.778L184.12 -324.16Z" fill="#F0F4F4"/>
<path d="M255.611 -305.49L240.022 -332.529L289.93 -361.383C294.505 -364.029 299.439 -364.529 304.732 -362.882C309.985 -361.214 314.041 -357.9 316.9 -352.942L322.097 -343.929L255.611 -305.49ZM213.029 -340.874L264.957 -250.807L281.593 -260.425L266.004 -287.464L332.489 -325.903L348.079 -298.864L364.715 -308.482L333.536 -362.56C327.819 -372.476 319.687 -379.092 309.141 -382.407C298.581 -385.658 288.725 -384.637 279.573 -379.346L213.029 -340.874Z" fill="#F0F4F4"/>
<path d="M376.988 -315.578L393.624 -325.196L341.696 -415.263L325.06 -405.645L376.988 -315.578Z" fill="#F0F4F4"/>
<path d="M437.033 -470.382L476.424 -402.06L373.979 -433.927L353.911 -422.325L405.839 -332.259L422.475 -341.877L383.084 -410.199L485.529 -378.331L505.596 -389.933L453.668 -480L437.033 -470.382Z" fill="#F0F4F4"/>
<path d="M-357.68 325.887L-305.752 415.953L-205.994 358.278L-216.387 340.253L-299.509 388.309L-341.044 316.269L-357.68 325.887Z" fill="#F0F4F4"/>
<path d="M-131.385 267.074C-128.527 272.032 -127.689 277.206 -128.873 282.597C-130.095 288.01 -132.994 292.039 -137.57 294.684L-187.478 323.539L-229.013 251.498L-245.649 261.116L-193.721 351.183L-127.177 312.71C-118.026 307.419 -112.228 299.361 -109.783 288.535C-107.352 277.774 -109.008 267.414 -114.749 257.456L-145.892 203.441L-162.528 213.059L-131.385 267.074Z" fill="#F0F4F4"/>
<path d="M-133.618 196.345L-81.6905 286.412L18.0669 228.737L2.47761 201.698L-14.1583 211.316L-8.96187 220.329L-75.4474 258.768L-106.626 204.69L-40.1404 166.251L-34.944 175.264L-18.3081 165.646L-33.861 138.67L-133.618 196.345Z" fill="#F0F4F4"/>
<path d="M48.2134 91.2187L18.1233 161.979L-4.95172 121.956L-21.5877 131.574L30.3402 221.641L46.9762 212.023L30.7691 183.913L43.7885 153.359L106.947 177.351L129.109 164.538L51.5202 135.023L77.2972 74.4039L48.2134 91.2187Z" fill="#F0F4F4"/>
<path d="M168.213 21.8407L162.786 79.0142L162.67 79.0815L110.511 55.2013L89.5124 67.3417L164.73 101.757L182.972 133.397L199.608 123.779L181.366 92.1387L189.153 9.73401L168.213 21.8407Z" fill="#F0F4F4"/>
<path d="M230.976 -14.4457L282.904 75.6209L382.661 17.946L367.072 -9.09292L350.436 0.525177L355.632 9.53814L289.147 47.9769L257.968 -6.10093L324.454 -44.5397L329.65 -35.5267L346.286 -45.1448L330.733 -72.1207L230.976 -14.4457Z" fill="#F0F4F4"/>
<path d="M426.128 -127.273L446.877 -91.2845L380.392 -52.8458L359.642 -88.8346L343.007 -79.2165L394.934 10.8501L411.57 1.232L390.785 -34.8199L457.27 -73.2586L478.056 -37.2067L494.692 -46.8248L442.764 -136.891L426.128 -127.273Z" fill="#F0F4F4"/>
<path d="M497.619 -108.604L482.03 -135.642L531.937 -164.497C536.513 -167.142 541.447 -167.642 546.74 -165.996C551.993 -164.327 556.049 -161.013 558.908 -156.055L564.104 -147.042L497.619 -108.604ZM455.037 -143.987L506.965 -53.9207L523.601 -63.5388L508.012 -90.5777L574.497 -129.016L590.086 -101.977L606.722 -111.596L575.544 -165.673C569.827 -175.59 561.695 -182.205 551.149 -185.52C540.589 -188.771 530.733 -187.751 521.581 -182.46L455.037 -143.987Z" fill="#F0F4F4"/>
<path d="M618.996 -118.691L635.632 -128.31L583.704 -218.376L567.068 -208.758L618.996 -118.691Z" fill="#F0F4F4"/>
<path d="M679.04 -273.495L718.431 -205.173L615.987 -237.041L595.919 -225.438L647.847 -135.372L664.483 -144.99L625.092 -213.312L727.536 -181.444L747.604 -193.047L695.676 -283.113L679.04 -273.495Z" fill="#F0F4F4"/>
<path d="M-861.711 785.883L-809.783 875.949L-710.026 818.275L-720.419 800.249L-803.54 848.305L-845.075 776.265L-861.711 785.883Z" fill="#F0F4F4"/>
<path d="M-635.417 727.07C-632.558 732.028 -631.721 737.202 -632.904 742.593C-634.127 748.006 -637.026 752.035 -641.602 754.68L-691.509 783.535L-733.044 711.494L-749.68 721.112L-697.752 811.179L-631.209 772.706C-622.057 767.415 -616.259 759.357 -613.814 748.531C-611.384 737.77 -613.039 727.41 -618.781 717.452L-649.923 663.437L-666.559 673.055L-635.417 727.07Z" fill="#F0F4F4"/>
<path d="M-637.65 656.341L-585.722 746.408L-485.964 688.733L-501.554 661.694L-518.19 671.312L-512.993 680.325L-579.479 718.764L-610.657 664.686L-544.172 626.247L-538.975 635.26L-522.339 625.642L-537.892 598.666L-637.65 656.341Z" fill="#F0F4F4"/>
<path d="M-455.818 551.215L-485.908 621.975L-508.983 581.952L-525.619 591.57L-473.691 681.637L-457.055 672.019L-473.262 643.909L-460.243 613.355L-397.084 637.347L-374.923 624.534L-452.511 595.019L-426.734 534.4L-455.818 551.215Z" fill="#F0F4F4"/>
<path d="M-335.818 481.837L-341.245 539.01L-341.362 539.078L-393.52 515.197L-414.519 527.338L-339.301 561.753L-321.059 593.393L-304.423 583.775L-322.665 552.135L-314.878 469.73L-335.818 481.837Z" fill="#F0F4F4"/>
<path d="M-273.055 445.55L-221.128 535.617L-121.37 477.942L-136.959 450.903L-153.595 460.521L-148.399 469.534L-214.884 507.973L-246.063 453.895L-179.578 415.456L-174.381 424.469L-157.745 414.851L-173.298 387.875L-273.055 445.55Z" fill="#F0F4F4"/>
<path d="M-77.9033 332.723L-57.154 368.712L-123.639 407.15L-144.389 371.161L-161.025 380.78L-109.097 470.846L-92.461 461.228L-113.247 425.176L-46.7611 386.738L-25.9755 422.789L-9.33954 413.171L-61.2674 323.105L-77.9033 332.723Z" fill="#F0F4F4"/>
<path d="M-6.41238 351.392L-22.0016 324.354L27.9061 295.499C32.4819 292.854 37.416 292.354 42.7084 294C47.962 295.669 52.0181 298.983 54.8767 303.941L60.0731 312.954L-6.41238 351.392ZM-48.9941 316.009L2.93381 406.075L19.5697 396.457L3.98046 369.418L70.466 330.98L86.0552 358.019L102.691 348.4L71.5126 294.323C65.7953 284.406 57.6637 277.791 47.1178 274.476C36.5574 271.225 26.7013 272.245 17.5496 277.536L-48.9941 316.009Z" fill="#F0F4F4"/>
<path d="M114.964 341.305L131.6 331.687L79.6725 241.62L63.0366 251.238L114.964 341.305Z" fill="#F0F4F4"/>
<path d="M175.009 186.501L214.4 254.823L111.956 222.955L91.8877 234.558L143.816 324.624L160.452 315.006L121.06 246.684L223.505 278.552L243.573 266.949L191.645 176.883L175.009 186.501Z" fill="#F0F4F4"/>
</g>
</svg>
