<svg width="327" height="371" viewBox="0 0 327 371" fill="none" xmlns="http://www.w3.org/2000/svg">
<mask id="mask0_483_92757" style="mask-type:alpha" maskUnits="userSpaceOnUse" x="0" y="0" width="327" height="371">
<rect width="327" height="371" rx="5" fill="black"/>
</mask>
<g mask="url(#mask0_483_92757)">
<g opacity="0.75">
<path d="M-598.727 296.664L-546.799 386.731L-447.041 329.056L-457.434 311.03L-540.556 359.087L-582.091 287.046L-598.727 296.664Z" fill="#F0F4F4"/>
<path d="M-372.432 237.851C-369.574 242.809 -368.736 247.984 -369.92 253.374C-371.142 258.787 -374.041 262.816 -378.617 265.462L-428.525 294.316L-470.06 222.275L-486.696 231.893L-434.768 321.96L-368.224 283.488C-359.073 278.196 -353.274 270.138 -350.83 259.312C-348.399 248.551 -350.055 238.192 -355.796 228.233L-386.939 174.218L-403.574 183.836L-372.432 237.851Z" fill="#F0F4F4"/>
<path d="M-374.665 167.122L-322.737 257.189L-222.98 199.514L-238.569 172.475L-255.205 182.093L-250.009 191.106L-316.494 229.545L-347.673 175.467L-281.187 137.029L-275.991 146.042L-259.355 136.423L-274.908 109.448L-374.665 167.122Z" fill="#F0F4F4"/>
<path d="M-192.833 61.9961L-222.924 132.756L-245.999 92.7336L-262.635 102.352L-210.707 192.418L-194.071 182.8L-210.278 154.69L-197.258 124.137L-134.1 148.128L-111.938 135.315L-189.527 105.8L-163.75 45.1812L-192.833 61.9961Z" fill="#F0F4F4"/>
<path d="M-72.8338 -7.38197L-78.261 49.7916L-78.3774 49.8588L-130.536 25.9787L-151.535 38.119L-76.317 72.5341L-58.075 104.174L-41.4391 94.556L-59.6811 62.916L-51.8935 -19.4887L-72.8338 -7.38197Z" fill="#F0F4F4"/>
<path d="M-10.0711 -43.6684L41.8568 46.3982L141.614 -11.2767L126.025 -38.3156L109.389 -28.6975L114.585 -19.6845L48.0999 18.7542L16.9214 -35.3236L83.4069 -73.7623L88.6033 -64.7494L105.239 -74.3675L89.6863 -101.343L-10.0711 -43.6684Z" fill="#F0F4F4"/>
<path d="M185.081 -156.496L205.83 -120.507L139.345 -82.0684L118.596 -118.057L101.96 -108.439L153.888 -18.3725L170.523 -27.9906L149.738 -64.0425L216.223 -102.481L237.009 -66.4294L253.645 -76.0475L201.717 -166.114L185.081 -156.496Z" fill="#F0F4F4"/>
<path d="M256.572 -137.826L240.983 -164.865L290.89 -193.719C295.466 -196.365 300.4 -196.865 305.693 -195.218C310.946 -193.55 315.002 -190.236 317.861 -185.278L323.057 -176.265L256.572 -137.826ZM213.99 -173.21L265.918 -83.1433L282.554 -92.7614L266.965 -119.8L333.45 -158.239L349.04 -131.2L365.676 -140.818L334.497 -194.896C328.78 -204.812 320.648 -211.428 310.102 -214.743C299.542 -217.994 289.686 -216.973 280.534 -211.682L213.99 -173.21Z" fill="#F0F4F4"/>
<path d="M377.949 -147.914L394.585 -157.532L342.657 -247.599L326.021 -237.981L377.949 -147.914Z" fill="#F0F4F4"/>
<path d="M437.994 -302.718L477.385 -234.396L374.94 -266.263L354.872 -254.661L406.8 -164.594L423.436 -174.213L384.045 -242.535L486.489 -210.667L506.557 -222.269L454.629 -312.336L437.994 -302.718Z" fill="#F0F4F4"/>
</g>
<g opacity="0.75">
<path d="M-599.686 129L-547.758 219.067L-448 161.392L-458.393 143.366L-541.515 191.423L-583.05 119.382L-599.686 129Z" fill="white"/>
<path d="M-373.391 70.1872C-370.533 75.1453 -369.695 80.3196 -370.879 85.71C-372.101 91.1228 -375 95.152 -379.576 97.7976L-429.484 126.652L-471.019 54.6111L-487.655 64.2292L-435.727 154.296L-369.183 115.823C-360.032 110.532 -354.233 102.474 -351.789 91.6484C-349.358 80.8872 -351.014 70.5275 -356.755 60.5691L-387.898 6.5543L-404.533 16.1724L-373.391 70.1872Z" fill="white"/>
<path d="M-375.624 -0.541568L-323.696 89.5251L-223.939 31.8502L-239.528 4.81125L-256.164 14.4293L-250.968 23.4423L-317.453 61.881L-348.632 7.80325L-282.146 -30.6355L-276.95 -21.6225L-260.314 -31.2406L-275.867 -58.2165L-375.624 -0.541568Z" fill="white"/>
<path d="M-193.792 -105.668L-223.883 -34.9078L-246.958 -74.9304L-263.594 -65.3124L-211.666 24.7543L-195.03 15.1362L-211.237 -12.9742L-198.217 -43.5275L-135.059 -19.536L-112.897 -32.3489L-190.486 -61.8637L-164.709 -122.483L-193.792 -105.668Z" fill="white"/>
<path d="M-73.7928 -175.046L-79.22 -117.872L-79.3364 -117.805L-131.495 -141.685L-152.494 -129.545L-77.276 -95.1299L-59.034 -63.49L-42.3981 -73.1081L-60.6401 -104.748L-52.8525 -187.153L-73.7928 -175.046Z" fill="white"/>
<path d="M-11.03 -211.332L40.8978 -121.266L140.655 -178.941L125.066 -205.98L108.43 -196.362L113.626 -187.349L47.1409 -148.91L15.9624 -202.988L82.4479 -241.426L87.6443 -232.413L104.28 -242.032L88.7273 -269.007L-11.03 -211.332Z" fill="white"/>
<path d="M184.122 -324.16L204.871 -288.171L138.386 -249.733L117.637 -285.721L101.001 -276.103L152.929 -186.037L169.564 -195.655L148.779 -231.707L215.264 -270.145L236.05 -234.093L252.686 -243.712L200.758 -333.778L184.122 -324.16Z" fill="white"/>
<path d="M255.613 -305.49L240.024 -332.529L289.931 -361.383C294.507 -364.029 299.441 -364.529 304.734 -362.882C309.987 -361.214 314.043 -357.9 316.902 -352.942L322.099 -343.929L255.613 -305.49ZM213.031 -340.874L264.959 -250.807L281.595 -260.425L266.006 -287.464L332.491 -325.903L348.081 -298.864L364.717 -308.482L333.538 -362.56C327.821 -372.476 319.689 -379.092 309.143 -382.407C298.583 -385.658 288.727 -384.637 279.575 -379.346L213.031 -340.874Z" fill="white"/>
<path d="M376.99 -315.578L393.626 -325.196L341.698 -415.263L325.062 -405.645L376.99 -315.578Z" fill="white"/>
<path d="M437.035 -470.382L476.426 -402.06L373.981 -433.927L353.913 -422.325L405.841 -332.259L422.477 -341.877L383.086 -410.199L485.531 -378.331L505.598 -389.933L453.67 -480L437.035 -470.382Z" fill="white"/>
</g>
<g opacity="0.75">
<path d="M-357.68 325.887L-305.752 415.953L-205.994 358.278L-216.387 340.253L-299.509 388.309L-341.044 316.269L-357.68 325.887Z" fill="#F0F4F4"/>
<path d="M-131.385 267.074C-128.527 272.032 -127.689 277.206 -128.873 282.597C-130.095 288.01 -132.994 292.039 -137.57 294.684L-187.478 323.539L-229.013 251.498L-245.649 261.116L-193.721 351.183L-127.177 312.71C-118.026 307.419 -112.228 299.361 -109.783 288.535C-107.352 277.774 -109.008 267.414 -114.749 257.456L-145.892 203.441L-162.528 213.059L-131.385 267.074Z" fill="#F0F4F4"/>
<path d="M-133.618 196.345L-81.6904 286.412L18.0669 228.737L2.47762 201.698L-14.1583 211.316L-8.96187 220.329L-75.4474 258.768L-106.626 204.69L-40.1404 166.251L-34.944 175.264L-18.3081 165.646L-33.861 138.67L-133.618 196.345Z" fill="#F0F4F4"/>
<path d="M48.2134 91.2187L18.1233 161.979L-4.95173 121.956L-21.5876 131.574L30.3402 221.641L46.9762 212.023L30.7691 183.913L43.7885 153.359L106.947 177.351L129.109 164.538L51.5202 135.023L77.2972 74.4039L48.2134 91.2187Z" fill="#F0F4F4"/>
<path d="M168.213 21.8407L162.786 79.0142L162.67 79.0815L110.511 55.2013L89.5124 67.3417L164.73 101.757L182.972 133.397L199.608 123.779L181.366 92.1387L189.153 9.734L168.213 21.8407Z" fill="#F0F4F4"/>
<path d="M230.976 -14.4457L282.904 75.6209L382.661 17.946L367.072 -9.09293L350.436 0.525164L355.632 9.53813L289.147 47.9769L257.968 -6.10093L324.454 -44.5397L329.65 -35.5267L346.286 -45.1448L330.733 -72.1207L230.976 -14.4457Z" fill="#F0F4F4"/>
<path d="M426.128 -127.273L446.877 -91.2845L380.392 -52.8458L359.642 -88.8346L343.006 -79.2165L394.934 10.8501L411.57 1.23202L390.785 -34.8199L457.27 -73.2586L478.056 -37.2067L494.692 -46.8248L442.764 -136.891L426.128 -127.273Z" fill="#F0F4F4"/>
<path d="M497.619 -108.604L482.03 -135.643L531.937 -164.497C536.513 -167.142 541.447 -167.642 546.74 -165.996C551.993 -164.327 556.049 -161.013 558.908 -156.055L564.104 -147.042L497.619 -108.604ZM455.037 -143.987L506.965 -53.9207L523.601 -63.5388L508.012 -90.5777L574.497 -129.016L590.086 -101.978L606.722 -111.596L575.544 -165.673C569.827 -175.59 561.695 -182.205 551.149 -185.52C540.589 -188.771 530.733 -187.751 521.581 -182.46L455.037 -143.987Z" fill="#F0F4F4"/>
<path d="M618.996 -118.691L635.632 -128.31L583.704 -218.376L567.068 -208.758L618.996 -118.691Z" fill="#F0F4F4"/>
<path d="M679.04 -273.495L718.431 -205.173L615.987 -237.041L595.919 -225.438L647.847 -135.372L664.483 -144.99L625.092 -213.312L727.536 -181.444L747.604 -193.047L695.676 -283.113L679.04 -273.495Z" fill="#F0F4F4"/>
</g>
<g opacity="0.75">
<path d="M-861.713 785.883L-809.785 875.949L-710.028 818.275L-720.421 800.249L-803.542 848.305L-845.077 776.265L-861.713 785.883Z" fill="#F0F4F4"/>
<path d="M-635.419 727.07C-632.56 732.028 -631.722 737.202 -632.906 742.593C-634.129 748.006 -637.028 752.035 -641.604 754.68L-691.511 783.535L-733.046 711.494L-749.682 721.112L-697.754 811.179L-631.211 772.706C-622.059 767.415 -616.261 759.357 -613.816 748.531C-611.386 737.77 -613.041 727.41 -618.783 717.452L-649.925 663.437L-666.561 673.055L-635.419 727.07Z" fill="#F0F4F4"/>
<path d="M-637.652 656.341L-585.724 746.408L-485.966 688.733L-501.556 661.694L-518.191 671.312L-512.995 680.325L-579.481 718.764L-610.659 664.686L-544.174 626.247L-538.977 635.26L-522.341 625.642L-537.894 598.666L-637.652 656.341Z" fill="#F0F4F4"/>
<path d="M-455.82 551.215L-485.91 621.975L-508.985 581.952L-525.621 591.57L-473.693 681.637L-457.057 672.019L-473.264 643.909L-460.245 613.355L-397.086 637.347L-374.924 624.534L-452.513 595.019L-426.736 534.4L-455.82 551.215Z" fill="#F0F4F4"/>
<path d="M-335.82 481.837L-341.247 539.01L-341.364 539.078L-393.522 515.197L-414.521 527.338L-339.303 561.753L-321.061 593.393L-304.425 583.775L-322.667 552.135L-314.88 469.73L-335.82 481.837Z" fill="#F0F4F4"/>
<path d="M-273.057 445.55L-221.13 535.617L-121.372 477.942L-136.961 450.903L-153.597 460.521L-148.401 469.534L-214.886 507.973L-246.065 453.895L-179.579 415.456L-174.383 424.469L-157.747 414.851L-173.3 387.875L-273.057 445.55Z" fill="#F0F4F4"/>
<path d="M-77.9053 332.723L-57.1559 368.712L-123.641 407.15L-144.391 371.161L-161.027 380.78L-109.099 470.846L-92.4629 461.228L-113.249 425.176L-46.7631 386.738L-25.9774 422.789L-9.34149 413.171L-61.2694 323.105L-77.9053 332.723Z" fill="#F0F4F4"/>
<path d="M-6.41434 351.392L-22.0036 324.354L27.9041 295.499C32.48 292.854 37.4141 292.354 42.7064 294C47.96 295.669 52.0161 298.983 54.8747 303.941L60.0712 312.954L-6.41434 351.392ZM-48.996 316.009L2.93186 406.075L19.5678 396.457L3.97851 369.418L70.464 330.98L86.0533 358.019L102.689 348.4L71.5107 294.323C65.7934 284.406 57.6618 277.791 47.1159 274.476C36.5554 271.225 26.6993 272.245 17.5476 277.536L-48.996 316.009Z" fill="#F0F4F4"/>
<path d="M114.963 341.305L131.598 331.687L79.6706 241.62L63.0347 251.238L114.963 341.305Z" fill="#F0F4F4"/>
<path d="M175.007 186.501L214.398 254.823L111.954 222.955L91.8858 234.558L143.814 324.624L160.45 315.006L121.058 246.684L223.503 278.552L243.571 266.949L191.643 176.883L175.007 186.501Z" fill="#F0F4F4"/>
</g>
</g>
</svg>
